<?xml version="1.0" encoding="UTF-8" standalone="no"?>
<!DOCTYPE svg PUBLIC "-//W3C//DTD SVG 1.1//EN" "http://www.w3.org/Graphics/SVG/1.1/DTD/svg11.dtd">
<svg xmlns="http://www.w3.org/2000/svg" version="1.1" viewBox="0 0 590 170">
<g stroke-width="0.20" fill="none" stroke-linecap="butt">
<path stroke="#1a1510" vector-effect="non-scaling-stroke" d="
  M 37.06 0.00
  L 23.05 0.43
  Q 20.86 0.49 22.34 2.10
  Q 25.40 5.43 23.33 9.49
  Q 23.27 9.62 23.24 9.76
  L 22.73 12.45
  A 1.02 1.01 -70.6 0 0 23.24 13.52
  L 24.50 14.21"
/>
<path stroke="#1a1510" vector-effect="non-scaling-stroke" d="
  M 59.25 29.04
  Q 56.26 29.43 53.25 29.25
  Q 51.98 29.18 50.82 29.58
  A 1.01 1.00 -20.7 0 0 50.22 30.90
  Q 50.77 32.28 50.16 33.79
  Q 50.07 34.00 50.09 34.23
  L 50.61 41.50
  A 0.97 0.97 0.0 0 0 51.10 42.29
  Q 52.68 43.22 54.50 43.46"
/>
<path stroke="#1a1510" vector-effect="non-scaling-stroke" d="
  M 90.74 154.84
  L 73.55 155.28
  Q 73.28 155.29 73.52 155.41
  L 73.74 155.52
  Q 74.13 155.70 73.74 155.83
  C 70.37 156.95 68.29 155.26 65.38 155.26
  Q 44.18 155.24 22.98 155.25
  A 1.02 0.98 -61.5 0 0 22.41 155.43
  L 18.66 158.03
  A 1.00 1.00 0.0 0 1 17.40 157.93
  L 9.42 150.32
  A 1.02 1.00 29.5 0 1 9.14 149.35
  C 10.21 145.21 7.24 142.16 8.60 137.91
  A 0.99 0.97 35.5 0 0 8.44 136.99
  C 4.49 131.89 4.51 136.51 4.27 138.89
  A 1.01 0.99 80.5 0 1 3.71 139.69
  Q 1.78 140.62 1.86 143.27
  Q 1.95 146.22 0.54 152.25"
/>
</g>
<path fill="#14100a" d="
  M 13.56 0.00
  L 37.06 0.00
  L 23.05 0.43
  Q 20.86 0.49 22.34 2.10
  Q 25.40 5.43 23.33 9.49
  Q 23.27 9.62 23.24 9.76
  L 22.73 12.45
  A 1.02 1.01 -70.6 0 0 23.24 13.52
  L 24.50 14.21
  L 18.27 14.26
  Q 15.23 14.28 15.23 17.25
  L 15.21 111.74
  A 1.01 1.00 90.0 0 0 16.21 112.75
  L 63.50 112.76
  Q 66.75 112.76 66.75 109.50
  L 66.75 85.00
  Q 66.75 82.31 64.18 82.29
  C 56.56 82.22 43.86 83.70 37.00 81.04
  C 29.67 78.21 25.01 71.83 24.83 63.87
  Q 24.56 52.02 24.73 46.99
  C 25.06 37.40 32.66 29.01 42.50 28.99
  Q 50.87 28.96 59.25 29.04
  Q 56.26 29.43 53.25 29.25
  Q 51.98 29.18 50.82 29.58
  A 1.01 1.00 -20.7 0 0 50.22 30.90
  Q 50.77 32.28 50.16 33.79
  Q 50.07 34.00 50.09 34.23
  L 50.61 41.50
  A 0.97 0.97 0.0 0 0 51.10 42.29
  Q 52.68 43.22 54.50 43.46
  L 41.81 43.53
  Q 39.52 43.54 39.52 45.81
  L 39.49 65.25
  Q 39.49 67.45 41.57 67.47
  C 49.68 67.52 62.54 66.16 69.38 68.88
  C 75.49 71.31 81.20 77.90 81.20 85.00
  Q 81.21 96.06 81.27 107.12
  C 81.32 115.87 77.40 122.79 69.11 126.03
  Q 65.87 127.30 60.19 127.28
  Q 38.23 127.20 16.21 127.28
  A 0.99 0.99 0.0 0 0 15.22 128.28
  L 15.26 153.76
  A 1.01 1.00 0.3 0 0 16.26 154.76
  L 90.74 154.84
  L 73.55 155.28
  Q 73.28 155.29 73.52 155.41
  L 73.74 155.52
  Q 74.13 155.70 73.74 155.83
  C 70.37 156.95 68.29 155.26 65.38 155.26
  Q 44.18 155.24 22.98 155.25
  A 1.02 0.98 -61.5 0 0 22.41 155.43
  L 18.66 158.03
  A 1.00 1.00 0.0 0 1 17.40 157.93
  L 9.42 150.32
  A 1.02 1.00 29.5 0 1 9.14 149.35
  C 10.21 145.21 7.24 142.16 8.60 137.91
  A 0.99 0.97 35.5 0 0 8.44 136.99
  C 4.49 131.89 4.51 136.51 4.27 138.89
  A 1.01 0.99 80.5 0 1 3.71 139.69
  Q 1.78 140.62 1.86 143.27
  Q 1.95 146.22 0.54 152.25
  Q 0.47 88.32 0.50 24.39
  Q 0.50 14.64 2.05 10.81
  Q 5.08 3.34 13.56 0.00
  Z"
/>
<path fill="#1f1a16" d="
  M 37.06 0.00
  L 158.06 0.00
  Q 166.52 3.31 169.56 10.83
  Q 171.06 14.55 171.08 23.33
  Q 171.18 80.60 170.96 137.83
  C 170.91 150.40 173.09 162.68 159.45 168.23
  Q 156.23 169.54 150.38 169.53
  Q 85.43 169.45 20.50 169.53
  C 9.49 169.54 2.06 163.58 0.54 152.25
  Q 1.95 146.22 1.86 143.27
  Q 1.78 140.62 3.71 139.69
  A 1.01 0.99 80.5 0 0 4.27 138.89
  C 4.51 136.51 4.49 131.89 8.44 136.99
  A 0.99 0.97 35.5 0 1 8.60 137.91
  C 7.24 142.16 10.21 145.21 9.14 149.35
  A 1.02 1.00 29.5 0 0 9.42 150.32
  L 17.40 157.93
  A 1.00 1.00 0.0 0 0 18.66 158.03
  L 22.41 155.43
  A 1.02 0.98 -61.5 0 1 22.98 155.25
  Q 44.18 155.24 65.38 155.26
  C 68.29 155.26 70.37 156.95 73.74 155.83
  Q 74.13 155.70 73.74 155.52
  L 73.52 155.41
  Q 73.28 155.29 73.55 155.28
  L 90.74 154.84
  Q 91.17 114.06 91.03 73.27
  C 90.99 60.87 100.11 52.96 112.25 52.97
  Q 129.35 52.99 146.00 53.01
  A 1.00 1.00 0.0 0 1 147.00 54.01
  L 147.00 153.86
  A 1.00 1.00 0.0 0 0 148.03 154.86
  L 154.57 154.65
  Q 156.50 154.59 156.50 152.19
  L 156.50 44.52
  A 1.00 1.00 0.0 0 0 155.50 43.52
  L 54.50 43.46
  Q 52.68 43.22 51.10 42.29
  A 0.97 0.97 0.0 0 1 50.61 41.50
  L 50.09 34.23
  Q 50.07 34.00 50.16 33.79
  Q 50.77 32.28 50.22 30.90
  A 1.01 1.00 -20.7 0 1 50.82 29.58
  Q 51.98 29.18 53.25 29.25
  Q 56.26 29.43 59.25 29.04
  L 155.51 29.01
  A 1.00 1.00 0.0 0 0 156.51 28.01
  L 156.48 16.81
  Q 156.47 14.24 154.44 14.24
  L 24.50 14.21
  L 23.24 13.52
  A 1.02 1.01 -70.6 0 1 22.73 12.45
  L 23.24 9.76
  Q 23.27 9.62 23.33 9.49
  Q 25.40 5.43 22.34 2.10
  Q 20.86 0.49 23.05 0.43
  L 37.06 0.00
  Z
  M 122.75 117.46
  L 122.75 129.75
  A 1.00 1.00 0.0 0 1 121.75 130.75
  L 106.50 130.75
  A 1.00 1.00 0.0 0 0 105.50 131.75
  L 105.50 153.75
  A 1.00 1.00 0.0 0 0 106.50 154.75
  L 131.25 154.75
  A 1.00 1.00 0.0 0 0 132.25 153.75
  L 132.26 68.53
  A 1.01 1.01 0.0 0 0 131.26 67.52
  Q 120.75 67.45 110.26 67.49
  C 107.03 67.50 105.52 69.18 105.51 72.46
  Q 105.44 93.93 105.56 115.52
  A 1.00 1.00 0.0 0 0 106.56 116.52
  L 121.75 116.46
  A 1.00 0.99 89.7 0 1 122.75 117.46
  Z"
/>
<path fill="#1f1a16" d="
  M 237.00 71.99
  C 244.59 71.99 252.90 80.05 255.40 86.83
  Q 256.49 89.78 256.50 94.93
  Q 256.51 108.47 256.49 122.00
  C 256.48 131.11 249.72 139.21 241.63 142.14
  Q 237.77 143.54 229.72 143.52
  Q 209.73 143.47 189.75 143.51
  A 1.00 1.00 0.0 0 1 188.75 142.51
  L 188.75 127.05
  A 1.01 1.00 -0.3 0 1 189.75 126.05
  Q 212.35 125.96 234.86 126.00
  C 236.94 126.01 239.00 124.54 239.00 122.37
  Q 239.01 107.36 238.99 92.37
  A 1.05 1.00 28.7 0 0 238.80 91.78
  C 237.79 90.40 236.70 89.50 234.85 89.50
  Q 223.05 89.50 211.25 89.50
  C 201.49 89.51 193.07 82.98 189.93 74.10
  C 187.41 66.98 188.80 55.12 188.77 47.26
  C 188.73 38.18 194.92 30.01 203.03 26.97
  Q 206.99 25.49 216.14 25.50
  Q 235.97 25.51 255.74 25.50
  A 1.00 1.00 0.0 0 1 256.74 26.50
  L 256.75 42.00
  A 0.99 0.99 0.0 0 1 255.76 43.00
  L 209.31 43.00
  Q 206.50 43.00 206.50 46.00
  L 206.50 69.00
  Q 206.50 72.00 210.00 72.00
  Q 223.50 72.00 237.00 71.99
  Z"
/>
<path fill="#1f1a16" d="
  M 457.81 99.25
  L 476.50 99.25
  A 1.00 1.00 0.0 0 1 477.50 100.25
  L 477.50 115.25
  A 1.00 1.00 0.0 0 1 476.50 116.25
  L 457.70 116.25
  A 1.00 1.00 0.0 0 0 456.70 117.25
  L 456.77 142.49
  A 1.00 1.00 0.0 0 1 455.77 143.49
  L 440.26 143.49
  A 1.01 1.00 0.3 0 1 439.26 142.49
  Q 439.24 94.21 439.25 46.01
  C 439.26 37.32 447.75 29.55 455.21 26.97
  Q 459.44 25.51 468.59 25.51
  Q 486.99 25.49 505.31 25.50
  A 1.00 1.00 0.0 0 1 506.31 26.50
  L 506.27 142.50
  A 1.00 1.00 0.0 0 1 505.27 143.50
  L 489.75 143.50
  A 1.00 1.00 0.0 0 1 488.75 142.50
  L 488.75 43.79
  A 1.00 1.00 0.0 0 0 487.76 42.79
  Q 466.15 42.58 461.83 42.81
  C 458.70 42.98 456.77 44.71 456.76 48.06
  Q 456.69 73.17 456.81 98.25
  A 1.00 1.00 0.0 0 0 457.81 99.25
  Z"
/>
<circle fill="#14100a" cx="528.63" cy="59.13" r="8.80"/>
<path fill="#1f1a16" d="
  M 270.75 92.00
  C 270.75 80.09 285.31 72.10 295.76 72.06
  Q 316.53 71.99 336.77 72.01
  A 1.00 1.00 0.0 0 1 337.77 73.01
  L 337.74 142.51
  A 1.00 1.00 0.0 0 1 336.74 143.51
  L 321.25 143.48
  A 1.01 1.01 0.0 0 1 320.25 142.47
  L 320.25 90.27
  A 1.00 0.99 -90.0 0 0 319.26 89.27
  Q 306.84 89.20 294.26 89.27
  C 290.42 89.29 287.99 91.14 288.00 95.21
  Q 288.01 108.26 288.00 121.24
  C 288.00 125.50 291.35 126.28 295.07 126.24
  Q 300.55 126.18 306.03 126.34
  A 1.00 1.00 0.0 0 1 307.00 127.34
  L 307.00 142.40
  A 1.00 1.00 0.0 0 1 306.03 143.40
  Q 296.46 143.70 290.32 143.42
  C 282.25 143.04 274.87 136.20 272.14 128.90
  Q 270.74 125.16 270.75 117.44
  Q 270.75 104.71 270.75 92.00
  Z"
/>
<path fill="#1f1a16" d="
  M 408.16 73.08
  C 415.12 75.25 421.43 80.44 423.99 87.51
  Q 424.97 90.22 424.98 96.24
  C 425.00 105.85 426.40 120.95 423.63 128.71
  C 420.69 136.91 412.24 143.09 403.31 143.34
  Q 393.91 143.61 384.49 143.46
  A 0.99 0.99 0.0 0 1 383.51 142.47
  L 383.50 127.01
  A 1.00 1.00 0.0 0 1 384.54 126.01
  Q 394.03 126.40 403.74 125.92
  C 406.36 125.79 407.51 123.65 407.51 121.11
  Q 407.49 106.89 407.50 92.66
  A 1.06 1.01 25.1 0 0 407.23 91.97
  Q 404.83 89.44 401.56 89.35
  Q 389.27 89.01 370.48 89.37
  A 1.00 1.00 0.0 0 0 369.50 90.37
  L 369.50 163.24
  A 1.00 1.00 0.0 0 1 368.50 164.24
  L 353.25 164.25
  A 1.00 1.00 0.0 0 1 352.25 163.25
  L 352.25 73.00
  A 1.00 1.00 0.0 0 1 353.25 72.00
  Q 374.42 72.00 395.72 72.00
  Q 404.69 72.00 408.16 73.08
  Z"
/>
<rect fill="#1f1a16" x="520.00" y="72.00" width="17.00" height="71.50" rx="0.58"/>
<path fill="#1f1a16" d="
  M 590.00 72.31
  L 590.00 89.06
  Q 578.03 89.58 574.49 89.24
  C 570.93 88.90 569.16 90.31 569.12 94.00
  Q 568.87 118.26 569.06 142.50
  A 1.01 1.01 0.0 0 1 568.05 143.51
  L 552.48 143.48
  A 1.01 1.00 -90.0 0 1 551.48 142.47
  Q 551.55 121.38 551.46 100.28
  Q 551.42 91.01 552.85 86.89
  Q 555.82 78.28 564.25 73.96
  C 570.66 70.68 582.90 71.79 590.00 72.31
  Z"
/>
</svg>
