<svg version="1.1" id="Layer_1" xmlns="http://www.w3.org/2000/svg" xmlns:xlink="http://www.w3.org/1999/xlink" x="0px" y="0px"
	 width="100%" viewBox="0 0 1366 768" enable-background="new 0 0 1366 768" xml:space="preserve">
<path fill="#FFFFFF" opacity="1.000000" stroke="none" 
	d="
M899.000000,769.000000 
	C599.368347,769.000000 300.236633,769.000000 1.052479,769.000000 
	C1.052479,513.064941 1.052479,257.129852 1.052479,1.097385 
	C456.215149,1.097385 911.430359,1.097385 1366.822754,1.097385 
	C1366.822754,256.999908 1366.822754,512.999939 1366.822754,769.000000 
	C1211.129517,769.000000 1055.314819,769.000000 899.000000,769.000000 
M763.500000,262.000000 
	C587.119934,262.000000 410.739899,262.000000 234.195526,262.000000 
	C234.195526,264.479401 234.195526,266.547882 234.195526,268.714478 
	C424.871033,268.714478 615.351013,268.714478 805.709045,268.714478 
	C805.709045,266.353638 805.709045,264.283752 805.709045,262.000000 
	C791.779419,262.000000 778.139709,262.000000 763.500000,262.000000 
z"/>
<path fill="#000000" opacity="1.000000" stroke="none" 
	d="
M764.000000,262.000000 
	C778.139709,262.000000 791.779419,262.000000 805.709045,262.000000 
	C805.709045,264.283752 805.709045,266.353638 805.709045,268.714478 
	C615.351013,268.714478 424.871033,268.714478 234.195526,268.714478 
	C234.195526,266.547882 234.195526,264.479401 234.195526,262.000000 
	C410.739899,262.000000 587.119934,262.000000 764.000000,262.000000 
z"/>
</svg>