<?xml version="1.0" encoding="UTF-8" standalone="no"?>
<!DOCTYPE svg PUBLIC "-//W3C//DTD SVG 1.1//EN" "http://www.w3.org/Graphics/SVG/1.1/DTD/svg11.dtd">
<svg xmlns="http://www.w3.org/2000/svg" version="1.1" viewBox="0 0 1000 1000">
<g stroke-width="0.20" fill="none" stroke-linecap="butt">
<path stroke="#808080" vector-effect="non-scaling-stroke" d="
  M 593.06 92.58
  Q 593.22 91.50 591.74 91.55
  C 577.82 91.98 560.48 91.52 550.00 91.52
  Q 411.84 91.48 273.68 91.51
  Q 272.77 91.51 270.33 91.72
  Q 268.86 91.84 267.43 91.76
  Q 265.29 91.63 266.83 93.13
  L 428.67 251.17
  A 1.00 1.00 0.0 0 0 430.07 251.17
  L 592.83 93.03
  A 0.80 0.75 74.0 0 0 593.06 92.58"
/>
<path stroke="#808080" vector-effect="non-scaling-stroke" d="
  M 433.50 277.89
  C 433.06 278.31 432.43 278.58 431.98 279.12
  A 1.01 1.00 -25.5 0 0 431.75 279.76
  L 431.75 303.68
  Q 431.75 306.03 433.44 304.40
  L 652.09 93.26
  Q 653.88 91.54 651.40 91.54
  L 628.02 91.58
  A 1.05 1.00 22.5 0 0 627.32 91.85
  Q 530.36 184.83 433.50 277.89"
/>
<path stroke="#808080" vector-effect="non-scaling-stroke" d="
  M 709.73 92.16
  A 0.34 0.34 0.0 0 0 709.49 91.58
  L 684.32 91.48
  A 0.34 0.34 0.0 0 0 684.08 91.58
  L 431.85 334.26
  A 0.34 0.34 0.0 0 0 431.75 334.50
  L 431.75 360.08
  A 0.34 0.34 0.0 0 0 432.33 360.32
  L 709.73 92.16"
/>
<path stroke="#808080" vector-effect="non-scaling-stroke" d="
  M 564.31 265.02
  L 431.89 393.28
  Q 430.12 395.00 432.59 395.00
  L 565.00 395.00
  A 1.00 1.00 0.0 0 0 566.00 394.00
  L 566.00 265.74
  Q 566.00 263.38 564.31 265.02"
/>
<path stroke="#808080" vector-effect="non-scaling-stroke" d="
  M 314.7416 451.1617
  A 0.43 0.43 0.0 0 0 314.3108 450.7325
  L 305.6708 450.7475
  A 0.43 0.43 0.0 0 0 305.2416 451.1783
  L 305.2584 460.8183
  A 0.43 0.43 0.0 0 0 305.6892 461.2475
  L 314.3292 461.2325
  A 0.43 0.43 0.0 0 0 314.7584 460.8017
  L 314.7416 451.1617"
/>
<path stroke="#808080" vector-effect="non-scaling-stroke" d="
  M 329.4815 451.1519
  A 0.40 0.40 0.0 0 0 329.0808 450.7526
  L 320.5809 450.7674
  A 0.40 0.40 0.0 0 0 320.1816 451.1681
  L 320.1985 460.8481
  A 0.40 0.40 0.0 0 0 320.5992 461.2474
  L 329.0991 461.2326
  A 0.40 0.40 0.0 0 0 329.4984 460.8319
  L 329.4815 451.1519"
/>
<path stroke="#808080" vector-effect="non-scaling-stroke" d="
  M 351.56 487.97
  C 357.00 492.40 366.74 493.12 373.28 496.68
  C 380.14 500.41 375.92 507.13 369.99 507.50
  Q 359.53 508.14 354.20 499.61
  A 1.00 0.99 -31.1 0 0 352.85 499.28
  L 346.03 503.29
  A 0.99 0.99 0.0 0 0 345.66 504.62
  C 351.97 516.33 367.67 519.34 379.27 514.27
  C 387.46 510.68 390.88 499.47 385.09 492.60
  C 382.26 489.24 376.67 486.62 372.43 485.60
  C 366.43 484.16 355.87 482.63 359.55 473.92
  A 1.02 0.98 -86.9 0 1 360.16 473.35
  Q 371.59 469.69 378.13 478.75
  A 1.00 1.00 0.0 0 0 379.56 478.95
  L 385.88 473.95
  A 1.00 1.00 0.0 0 0 386.05 472.56
  Q 377.82 461.89 363.66 462.90
  C 357.55 463.34 350.67 466.49 348.44 472.50
  C 346.49 477.78 347.04 484.28 351.56 487.97"
/>
<path stroke="#808080" vector-effect="non-scaling-stroke" d="
  M 711.02 489.02
  Q 713.06 490.48 715.43 491.29
  C 720.03 492.85 727.29 494.29 732.07 497.33
  C 735.89 499.77 735.08 504.66 731.19 506.48
  C 724.61 509.54 715.60 506.07 712.16 499.57
  A 1.00 1.00 0.0 0 0 710.77 499.18
  L 703.82 503.29
  A 1.01 1.00 -29.9 0 0 703.45 504.64
  Q 707.48 511.81 714.18 514.55
  C 723.99 518.56 741.34 517.24 745.17 504.95
  C 748.74 493.51 738.38 487.45 729.16 485.44
  C 723.25 484.14 712.54 481.27 717.92 473.39
  A 1.02 0.99 -79.0 0 1 718.51 472.98
  Q 729.77 470.20 736.01 478.70
  A 1.01 1.00 -37.2 0 0 737.44 478.89
  L 743.61 474.01
  A 1.01 1.01 0.0 0 0 743.81 472.64
  C 736.49 462.38 720.18 459.23 710.42 466.92
  C 703.60 472.30 703.16 483.38 711.02 489.02"
/>
<path stroke="#808080" vector-effect="non-scaling-stroke" d="
  M 325.75 504.00
  A 0.30 0.30 0.0 0 1 326.04 504.20
  L 329.77 515.30
  A 0.30 0.30 0.0 0 0 330.06 515.50
  L 340.98 515.50
  A 0.30 0.30 0.0 0 0 341.26 515.10
  L 323.06 463.70
  A 0.30 0.30 0.0 0 0 322.78 463.50
  L 312.37 463.50
  A 0.30 0.30 0.0 0 0 312.09 463.70
  L 293.94 515.10
  A 0.30 0.30 0.0 0 0 294.22 515.50
  L 304.16 515.50
  A 0.30 0.30 0.0 0 0 304.45 515.30
  L 308.19 504.20
  A 0.30 0.30 0.0 0 1 308.48 504.00
  L 325.75 504.00"
/>
<path stroke="#808080" vector-effect="non-scaling-stroke" d="
  M 256.73 511.34
  Q 259.26 513.80 262.31 514.96
  C 272.98 519.02 288.18 515.90 288.24 501.75
  Q 288.33 483.25 288.22 464.74
  A 1.00 1.00 0.0 0 0 287.22 463.75
  L 277.70 463.75
  A 1.00 0.99 -0.6 0 0 276.70 464.76
  Q 276.91 480.87 276.83 496.98
  C 276.78 506.81 272.09 511.08 262.99 504.24
  A 1.00 0.99 39.3 0 0 261.64 504.37
  L 256.67 509.96
  A 1.00 1.00 0.0 0 0 256.73 511.34"
/>
<path stroke="#808080" vector-effect="non-scaling-stroke" d="
  M 407.91 506.50
  A 0.41 0.41 0.0 0 1 407.50 506.09
  L 407.50 493.91
  A 0.41 0.41 0.0 0 1 407.91 493.50
  L 424.62 493.50
  A 0.41 0.41 0.0 0 0 425.03 493.09
  L 425.07 484.91
  A 0.41 0.41 0.0 0 0 424.66 484.50
  L 407.91 484.50
  A 0.41 0.41 0.0 0 1 407.50 484.09
  L 407.50 473.66
  A 0.41 0.41 0.0 0 1 407.91 473.25
  L 431.09 473.25
  A 0.41 0.41 0.0 0 0 431.50 472.84
  L 431.50 464.16
  A 0.41 0.41 0.0 0 0 431.09 463.75
  L 396.66 463.75
  A 0.41 0.41 0.0 0 0 396.25 464.16
  L 396.25 515.09
  A 0.41 0.41 0.0 0 0 396.66 515.50
  L 432.34 515.50
  A 0.41 0.41 0.0 0 0 432.75 515.09
  L 432.75 506.91
  A 0.41 0.41 0.0 0 0 432.34 506.50
  L 407.91 506.50"
/>
<path stroke="#808080" vector-effect="non-scaling-stroke" d="
  M 451.00 485.32
  Q 451.00 482.08 452.83 484.75
  L 473.50 515.06
  A 1.01 1.00 72.8 0 0 474.33 515.50
  L 483.43 515.50
  A 1.00 1.00 0.0 0 0 484.43 514.50
  L 484.50 464.75
  A 1.00 1.00 0.0 0 0 483.50 463.75
  L 474.75 463.75
  A 1.00 1.00 0.0 0 0 473.75 464.75
  L 473.75 493.55
  Q 473.75 496.89 471.92 494.10
  L 452.26 464.20
  A 1.01 1.01 0.0 0 0 451.42 463.75
  L 441.50 463.75
  A 1.00 1.00 0.0 0 0 440.50 464.75
  L 440.50 514.50
  A 1.00 1.00 0.0 0 0 441.50 515.50
  L 450.00 515.50
  A 1.00 1.00 0.0 0 0 451.00 514.50
  L 451.00 485.32"
/>
<path stroke="#808080" vector-effect="non-scaling-stroke" d="
  M 526.01 463.75
  A 0.33 0.33 0.0 0 0 525.72 463.91
  L 514.18 483.38
  A 0.33 0.33 0.0 0 1 513.61 483.38
  L 502.18 463.91
  A 0.33 0.33 0.0 0 0 501.89 463.75
  L 490.81 463.75
  A 0.33 0.33 0.0 0 0 490.53 464.25
  L 508.20 493.65
  A 0.33 0.33 0.0 0 1 508.25 493.82
  L 508.25 515.17
  A 0.33 0.33 0.0 0 0 508.58 515.50
  L 519.17 515.50
  A 0.33 0.33 0.0 0 0 519.50 515.17
  L 519.50 493.69
  A 0.33 0.33 0.0 0 1 519.55 493.52
  L 537.19 464.25
  A 0.33 0.33 0.0 0 0 536.91 463.75
  L 526.01 463.75"
/>
<path stroke="#808080" vector-effect="non-scaling-stroke" d="
  M 561.38 496.77
  L 571.33 514.98
  A 1.01 1.00 75.3 0 0 572.21 515.50
  L 582.04 515.50
  A 1.00 1.00 0.0 0 0 582.92 514.02
  L 572.90 495.73
  A 1.00 0.99 63.5 0 1 573.36 494.34
  Q 575.57 493.33 577.57 491.98
  C 583.03 488.27 583.83 480.42 582.29 474.50
  C 578.79 461.04 557.90 463.50 544.35 463.80
  A 1.01 0.99 -85.5 0 0 543.38 464.64
  Q 543.18 465.88 543.30 467.12
  Q 543.56 470.00 543.56 470.39
  Q 543.26 491.74 543.22 514.50
  A 1.00 1.00 0.0 0 0 544.22 515.50
  L 553.50 515.50
  A 1.00 1.00 0.0 0 0 554.50 514.50
  L 554.50 497.25
  A 1.00 1.00 0.0 0 1 555.50 496.25
  L 560.50 496.25
  A 1.01 1.00 75.3 0 1 561.38 496.77"
/>
<path stroke="#808080" vector-effect="non-scaling-stroke" d="
  M 604.75 464.02
  A 0.27 0.27 0.0 0 0 604.48 463.75
  L 593.52 463.75
  A 0.27 0.27 0.0 0 0 593.25 464.02
  L 593.25 515.24
  A 0.27 0.27 0.0 0 0 593.52 515.51
  L 604.48 515.51
  A 0.27 0.27 0.0 0 0 604.75 515.24
  L 604.75 464.02"
/>
<path stroke="#808080" vector-effect="non-scaling-stroke" d="
  M 638.75 473.62
  A 0.37 0.37 0.0 0 1 639.12 473.25
  L 653.88 473.25
  A 0.37 0.37 0.0 0 0 654.25 472.88
  L 654.25 464.12
  A 0.37 0.37 0.0 0 0 653.88 463.75
  L 612.12 463.75
  A 0.37 0.37 0.0 0 0 611.75 464.12
  L 611.75 472.88
  A 0.37 0.37 0.0 0 0 612.12 473.25
  L 627.21 473.25
  A 0.37 0.37 0.0 0 1 627.58 473.62
  L 627.26 515.12
  A 0.37 0.37 0.0 0 0 627.63 515.49
  L 638.38 515.51
  A 0.37 0.37 0.0 0 0 638.75 515.14
  L 638.75 473.62"
/>
<path stroke="#808080" vector-effect="non-scaling-stroke" d="
  M 691.99 463.75
  A 0.32 0.32 0.0 0 0 691.72 463.91
  L 680.23 483.54
  A 0.32 0.32 0.0 0 1 679.67 483.53
  L 668.30 463.91
  A 0.32 0.32 0.0 0 0 668.03 463.75
  L 656.91 463.75
  A 0.32 0.32 0.0 0 0 656.64 464.23
  L 674.20 493.62
  A 0.32 0.32 0.0 0 1 674.25 493.79
  L 674.25 515.18
  A 0.32 0.32 0.0 0 0 674.57 515.50
  L 685.18 515.50
  A 0.32 0.32 0.0 0 0 685.50 515.18
  L 685.50 493.84
  A 0.32 0.32 0.0 0 1 685.55 493.67
  L 703.23 464.23
  A 0.32 0.32 0.0 0 0 702.95 463.75
  L 691.99 463.75"
/>
<path stroke="#808080" vector-effect="non-scaling-stroke" d="
  M 429.93 589.17
  Q 434.07 583.41 440.57 579.99
  C 443.33 578.53 447.58 575.15 449.43 573.02
  C 457.38 563.86 453.78 550.16 441.31 547.45
  Q 426.18 544.17 416.75 557.20
  A 1.00 1.00 0.0 0 0 416.98 558.60
  L 423.49 563.19
  A 0.99 0.99 0.0 0 0 424.91 562.91
  Q 427.33 559.03 431.33 557.37
  C 443.47 552.32 446.12 566.04 436.54 571.57
  Q 427.85 576.58 422.37 581.86
  Q 415.55 588.43 415.77 598.52
  A 1.00 1.00 0.0 0 0 416.77 599.50
  L 452.81 599.50
  A 1.00 1.00 0.0 0 0 453.81 598.49
  L 453.73 591.74
  A 1.00 1.00 0.0 0 0 452.73 590.75
  L 430.75 590.75
  Q 428.80 590.75 429.93 589.17"
/>
<path stroke="#808080" vector-effect="non-scaling-stroke" d="
  M 468.69 597.06
  C 476.61 602.38 488.38 601.56 495.01 594.52
  C 504.66 584.27 504.27 562.19 494.56 552.35
  C 488.00 545.70 476.80 545.05 469.05 550.08
  C 455.38 558.94 455.78 588.39 468.69 597.06"
/>
<path stroke="#808080" vector-effect="non-scaling-stroke" d="
  M 522.23 590.76
  Q 517.67 590.77 520.99 587.62
  Q 523.17 585.54 525.47 583.67
  C 529.52 580.36 534.89 577.66 538.50 574.26
  C 543.82 569.25 545.38 561.02 541.94 554.47
  C 537.55 546.09 525.11 545.40 517.07 548.60
  Q 511.16 550.96 507.02 557.26
  A 1.00 0.99 -55.8 0 0 507.27 558.62
  L 513.61 563.16
  A 1.01 1.01 0.0 0 0 514.98 562.96
  C 518.32 558.67 522.62 555.30 528.31 556.78
  C 533.28 558.07 533.83 563.64 531.31 567.36
  C 529.82 569.57 525.98 572.13 523.61 573.53
  Q 515.62 578.25 510.84 583.83
  Q 505.76 589.76 506.01 598.53
  A 1.00 1.00 0.0 0 0 507.01 599.50
  L 543.15 599.50
  A 1.00 1.00 0.0 0 0 544.15 598.49
  L 544.10 591.74
  A 1.01 1.00 89.7 0 0 543.10 590.74
  L 522.23 590.76"
/>
<path stroke="#808080" vector-effect="non-scaling-stroke" d="
  M 579.14 571.11
  Q 584.38 568.69 585.76 563.39
  C 587.72 555.89 583.55 549.49 575.99 547.74
  Q 561.71 544.42 550.23 553.11
  A 1.00 0.99 50.9 0 0 550.09 554.56
  L 555.02 560.20
  A 1.00 1.00 0.0 0 0 556.42 560.30
  Q 563.53 554.24 572.72 557.13
  A 0.99 0.97 -8.3 0 1 573.23 557.50
  C 577.08 562.79 574.20 566.97 568.43 568.05
  Q 565.26 568.65 561.97 568.56
  A 1.00 0.99 0.3 0 0 560.94 569.57
  L 561.02 575.73
  A 1.00 0.99 -2.2 0 0 562.09 576.71
  Q 565.94 576.46 569.70 577.33
  C 580.44 579.84 576.54 593.28 565.26 591.35
  Q 559.29 590.34 555.05 586.11
  A 1.01 1.00 46.5 0 0 553.68 586.07
  L 548.12 591.00
  A 1.00 0.99 48.0 0 0 548.05 592.42
  Q 551.95 596.68 555.55 598.20
  C 564.01 601.78 577.94 601.70 584.42 594.35
  C 588.63 589.57 589.28 580.40 583.88 575.82
  Q 581.77 574.02 579.18 572.94
  Q 577.08 572.07 579.14 571.11"
/>
<path stroke="#808080" vector-effect="non-scaling-stroke" d="
  M 523.6857 752.5196
  A 1.71 1.71 0.0 0 0 521.9787 750.8066
  L 514.4587 750.7934
  A 1.71 1.71 0.0 0 0 512.7457 752.5005
  L 512.7343 759.0204
  A 1.71 1.71 0.0 0 0 514.4413 760.7334
  L 521.9613 760.7466
  A 1.71 1.71 0.0 0 0 523.6743 759.0395
  L 523.6857 752.5196"
/>
<path stroke="#808080" vector-effect="non-scaling-stroke" d="
  M 540.99 752.37
  A 1.56 1.56 0.0 0 0 539.43 750.81
  L 531.73 750.81
  A 1.56 1.56 0.0 0 0 530.17 752.37
  L 530.17 759.17
  A 1.56 1.56 0.0 0 0 531.73 760.73
  L 539.43 760.73
  A 1.56 1.56 0.0 0 0 540.99 759.17
  L 540.99 752.37"
/>
<path stroke="#808080" vector-effect="non-scaling-stroke" d="
  M 587.2171 752.4617
  A 1.71 1.71 0.0 0 0 585.4952 750.7637
  L 577.9154 750.8166
  A 1.71 1.71 0.0 0 0 576.2174 752.5385
  L 576.2629 759.0583
  A 1.71 1.71 0.0 0 0 577.9848 760.7563
  L 585.5646 760.7034
  A 1.71 1.71 0.0 0 0 587.2626 758.9815
  L 587.2171 752.4617"
/>
<path stroke="#808080" vector-effect="non-scaling-stroke" d="
  M 604.7376 752.5308
  A 1.79 1.79 0.0 0 0 602.9351 750.7534
  L 595.2753 750.8069
  A 1.79 1.79 0.0 0 0 593.4979 752.6093
  L 593.5424 758.9892
  A 1.79 1.79 0.0 0 0 595.3449 760.7666
  L 603.0047 760.7131
  A 1.79 1.79 0.0 0 0 604.7821 758.9107
  L 604.7376 752.5308"
/>
<path stroke="#808080" vector-effect="non-scaling-stroke" d="
  M 438.5032 752.1132
  A 1.06 1.06 0.0 0 0 437.4469 751.0495
  L 426.2670 751.0105
  A 1.06 1.06 0.0 0 0 425.2033 752.0668
  L 425.1768 759.6668
  A 1.06 1.06 0.0 0 0 426.2331 760.7305
  L 437.4130 760.7695
  A 1.06 1.06 0.0 0 0 438.4767 759.7132
  L 438.5032 752.1132"
/>
<path stroke="#808080" vector-effect="non-scaling-stroke" d="
  M 565.9919 752.5140
  A 1.46 1.46 0.0 0 0 564.5370 751.0489
  L 553.7170 751.0111
  A 1.46 1.46 0.0 0 0 552.2519 752.4660
  L 552.2281 759.2860
  A 1.46 1.46 0.0 0 0 553.6830 760.7511
  L 564.5030 760.7889
  A 1.46 1.46 0.0 0 0 565.9681 759.3340
  L 565.9919 752.5140"
/>
<path stroke="#808080" vector-effect="non-scaling-stroke" d="
  M 365.29 785.97
  A 1.00 0.98 -74.1 0 1 365.75 786.81
  L 365.75 807.73
  A 1.00 1.00 0.0 0 0 366.75 808.73
  L 378.77 808.73
  A 1.00 1.00 0.0 0 0 379.77 807.73
  L 379.71 787.25
  A 1.01 1.00 -17.2 0 1 380.15 786.42
  Q 382.81 784.65 383.27 783.73
  Q 390.43 769.39 397.00 754.67
  A 1.01 1.00 12.1 0 0 396.08 753.26
  L 383.86 753.24
  A 1.01 1.01 0.0 0 0 382.93 753.86
  L 373.69 776.11
  Q 372.76 778.35 371.84 776.11
  L 362.71 753.86
  A 1.01 0.99 -10.8 0 0 361.78 753.24
  L 349.32 753.26
  A 1.00 1.00 0.0 0 0 348.42 754.69
  Q 354.89 768.33 361.31 781.97
  Q 362.30 784.07 365.29 785.97"
/>
<path stroke="#808080" vector-effect="non-scaling-stroke" d="
  M 450.73 775.73
  Q 451.08 784.59 451.03 798.68
  C 450.98 810.71 463.59 810.28 471.71 808.55
  A 1.00 1.00 0.0 0 0 472.50 807.56
  L 472.46 801.41
  A 1.00 1.00 0.0 0 0 471.50 800.42
  L 465.36 800.17
  A 1.00 0.99 89.4 0 1 464.40 799.23
  C 463.96 791.42 464.24 783.88 464.16 776.06
  A 0.99 0.99 0.0 0 1 465.12 775.05
  L 471.42 774.84
  A 1.01 1.00 -0.9 0 0 472.39 773.85
  L 472.50 767.02
  A 1.00 1.00 0.0 0 0 471.50 766.01
  L 465.28 766.00
  A 1.00 1.00 0.0 0 1 464.28 765.02
  L 464.15 757.52
  A 1.00 0.99 84.6 0 0 462.99 756.55
  L 451.83 758.44
  A 0.99 0.98 -5.1 0 0 451.00 759.42
  L 451.00 765.00
  A 1.00 1.00 0.0 0 1 450.00 766.00
  L 444.01 765.99
  A 1.00 1.00 0.0 0 0 443.01 767.00
  L 443.04 772.69
  A 1.01 1.00 -85.1 0 0 443.86 773.67
  L 449.91 774.78
  A 1.02 1.01 -86.0 0 1 450.73 775.73"
/>
<path stroke="#808080" vector-effect="non-scaling-stroke" d="
  M 482.22 775.72
  Q 482.61 785.20 482.57 794.69
  C 482.54 803.34 483.45 808.87 493.21 809.16
  Q 499.37 809.35 503.01 808.45
  A 1.01 1.00 82.8 0 0 503.77 807.46
  L 503.66 801.39
  A 1.00 1.00 0.0 0 0 502.70 800.41
  L 496.54 800.15
  A 0.99 0.99 0.0 0 1 495.59 799.16
  L 495.47 776.06
  A 0.99 0.99 0.0 0 1 496.42 775.06
  L 502.54 774.80
  A 1.01 1.00 89.1 0 0 503.50 773.80
  L 503.51 767.00
  A 1.00 1.00 0.0 0 0 502.51 766.00
  L 496.51 766.00
  A 1.00 1.00 0.0 0 1 495.51 765.01
  L 495.50 757.51
  A 1.00 1.00 0.0 0 0 494.33 756.52
  L 483.35 758.43
  A 1.00 1.00 0.0 0 0 482.52 759.39
  L 482.41 765.01
  A 1.00 0.99 -89.4 0 1 481.42 765.99
  L 475.24 766.02
  A 1.00 0.99 90.0 0 0 474.25 767.02
  L 474.25 772.70
  A 1.00 0.99 4.8 0 0 475.08 773.68
  L 481.40 774.77
  A 1.00 0.99 -86.1 0 1 482.22 775.72"
/>
<path stroke="#808080" vector-effect="non-scaling-stroke" d="
  M 630.45 775.02
  L 636.78 774.71
  A 1.00 1.00 0.0 0 0 637.73 773.71
  L 637.75 767.01
  A 1.00 1.00 0.0 0 0 636.75 766.00
  L 630.51 766.00
  A 1.00 1.00 0.0 0 1 629.51 765.01
  L 629.46 757.51
  A 1.00 1.00 0.0 0 0 628.29 756.53
  L 617.38 758.40
  A 1.01 1.00 85.5 0 0 616.55 759.38
  L 616.48 765.01
  A 1.00 1.00 0.0 0 1 615.49 766.00
  L 609.25 766.01
  A 1.01 1.00 -0.3 0 0 608.25 767.01
  L 608.24 772.70
  A 1.01 1.00 4.7 0 0 609.08 773.69
  L 615.67 774.80
  A 1.01 1.00 4.7 0 1 616.51 775.79
  Q 616.41 787.30 616.62 798.81
  C 616.83 810.78 628.52 810.44 636.99 808.50
  A 1.00 1.00 0.0 0 0 637.77 807.51
  L 637.70 801.39
  A 0.99 0.99 0.0 0 0 636.74 800.41
  L 630.46 800.16
  A 1.00 1.00 0.0 0 1 629.50 799.16
  L 629.50 776.02
  A 1.00 0.99 88.8 0 1 630.45 775.02"
/>
<path stroke="#808080" vector-effect="non-scaling-stroke" d="
  M 408.18 767.30
  L 408.06 766.78
  A 1.00 1.00 0.0 0 0 407.08 765.99
  L 396.50 766.02
  A 1.00 1.00 0.0 0 0 395.50 767.02
  L 395.50 807.71
  A 1.00 1.00 0.0 0 0 396.50 808.71
  L 407.50 808.69
  A 1.00 1.00 0.0 0 0 408.50 807.69
  L 408.50 778.78
  A 1.00 0.98 77.1 0 1 409.05 777.89
  Q 414.08 775.36 419.74 775.30
  A 1.00 1.00 0.0 0 0 420.73 774.29
  L 420.70 766.50
  A 0.99 0.99 0.0 0 0 419.76 765.51
  Q 414.30 765.19 409.66 767.94
  A 1.00 0.99 68.3 0 1 408.18 767.30"
/>
<path stroke="#808080" vector-effect="non-scaling-stroke" d="
  M 532.07 807.68
  Q 532.22 808.06 532.52 808.33
  C 533.45 809.16 541.29 808.74 543.24 808.73
  A 0.99 0.99 0.0 0 0 544.23 807.74
  Q 544.29 795.44 544.22 782.34
  C 544.19 776.72 543.58 772.79 539.59 769.27
  C 533.06 763.53 518.41 765.27 510.52 767.14
  A 0.99 0.99 0.0 0 0 509.75 768.12
  L 509.81 774.72
  A 1.00 1.00 0.0 0 0 510.83 775.71
  Q 517.50 775.59 524.24 775.49
  C 529.02 775.42 532.27 777.20 531.19 782.45
  A 1.00 1.00 0.0 0 1 530.19 783.25
  Q 521.40 783.08 515.74 784.50
  C 507.37 786.60 505.59 795.25 508.09 802.26
  Q 510.26 808.32 518.01 809.15
  Q 524.71 809.88 530.73 807.15
  A 0.99 0.99 0.0 0 1 532.07 807.68"
/>
<path stroke="#808080" vector-effect="non-scaling-stroke" d="
  M 593.52 783.39
  C 583.84 782.91 569.46 783.55 570.60 797.57
  Q 571.50 808.58 582.51 809.21
  Q 589.17 809.59 594.17 807.02
  A 0.99 0.99 0.0 0 1 595.53 807.49
  Q 596.05 808.62 597.74 808.70
  Q 602.29 808.93 606.80 808.54
  A 1.01 1.00 87.8 0 0 607.71 807.55
  Q 607.85 793.60 607.57 779.70
  C 607.20 761.66 585.81 765.21 574.40 766.83
  A 1.01 1.00 86.4 0 0 573.54 767.82
  L 573.50 774.93
  A 1.00 0.99 -1.6 0 0 574.56 775.93
  C 578.46 775.68 590.35 774.27 593.20 776.86
  Q 595.47 778.92 594.54 782.64
  A 1.00 0.98 8.0 0 1 593.52 783.39"
/>
<path stroke="#808080" vector-effect="non-scaling-stroke" d="
  M 438.25 767.38
  A 1.37 1.37 0.0 0 0 436.88 766.01
  L 426.62 766.01
  A 1.37 1.37 0.0 0 0 425.25 767.38
  L 425.25 807.38
  A 1.37 1.37 0.0 0 0 426.62 808.75
  L 436.88 808.75
  A 1.37 1.37 0.0 0 0 438.25 807.38
  L 438.25 767.38"
/>
<path stroke="#808080" vector-effect="non-scaling-stroke" d="
  M 545.80 823.28
  C 554.04 824.94 565.45 824.66 565.47 813.24
  Q 565.53 789.99 565.49 767.01
  A 1.01 1.00 0.3 0 0 564.49 766.01
  L 553.50 766.00
  A 1.00 0.99 -89.7 0 0 552.50 767.00
  L 552.50 813.48
  A 1.00 1.00 0.0 0 1 551.55 814.48
  L 545.95 814.78
  A 1.00 1.00 0.0 0 0 545.00 815.78
  L 545.00 822.30
  A 1.00 1.00 0.0 0 0 545.80 823.28"
/>
<path stroke="#808080" vector-effect="non-scaling-stroke" d="
  M 298.74 851.12
  A 1.01 1.00 45.3 0 1 297.01 851.11
  L 291.41 841.50
  A 1.01 1.00 -15.0 0 0 290.54 841.00
  L 286.10 841.00
  Q 284.34 841.00 285.24 842.51
  L 294.36 857.83
  A 1.01 0.94 -62.5 0 1 294.50 858.34
  L 294.50 869.75
  A 1.00 1.00 0.0 0 0 295.50 870.75
  L 300.05 870.75
  A 1.01 1.00 89.7 0 0 301.05 869.73
  C 300.98 866.02 300.16 859.78 302.08 856.56
  Q 306.30 849.51 310.63 842.53
  Q 311.58 841.00 309.78 841.00
  L 305.32 841.00
  A 1.00 1.00 0.0 0 0 304.46 841.49
  L 298.74 851.12"
/>
<path stroke="#808080" vector-effect="non-scaling-stroke" d="
  M 465.25 850.47
  Q 461.83 848.51 458.03 849.37
  C 449.89 851.21 449.98 866.94 456.19 870.33
  C 459.31 872.02 462.97 871.34 465.60 868.85
  Q 467.07 867.46 467.11 869.77
  A 1.00 1.00 0.0 0 0 468.11 870.75
  L 472.26 870.75
  A 1.00 1.00 0.0 0 0 473.26 869.74
  L 472.90 841.99
  A 1.00 1.00 0.0 0 0 471.90 841.00
  L 467.75 841.00
  A 1.00 1.00 0.0 0 0 466.75 842.00
  L 466.75 849.61
  A 1.00 1.00 0.0 0 1 465.25 850.47"
/>
<path stroke="#808080" vector-effect="non-scaling-stroke" d="
  M 618.00 841.59
  A 0.59 0.59 0.0 0 0 617.41 841.00
  L 612.09 841.00
  A 0.59 0.59 0.0 0 0 611.50 841.59
  L 611.50 870.17
  A 0.59 0.59 0.0 0 0 612.09 870.76
  L 617.41 870.76
  A 0.59 0.59 0.0 0 0 618.00 870.17
  L 618.00 841.59"
/>
<path stroke="#808080" vector-effect="non-scaling-stroke" d="
  M 334.2954 841.6728
  A 0.40 0.40 0.0 0 0 333.8982 841.2700
  L 328.1784 841.2301
  A 0.40 0.40 0.0 0 0 327.7756 841.6273
  L 327.7446 846.0672
  A 0.40 0.40 0.0 0 0 328.1418 846.4700
  L 333.8616 846.5099
  A 0.40 0.40 0.0 0 0 334.2644 846.1127
  L 334.2954 841.6728"
/>
<path stroke="#808080" vector-effect="non-scaling-stroke" d="
  M 381.50 841.79
  A 0.48 0.48 0.0 0 0 381.02 841.31
  L 376.60 841.31
  A 0.48 0.48 0.0 0 0 376.12 841.79
  L 376.12 846.77
  A 0.48 0.48 0.0 0 0 376.60 847.25
  L 381.02 847.25
  A 0.48 0.48 0.0 0 0 381.50 846.77
  L 381.50 841.79"
/>
<path stroke="#808080" vector-effect="non-scaling-stroke" d="
  M 390.0135 842.0289
  A 0.74 0.74 0.0 0 0 389.2813 841.2812
  L 385.2615 841.2391
  A 0.74 0.74 0.0 0 0 384.5138 841.9713
  L 384.4665 846.4911
  A 0.74 0.74 0.0 0 0 385.1987 847.2388
  L 389.2185 847.2809
  A 0.74 0.74 0.0 0 0 389.9662 846.5487
  L 390.0135 842.0289"
/>
<path stroke="#808080" vector-effect="non-scaling-stroke" d="
  M 403.7389 841.7430
  A 0.52 0.52 0.0 0 0 403.2162 841.2257
  L 397.7563 841.2543
  A 0.52 0.52 0.0 0 0 397.2390 841.7770
  L 397.2611 845.9970
  A 0.52 0.52 0.0 0 0 397.7838 846.5143
  L 403.2437 846.4857
  A 0.52 0.52 0.0 0 0 403.7610 845.9630
  L 403.7389 841.7430"
/>
<path stroke="#808080" vector-effect="non-scaling-stroke" d="
  M 341.25 855.25
  L 341.26 866.50
  Q 341.26 869.66 344.18 870.37
  Q 348.09 871.33 352.06 870.71
  A 1.00 1.00 0.0 0 0 352.90 869.64
  L 352.70 867.22
  A 1.00 1.00 0.0 0 0 351.71 866.30
  Q 347.90 866.26 347.76 864.16
  Q 347.46 859.74 347.52 855.24
  A 1.00 1.00 0.0 0 1 348.52 854.25
  L 352.25 854.25
  A 1.00 1.00 0.0 0 0 353.25 853.25
  L 353.25 850.50
  A 1.00 1.00 0.0 0 0 352.25 849.50
  L 348.51 849.50
  A 1.01 1.00 -0.0 0 1 347.50 848.50
  L 347.50 843.00
  A 1.00 1.00 0.0 0 0 346.50 842.00
  L 342.26 842.00
  A 1.00 0.99 -89.7 0 0 341.26 843.00
  L 341.27 848.50
  A 1.00 1.00 0.0 0 1 340.27 849.50
  L 338.50 849.50
  A 1.00 1.00 0.0 0 0 337.50 850.50
  L 337.50 853.25
  A 1.00 1.00 0.0 0 0 338.50 854.25
  L 340.25 854.25
  A 1.01 1.00 89.7 0 1 341.25 855.25"
/>
<path stroke="#808080" vector-effect="non-scaling-stroke" d="
  M 358.16 855.25
  L 358.58 868.87
  A 1.00 0.98 9.2 0 0 359.24 869.77
  Q 364.07 871.53 369.07 870.68
  A 1.01 1.00 83.1 0 0 369.90 869.61
  L 369.70 867.17
  A 1.00 0.99 -2.7 0 0 368.68 866.25
  Q 365.11 866.34 364.99 864.42
  Q 364.70 859.85 364.77 855.24
  A 1.01 1.00 -89.4 0 1 365.77 854.25
  L 369.25 854.25
  A 1.00 1.00 0.0 0 0 370.25 853.25
  L 370.25 850.50
  A 1.00 1.00 0.0 0 0 369.25 849.50
  L 365.76 849.50
  A 1.01 1.00 -0.0 0 1 364.75 848.50
  L 364.75 843.00
  A 1.00 1.00 0.0 0 0 363.75 842.00
  L 359.27 842.00
  A 0.99 0.99 0.0 0 0 358.27 842.99
  L 358.24 848.50
  A 1.00 1.00 0.0 0 1 357.25 849.50
  L 355.78 849.51
  A 0.99 0.98 10.3 0 0 354.86 850.14
  Q 353.05 854.74 357.05 854.29
  A 1.00 0.99 -4.0 0 1 358.16 855.25"
/>
<path stroke="#808080" vector-effect="non-scaling-stroke" d="
  M 668.70 855.23
  Q 668.79 860.37 668.81 865.49
  C 668.83 871.48 674.84 871.25 679.50 870.74
  A 1.00 0.99 -3.8 0 0 680.39 869.73
  L 680.35 867.23
  A 1.00 1.00 0.0 0 0 679.32 866.25
  L 677.48 866.29
  Q 675.28 866.34 675.27 863.99
  L 675.24 855.25
  A 1.00 1.00 0.0 0 1 676.24 854.25
  L 679.75 854.25
  A 1.00 1.00 0.0 0 0 680.75 853.25
  L 680.75 850.50
  A 1.00 1.00 0.0 0 0 679.75 849.50
  L 676.25 849.50
  A 1.00 1.00 0.0 0 1 675.25 848.50
  L 675.25 843.00
  A 1.00 1.00 0.0 0 0 674.25 842.00
  L 669.75 842.00
  A 1.00 1.00 0.0 0 0 668.75 843.00
  L 668.75 848.49
  A 1.00 1.00 0.0 0 1 667.79 849.49
  L 666.04 849.57
  A 0.99 0.99 0.0 0 0 665.09 850.63
  L 665.28 853.32
  A 0.99 0.99 0.0 0 0 666.27 854.25
  L 667.70 854.25
  A 1.00 0.99 -0.3 0 1 668.70 855.23"
/>
<path stroke="#808080" vector-effect="non-scaling-stroke" d="
  M 317.25 850.48
  L 317.25 850.15
  A 0.64 0.64 0.0 0 0 316.61 849.50
  L 311.75 849.50
  A 1.00 1.00 0.0 0 0 310.75 850.50
  L 310.75 869.75
  A 1.00 1.00 0.0 0 0 311.75 870.75
  L 316.25 870.75
  A 1.00 1.00 0.0 0 0 317.25 869.75
  L 317.25 857.60
  A 1.00 0.98 -20.3 0 1 317.61 856.84
  Q 320.18 854.67 323.49 854.71
  A 1.00 0.99 -89.4 0 0 324.50 853.71
  L 324.50 850.08
  A 1.00 1.00 0.0 0 0 323.38 849.09
  Q 320.63 849.42 318.55 851.11
  Q 317.23 852.19 317.25 850.48"
/>
<path stroke="#808080" vector-effect="non-scaling-stroke" d="
  M 484.69 862.00
  L 496.29 862.00
  A 1.01 1.00 -87.5 0 0 497.29 861.08
  Q 497.54 857.91 496.52 854.95
  C 494.63 849.43 488.13 847.77 483.26 849.89
  C 475.70 853.17 475.48 862.16 479.46 868.54
  Q 479.60 868.76 479.83 868.89
  Q 488.59 873.70 496.35 868.59
  A 1.00 1.00 0.0 0 0 496.64 867.21
  L 495.27 865.08
  A 1.01 1.00 56.9 0 0 493.88 864.78
  Q 491.18 866.55 489.27 866.73
  Q 484.54 867.19 483.71 863.20
  A 1.00 1.00 0.0 0 1 484.69 862.00"
/>
<path stroke="#808080" vector-effect="non-scaling-stroke" d="
  M 507.75 850.61
  L 507.75 850.30
  A 0.80 0.79 0.4 0 0 506.95 849.50
  L 502.25 849.50
  A 1.00 1.00 0.0 0 0 501.25 850.50
  L 501.25 869.75
  A 1.00 1.00 0.0 0 0 502.25 870.75
  L 506.75 870.75
  A 1.00 1.00 0.0 0 0 507.75 869.75
  L 507.75 857.09
  A 1.00 0.97 67.1 0 1 508.01 856.42
  Q 510.39 853.77 514.20 854.68
  A 1.00 1.00 0.0 0 1 514.97 855.65
  L 514.96 869.75
  A 1.00 1.00 0.0 0 0 515.96 870.75
  L 520.22 870.75
  A 1.00 1.00 0.0 0 0 521.22 869.76
  Q 521.32 861.79 521.09 853.81
  Q 520.99 850.24 517.59 849.45
  Q 512.61 848.29 509.06 851.22
  Q 507.74 852.32 507.75 850.61"
/>
<path stroke="#808080" vector-effect="non-scaling-stroke" d="
  M 543.50 850.44
  L 543.50 850.14
  A 0.64 0.64 0.0 0 0 542.86 849.50
  L 538.00 849.50
  A 1.00 1.00 0.0 0 0 537.00 850.50
  L 537.00 878.00
  A 1.00 1.00 0.0 0 0 538.00 879.00
  L 542.50 879.00
  A 1.00 1.00 0.0 0 0 543.50 878.00
  L 543.50 870.54
  Q 543.50 868.75 545.02 869.69
  Q 549.99 872.76 554.09 870.02
  C 559.51 866.39 559.98 853.72 554.17 850.26
  Q 549.36 847.40 544.80 851.07
  Q 543.50 852.12 543.50 850.44"
/>
<path stroke="#808080" vector-effect="non-scaling-stroke" d="
  M 607.6582 858.9763
  A 9.83 9.83 0.0 0 0 597.8970 849.0779
  L 595.7171 849.0627
  A 9.83 9.83 0.0 0 0 585.8187 858.8238
  L 585.8018 861.2437
  A 9.83 9.83 0.0 0 0 595.5630 871.1421
  L 597.7429 871.1573
  A 9.83 9.83 0.0 0 0 607.6413 861.3962
  L 607.6582 858.9763"
/>
<path stroke="#808080" vector-effect="non-scaling-stroke" d="
  M 629.89 862.00
  L 641.66 862.00
  A 1.00 0.99 0.6 0 0 642.66 861.03
  Q 642.93 850.14 634.42 849.24
  C 624.62 848.20 620.82 856.14 623.00 864.73
  C 625.02 872.71 636.03 872.21 641.58 868.60
  A 1.00 1.00 0.0 0 0 641.90 867.26
  L 640.65 865.13
  A 1.00 1.00 0.0 0 0 639.20 864.82
  Q 635.96 867.18 632.59 866.68
  Q 629.40 866.22 628.90 863.16
  A 1.00 1.00 0.0 0 1 629.89 862.00"
/>
<path stroke="#808080" vector-effect="non-scaling-stroke" d="
  M 652.95 866.94
  Q 650.30 866.29 647.92 864.93
  A 1.01 1.00 31.0 0 0 646.58 865.26
  L 645.32 867.22
  A 1.00 0.99 32.6 0 0 645.63 868.60
  Q 651.98 872.64 658.89 870.50
  C 665.13 868.56 666.71 861.16 659.80 858.53
  C 657.64 857.71 654.88 857.61 652.95 856.61
  C 649.88 855.03 653.16 853.09 655.08 853.34
  Q 657.70 853.69 659.99 855.20
  A 1.00 0.99 -55.6 0 0 661.35 854.94
  L 662.92 852.73
  A 1.00 0.99 -57.7 0 0 662.60 851.28
  C 656.20 847.70 641.42 847.74 646.89 859.90
  A 1.03 1.01 -89.4 0 0 647.36 860.39
  Q 651.42 862.38 655.89 862.67
  A 1.03 0.97 64.9 0 1 656.45 862.89
  C 661.09 866.63 655.17 867.48 652.95 866.94"
/>
<path stroke="#808080" vector-effect="non-scaling-stroke" d="
  M 696.76 869.36
  L 696.75 869.74
  A 1.00 1.00 0.0 0 0 697.75 870.75
  L 702.10 870.75
  A 1.00 0.99 87.6 0 0 703.09 869.67
  Q 702.62 864.04 702.77 856.26
  C 702.84 852.69 700.90 850.03 697.24 849.35
  Q 690.48 848.10 684.62 852.06
  A 1.00 1.00 0.0 0 0 684.40 853.51
  L 686.21 855.78
  A 1.00 1.00 0.0 0 0 687.59 855.96
  Q 690.72 853.61 694.18 853.83
  Q 695.93 853.94 696.29 855.53
  A 1.00 1.00 0.0 0 1 695.42 856.75
  Q 689.73 857.36 686.31 859.52
  C 677.50 865.08 687.00 876.26 695.43 868.75
  Q 696.79 867.54 696.76 869.36"
/>
<path stroke="#808080" vector-effect="non-scaling-stroke" d="
  M 386.24 869.70
  L 386.25 869.99
  A 0.80 0.80 0.0 0 0 387.05 870.75
  L 391.61 870.75
  A 1.00 1.00 0.0 0 0 392.61 869.67
  Q 392.16 864.24 392.20 858.81
  C 392.23 854.44 391.76 850.21 387.09 849.41
  Q 380.02 848.20 374.13 852.00
  A 1.00 1.00 0.0 0 0 373.87 853.43
  L 375.58 855.74
  A 1.00 0.99 -35.6 0 0 376.95 855.96
  Q 379.47 854.21 382.55 853.84
  Q 385.30 853.51 385.73 855.61
  A 1.00 1.00 0.0 0 1 384.79 856.81
  Q 377.56 857.14 373.61 861.34
  Q 372.12 862.92 372.37 865.62
  C 372.90 871.45 379.95 872.77 384.06 869.37
  Q 384.37 869.12 384.71 868.91
  A 1.00 1.00 0.0 0 1 386.24 869.70"
/>
<path stroke="#808080" vector-effect="non-scaling-stroke" d="
  M 334.25 850.02
  A 0.52 0.52 0.0 0 0 333.73 849.50
  L 328.27 849.50
  A 0.52 0.52 0.0 0 0 327.75 850.02
  L 327.75 870.24
  A 0.52 0.52 0.0 0 0 328.27 870.76
  L 333.73 870.76
  A 0.52 0.52 0.0 0 0 334.25 870.24
  L 334.25 850.02"
/>
<path stroke="#808080" vector-effect="non-scaling-stroke" d="
  M 392.78 876.56
  C 391.65 880.89 400.91 878.87 402.50 876.66
  C 405.06 873.11 403.73 855.60 403.70 850.50
  A 1.00 1.00 0.0 0 0 402.70 849.50
  L 398.31 849.50
  A 1.00 1.00 0.0 0 0 397.31 850.49
  C 397.27 853.79 397.96 872.12 396.63 873.69
  Q 395.67 874.83 393.96 874.44
  A 1.00 0.99 6.0 0 0 392.74 875.42
  Q 392.74 875.78 392.80 876.15
  Q 392.83 876.35 392.78 876.56"
/>
<path stroke="#808080" vector-effect="non-scaling-stroke" d="
  M 429.90 851.67
  L 437.21 870.63
  A 1.00 1.00 0.0 0 1 437.16 871.45
  Q 435.31 875.05 431.20 873.45
  A 1.00 1.00 0.0 0 0 429.88 874.09
  L 428.94 877.17
  A 1.00 0.99 -74.2 0 0 429.64 878.43
  Q 434.43 879.66 437.02 878.75
  Q 440.78 877.43 441.94 874.43
  Q 446.49 862.69 450.99 850.85
  A 1.00 1.00 0.0 0 0 450.05 849.50
  L 445.84 849.50
  A 1.00 0.99 8.8 0 0 444.89 850.19
  L 441.44 860.83
  Q 440.50 863.75 439.54 860.83
  L 436.06 850.19
  A 1.00 0.99 -8.8 0 0 435.11 849.50
  L 423.34 849.50
  A 1.00 1.00 0.0 0 0 422.39 850.18
  L 418.89 860.59
  Q 417.97 863.34 417.00 860.61
  L 413.31 850.17
  A 0.99 0.99 0.0 0 0 412.37 849.50
  L 407.98 849.50
  A 1.00 1.00 0.0 0 0 407.04 850.86
  Q 410.64 860.25 414.21 869.66
  C 415.03 871.83 413.55 873.82 411.21 873.78
  Q 409.81 873.75 408.41 873.46
  A 1.00 1.00 0.0 0 0 407.24 874.19
  L 406.45 877.22
  A 1.01 1.00 14.5 0 0 407.18 878.45
  Q 411.58 879.53 414.49 878.72
  Q 417.87 877.77 418.94 875.19
  Q 423.75 863.57 428.03 851.69
  Q 428.94 849.16 429.90 851.67"
/>
<path stroke="#808080" vector-effect="non-scaling-stroke" d="
  M 575.50 869.77
  L 575.50 870.10
  A 0.64 0.64 0.0 0 0 576.14 870.75
  L 581.00 870.75
  A 1.00 1.00 0.0 0 0 582.00 869.75
  L 582.00 850.50
  A 1.00 1.00 0.0 0 0 581.00 849.50
  L 576.49 849.50
  A 1.00 1.00 0.0 0 0 575.49 850.50
  L 575.52 863.96
  A 1.01 1.00 78.4 0 1 574.92 864.88
  C 570.75 866.69 568.53 866.97 568.53 861.98
  Q 568.52 856.26 568.43 850.48
  A 1.00 0.99 -0.3 0 0 567.43 849.50
  L 563.06 849.50
  A 1.00 1.00 0.0 0 0 562.06 850.48
  Q 561.93 857.60 562.02 864.77
  Q 562.11 871.94 569.46 871.18
  Q 571.27 870.99 574.27 869.08
  Q 575.51 868.30 575.50 869.77"
/>
<path stroke="#808080" vector-effect="non-scaling-stroke" d="
  M 317.53 479.32
  A 0.31 0.31 0.0 0 0 316.95 479.32
  L 311.25 495.34
  A 0.31 0.31 0.0 0 0 311.54 495.75
  L 322.91 495.75
  A 0.31 0.31 0.0 0 0 323.20 495.34
  L 317.53 479.32"
/>
<path stroke="#808080" vector-effect="non-scaling-stroke" d="
  M 566.52 486.78
  C 575.16 484.41 572.80 472.79 563.73 473.06
  Q 559.63 473.18 555.48 473.27
  A 1.00 1.00 0.0 0 0 554.50 474.27
  L 554.50 486.23
  A 1.00 1.00 0.0 0 0 555.45 487.23
  Q 563.38 487.64 566.52 486.78"
/>
<path stroke="#808080" vector-effect="non-scaling-stroke" d="
  M 474.59 589.42
  C 485.84 596.45 490.05 585.27 490.46 576.50
  C 490.89 567.39 489.12 550.52 474.67 557.81
  A 1.00 1.00 0.0 0 0 474.26 558.19
  C 469.21 566.74 468.62 580.95 474.30 589.14
  Q 474.42 589.31 474.59 589.42"
/>
<path stroke="#808080" vector-effect="non-scaling-stroke" d="
  M 521.16 799.83
  Q 526.17 801.07 530.73 798.82
  A 1.00 1.00 0.0 0 0 531.29 797.94
  L 531.41 791.56
  A 1.00 0.99 3.1 0 0 530.50 790.55
  Q 528.52 790.36 526.48 790.33
  Q 518.10 790.20 520.43 799.11
  A 1.02 1.00 0.1 0 0 521.16 799.83"
/>
<path stroke="#808080" vector-effect="non-scaling-stroke" d="
  M 584.74 799.81
  Q 589.69 801.07 594.19 798.85
  A 1.01 1.00 -13.4 0 0 594.75 797.95
  L 594.75 791.50
  A 1.00 1.00 0.0 0 0 593.81 790.50
  Q 588.07 790.14 586.75 790.78
  Q 581.77 793.18 584.05 799.20
  A 1.01 0.98 -2.6 0 0 584.74 799.81"
/>
<path stroke="#808080" vector-effect="non-scaling-stroke" d="
  M 466.7828 858.3736
  A 3.88 3.88 0.0 0 0 462.8691 854.5276
  L 462.2691 854.5328
  A 3.88 3.88 0.0 0 0 458.4231 858.4466
  L 458.4572 862.3464
  A 3.88 3.88 0.0 0 0 462.3709 866.1924
  L 462.9709 866.1872
  A 3.88 3.88 0.0 0 0 466.8169 862.2734
  L 466.7828 858.3736"
/>
<path stroke="#808080" vector-effect="non-scaling-stroke" d="
  M 489.56 854.19
  Q 485.07 852.46 483.82 856.72
  A 1.00 1.00 0.0 0 0 484.78 858.00
  L 490.35 858.00
  A 1.00 1.00 0.0 0 0 491.35 856.94
  Q 491.22 854.82 489.56 854.19"
/>
<path stroke="#808080" vector-effect="non-scaling-stroke" d="
  M 551.4939 858.2531
  A 3.68 3.68 0.0 0 0 547.8722 854.5158
  L 547.2322 854.5057
  A 3.68 3.68 0.0 0 0 543.4949 858.1274
  L 543.4261 862.5069
  A 3.68 3.68 0.0 0 0 547.0478 866.2442
  L 547.6878 866.2543
  A 3.68 3.68 0.0 0 0 551.4251 862.6326
  L 551.4939 858.2531"
/>
<path stroke="#808080" vector-effect="non-scaling-stroke" d="
  M 596.6971 866.7700
  A 6.55 4.46 90.2 0 0 601.1800 860.2356
  A 6.55 4.46 90.2 0 0 596.7429 853.6700
  A 6.55 4.46 90.2 0 0 592.2600 860.2044
  A 6.55 4.46 90.2 0 0 596.6971 866.7700"
/>
<path stroke="#808080" vector-effect="non-scaling-stroke" d="
  M 634.81 854.19
  Q 630.35 852.44 629.06 856.71
  A 1.00 1.00 0.0 0 0 630.02 858.00
  L 635.73 858.00
  A 1.00 1.00 0.0 0 0 636.72 856.88
  Q 636.47 854.84 634.81 854.19"
/>
<path stroke="#808080" vector-effect="non-scaling-stroke" d="
  M 690.44 865.81
  Q 696.65 867.69 696.51 861.71
  A 1.01 1.00 -3.7 0 0 695.40 860.74
  Q 692.68 861.02 690.54 862.32
  C 689.18 863.14 688.72 865.29 690.44 865.81"
/>
<path stroke="#808080" vector-effect="non-scaling-stroke" d="
  M 380.67 866.08
  Q 380.80 866.12 380.93 866.12
  Q 386.46 866.29 386.04 861.63
  A 1.00 0.99 85.1 0 0 384.97 860.72
  Q 382.38 860.92 380.12 862.22
  C 378.16 863.34 378.27 865.36 380.67 866.08"
/>
</g>
<path fill="#000000" d="
  M 0.00 0.00
  L 1000.00 0.00
  L 1000.00 1000.00
  L 0.00 1000.00
  L 0.00 0.00
  Z
  M 593.06 92.58
  Q 593.22 91.50 591.74 91.55
  C 577.82 91.98 560.48 91.52 550.00 91.52
  Q 411.84 91.48 273.68 91.51
  Q 272.77 91.51 270.33 91.72
  Q 268.86 91.84 267.43 91.76
  Q 265.29 91.63 266.83 93.13
  L 428.67 251.17
  A 1.00 1.00 0.0 0 0 430.07 251.17
  L 592.83 93.03
  A 0.80 0.75 74.0 0 0 593.06 92.58
  Z
  M 433.50 277.89
  C 433.06 278.31 432.43 278.58 431.98 279.12
  A 1.01 1.00 -25.5 0 0 431.75 279.76
  L 431.75 303.68
  Q 431.75 306.03 433.44 304.40
  L 652.09 93.26
  Q 653.88 91.54 651.40 91.54
  L 628.02 91.58
  A 1.05 1.00 22.5 0 0 627.32 91.85
  Q 530.36 184.83 433.50 277.89
  Z
  M 709.73 92.16
  A 0.34 0.34 0.0 0 0 709.49 91.58
  L 684.32 91.48
  A 0.34 0.34 0.0 0 0 684.08 91.58
  L 431.85 334.26
  A 0.34 0.34 0.0 0 0 431.75 334.50
  L 431.75 360.08
  A 0.34 0.34 0.0 0 0 432.33 360.32
  L 709.73 92.16
  Z
  M 564.31 265.02
  L 431.89 393.28
  Q 430.12 395.00 432.59 395.00
  L 565.00 395.00
  A 1.00 1.00 0.0 0 0 566.00 394.00
  L 566.00 265.74
  Q 566.00 263.38 564.31 265.02
  Z
  M 314.7416 451.1617
  A 0.43 0.43 0.0 0 0 314.3108 450.7325
  L 305.6708 450.7475
  A 0.43 0.43 0.0 0 0 305.2416 451.1783
  L 305.2584 460.8183
  A 0.43 0.43 0.0 0 0 305.6892 461.2475
  L 314.3292 461.2325
  A 0.43 0.43 0.0 0 0 314.7584 460.8017
  L 314.7416 451.1617
  Z
  M 329.4815 451.1519
  A 0.40 0.40 0.0 0 0 329.0808 450.7526
  L 320.5809 450.7674
  A 0.40 0.40 0.0 0 0 320.1816 451.1681
  L 320.1985 460.8481
  A 0.40 0.40 0.0 0 0 320.5992 461.2474
  L 329.0991 461.2326
  A 0.40 0.40 0.0 0 0 329.4984 460.8319
  L 329.4815 451.1519
  Z
  M 351.56 487.97
  C 357.00 492.40 366.74 493.12 373.28 496.68
  C 380.14 500.41 375.92 507.13 369.99 507.50
  Q 359.53 508.14 354.20 499.61
  A 1.00 0.99 -31.1 0 0 352.85 499.28
  L 346.03 503.29
  A 0.99 0.99 0.0 0 0 345.66 504.62
  C 351.97 516.33 367.67 519.34 379.27 514.27
  C 387.46 510.68 390.88 499.47 385.09 492.60
  C 382.26 489.24 376.67 486.62 372.43 485.60
  C 366.43 484.16 355.87 482.63 359.55 473.92
  A 1.02 0.98 -86.9 0 1 360.16 473.35
  Q 371.59 469.69 378.13 478.75
  A 1.00 1.00 0.0 0 0 379.56 478.95
  L 385.88 473.95
  A 1.00 1.00 0.0 0 0 386.05 472.56
  Q 377.82 461.89 363.66 462.90
  C 357.55 463.34 350.67 466.49 348.44 472.50
  C 346.49 477.78 347.04 484.28 351.56 487.97
  Z
  M 711.02 489.02
  Q 713.06 490.48 715.43 491.29
  C 720.03 492.85 727.29 494.29 732.07 497.33
  C 735.89 499.77 735.08 504.66 731.19 506.48
  C 724.61 509.54 715.60 506.07 712.16 499.57
  A 1.00 1.00 0.0 0 0 710.77 499.18
  L 703.82 503.29
  A 1.01 1.00 -29.9 0 0 703.45 504.64
  Q 707.48 511.81 714.18 514.55
  C 723.99 518.56 741.34 517.24 745.17 504.95
  C 748.74 493.51 738.38 487.45 729.16 485.44
  C 723.25 484.14 712.54 481.27 717.92 473.39
  A 1.02 0.99 -79.0 0 1 718.51 472.98
  Q 729.77 470.20 736.01 478.70
  A 1.01 1.00 -37.2 0 0 737.44 478.89
  L 743.61 474.01
  A 1.01 1.01 0.0 0 0 743.81 472.64
  C 736.49 462.38 720.18 459.23 710.42 466.92
  C 703.60 472.30 703.16 483.38 711.02 489.02
  Z
  M 325.75 504.00
  A 0.30 0.30 0.0 0 1 326.04 504.20
  L 329.77 515.30
  A 0.30 0.30 0.0 0 0 330.06 515.50
  L 340.98 515.50
  A 0.30 0.30 0.0 0 0 341.26 515.10
  L 323.06 463.70
  A 0.30 0.30 0.0 0 0 322.78 463.50
  L 312.37 463.50
  A 0.30 0.30 0.0 0 0 312.09 463.70
  L 293.94 515.10
  A 0.30 0.30 0.0 0 0 294.22 515.50
  L 304.16 515.50
  A 0.30 0.30 0.0 0 0 304.45 515.30
  L 308.19 504.20
  A 0.30 0.30 0.0 0 1 308.48 504.00
  L 325.75 504.00
  Z
  M 256.73 511.34
  Q 259.26 513.80 262.31 514.96
  C 272.98 519.02 288.18 515.90 288.24 501.75
  Q 288.33 483.25 288.22 464.74
  A 1.00 1.00 0.0 0 0 287.22 463.75
  L 277.70 463.75
  A 1.00 0.99 -0.6 0 0 276.70 464.76
  Q 276.91 480.87 276.83 496.98
  C 276.78 506.81 272.09 511.08 262.99 504.24
  A 1.00 0.99 39.3 0 0 261.64 504.37
  L 256.67 509.96
  A 1.00 1.00 0.0 0 0 256.73 511.34
  Z
  M 407.91 506.50
  A 0.41 0.41 0.0 0 1 407.50 506.09
  L 407.50 493.91
  A 0.41 0.41 0.0 0 1 407.91 493.50
  L 424.62 493.50
  A 0.41 0.41 0.0 0 0 425.03 493.09
  L 425.07 484.91
  A 0.41 0.41 0.0 0 0 424.66 484.50
  L 407.91 484.50
  A 0.41 0.41 0.0 0 1 407.50 484.09
  L 407.50 473.66
  A 0.41 0.41 0.0 0 1 407.91 473.25
  L 431.09 473.25
  A 0.41 0.41 0.0 0 0 431.50 472.84
  L 431.50 464.16
  A 0.41 0.41 0.0 0 0 431.09 463.75
  L 396.66 463.75
  A 0.41 0.41 0.0 0 0 396.25 464.16
  L 396.25 515.09
  A 0.41 0.41 0.0 0 0 396.66 515.50
  L 432.34 515.50
  A 0.41 0.41 0.0 0 0 432.75 515.09
  L 432.75 506.91
  A 0.41 0.41 0.0 0 0 432.34 506.50
  L 407.91 506.50
  Z
  M 451.00 485.32
  Q 451.00 482.08 452.83 484.75
  L 473.50 515.06
  A 1.01 1.00 72.8 0 0 474.33 515.50
  L 483.43 515.50
  A 1.00 1.00 0.0 0 0 484.43 514.50
  L 484.50 464.75
  A 1.00 1.00 0.0 0 0 483.50 463.75
  L 474.75 463.75
  A 1.00 1.00 0.0 0 0 473.75 464.75
  L 473.75 493.55
  Q 473.75 496.89 471.92 494.10
  L 452.26 464.20
  A 1.01 1.01 0.0 0 0 451.42 463.75
  L 441.50 463.75
  A 1.00 1.00 0.0 0 0 440.50 464.75
  L 440.50 514.50
  A 1.00 1.00 0.0 0 0 441.50 515.50
  L 450.00 515.50
  A 1.00 1.00 0.0 0 0 451.00 514.50
  L 451.00 485.32
  Z
  M 526.01 463.75
  A 0.33 0.33 0.0 0 0 525.72 463.91
  L 514.18 483.38
  A 0.33 0.33 0.0 0 1 513.61 483.38
  L 502.18 463.91
  A 0.33 0.33 0.0 0 0 501.89 463.75
  L 490.81 463.75
  A 0.33 0.33 0.0 0 0 490.53 464.25
  L 508.20 493.65
  A 0.33 0.33 0.0 0 1 508.25 493.82
  L 508.25 515.17
  A 0.33 0.33 0.0 0 0 508.58 515.50
  L 519.17 515.50
  A 0.33 0.33 0.0 0 0 519.50 515.17
  L 519.50 493.69
  A 0.33 0.33 0.0 0 1 519.55 493.52
  L 537.19 464.25
  A 0.33 0.33 0.0 0 0 536.91 463.75
  L 526.01 463.75
  Z
  M 561.38 496.77
  L 571.33 514.98
  A 1.01 1.00 75.3 0 0 572.21 515.50
  L 582.04 515.50
  A 1.00 1.00 0.0 0 0 582.92 514.02
  L 572.90 495.73
  A 1.00 0.99 63.5 0 1 573.36 494.34
  Q 575.57 493.33 577.57 491.98
  C 583.03 488.27 583.83 480.42 582.29 474.50
  C 578.79 461.04 557.90 463.50 544.35 463.80
  A 1.01 0.99 -85.5 0 0 543.38 464.64
  Q 543.18 465.88 543.30 467.12
  Q 543.56 470.00 543.56 470.39
  Q 543.26 491.74 543.22 514.50
  A 1.00 1.00 0.0 0 0 544.22 515.50
  L 553.50 515.50
  A 1.00 1.00 0.0 0 0 554.50 514.50
  L 554.50 497.25
  A 1.00 1.00 0.0 0 1 555.50 496.25
  L 560.50 496.25
  A 1.01 1.00 75.3 0 1 561.38 496.77
  Z
  M 604.75 464.02
  A 0.27 0.27 0.0 0 0 604.48 463.75
  L 593.52 463.75
  A 0.27 0.27 0.0 0 0 593.25 464.02
  L 593.25 515.24
  A 0.27 0.27 0.0 0 0 593.52 515.51
  L 604.48 515.51
  A 0.27 0.27 0.0 0 0 604.75 515.24
  L 604.75 464.02
  Z
  M 638.75 473.62
  A 0.37 0.37 0.0 0 1 639.12 473.25
  L 653.88 473.25
  A 0.37 0.37 0.0 0 0 654.25 472.88
  L 654.25 464.12
  A 0.37 0.37 0.0 0 0 653.88 463.75
  L 612.12 463.75
  A 0.37 0.37 0.0 0 0 611.75 464.12
  L 611.75 472.88
  A 0.37 0.37 0.0 0 0 612.12 473.25
  L 627.21 473.25
  A 0.37 0.37 0.0 0 1 627.58 473.62
  L 627.26 515.12
  A 0.37 0.37 0.0 0 0 627.63 515.49
  L 638.38 515.51
  A 0.37 0.37 0.0 0 0 638.75 515.14
  L 638.75 473.62
  Z
  M 691.99 463.75
  A 0.32 0.32 0.0 0 0 691.72 463.91
  L 680.23 483.54
  A 0.32 0.32 0.0 0 1 679.67 483.53
  L 668.30 463.91
  A 0.32 0.32 0.0 0 0 668.03 463.75
  L 656.91 463.75
  A 0.32 0.32 0.0 0 0 656.64 464.23
  L 674.20 493.62
  A 0.32 0.32 0.0 0 1 674.25 493.79
  L 674.25 515.18
  A 0.32 0.32 0.0 0 0 674.57 515.50
  L 685.18 515.50
  A 0.32 0.32 0.0 0 0 685.50 515.18
  L 685.50 493.84
  A 0.32 0.32 0.0 0 1 685.55 493.67
  L 703.23 464.23
  A 0.32 0.32 0.0 0 0 702.95 463.75
  L 691.99 463.75
  Z
  M 429.93 589.17
  Q 434.07 583.41 440.57 579.99
  C 443.33 578.53 447.58 575.15 449.43 573.02
  C 457.38 563.86 453.78 550.16 441.31 547.45
  Q 426.18 544.17 416.75 557.20
  A 1.00 1.00 0.0 0 0 416.98 558.60
  L 423.49 563.19
  A 0.99 0.99 0.0 0 0 424.91 562.91
  Q 427.33 559.03 431.33 557.37
  C 443.47 552.32 446.12 566.04 436.54 571.57
  Q 427.85 576.58 422.37 581.86
  Q 415.55 588.43 415.77 598.52
  A 1.00 1.00 0.0 0 0 416.77 599.50
  L 452.81 599.50
  A 1.00 1.00 0.0 0 0 453.81 598.49
  L 453.73 591.74
  A 1.00 1.00 0.0 0 0 452.73 590.75
  L 430.75 590.75
  Q 428.80 590.75 429.93 589.17
  Z
  M 468.69 597.06
  C 476.61 602.38 488.38 601.56 495.01 594.52
  C 504.66 584.27 504.27 562.19 494.56 552.35
  C 488.00 545.70 476.80 545.05 469.05 550.08
  C 455.38 558.94 455.78 588.39 468.69 597.06
  Z
  M 522.23 590.76
  Q 517.67 590.77 520.99 587.62
  Q 523.17 585.54 525.47 583.67
  C 529.52 580.36 534.89 577.66 538.50 574.26
  C 543.82 569.25 545.38 561.02 541.94 554.47
  C 537.55 546.09 525.11 545.40 517.07 548.60
  Q 511.16 550.96 507.02 557.26
  A 1.00 0.99 -55.8 0 0 507.27 558.62
  L 513.61 563.16
  A 1.01 1.01 0.0 0 0 514.98 562.96
  C 518.32 558.67 522.62 555.30 528.31 556.78
  C 533.28 558.07 533.83 563.64 531.31 567.36
  C 529.82 569.57 525.98 572.13 523.61 573.53
  Q 515.62 578.25 510.84 583.83
  Q 505.76 589.76 506.01 598.53
  A 1.00 1.00 0.0 0 0 507.01 599.50
  L 543.15 599.50
  A 1.00 1.00 0.0 0 0 544.15 598.49
  L 544.10 591.74
  A 1.01 1.00 89.7 0 0 543.10 590.74
  L 522.23 590.76
  Z
  M 579.14 571.11
  Q 584.38 568.69 585.76 563.39
  C 587.72 555.89 583.55 549.49 575.99 547.74
  Q 561.71 544.42 550.23 553.11
  A 1.00 0.99 50.9 0 0 550.09 554.56
  L 555.02 560.20
  A 1.00 1.00 0.0 0 0 556.42 560.30
  Q 563.53 554.24 572.72 557.13
  A 0.99 0.97 -8.3 0 1 573.23 557.50
  C 577.08 562.79 574.20 566.97 568.43 568.05
  Q 565.26 568.65 561.97 568.56
  A 1.00 0.99 0.3 0 0 560.94 569.57
  L 561.02 575.73
  A 1.00 0.99 -2.2 0 0 562.09 576.71
  Q 565.94 576.46 569.70 577.33
  C 580.44 579.84 576.54 593.28 565.26 591.35
  Q 559.29 590.34 555.05 586.11
  A 1.01 1.00 46.5 0 0 553.68 586.07
  L 548.12 591.00
  A 1.00 0.99 48.0 0 0 548.05 592.42
  Q 551.95 596.68 555.55 598.20
  C 564.01 601.78 577.94 601.70 584.42 594.35
  C 588.63 589.57 589.28 580.40 583.88 575.82
  Q 581.77 574.02 579.18 572.94
  Q 577.08 572.07 579.14 571.11
  Z
  M 523.6857 752.5196
  A 1.71 1.71 0.0 0 0 521.9787 750.8066
  L 514.4587 750.7934
  A 1.71 1.71 0.0 0 0 512.7457 752.5005
  L 512.7343 759.0204
  A 1.71 1.71 0.0 0 0 514.4413 760.7334
  L 521.9613 760.7466
  A 1.71 1.71 0.0 0 0 523.6743 759.0395
  L 523.6857 752.5196
  Z
  M 540.99 752.37
  A 1.56 1.56 0.0 0 0 539.43 750.81
  L 531.73 750.81
  A 1.56 1.56 0.0 0 0 530.17 752.37
  L 530.17 759.17
  A 1.56 1.56 0.0 0 0 531.73 760.73
  L 539.43 760.73
  A 1.56 1.56 0.0 0 0 540.99 759.17
  L 540.99 752.37
  Z
  M 587.2171 752.4617
  A 1.71 1.71 0.0 0 0 585.4952 750.7637
  L 577.9154 750.8166
  A 1.71 1.71 0.0 0 0 576.2174 752.5385
  L 576.2629 759.0583
  A 1.71 1.71 0.0 0 0 577.9848 760.7563
  L 585.5646 760.7034
  A 1.71 1.71 0.0 0 0 587.2626 758.9815
  L 587.2171 752.4617
  Z
  M 604.7376 752.5308
  A 1.79 1.79 0.0 0 0 602.9351 750.7534
  L 595.2753 750.8069
  A 1.79 1.79 0.0 0 0 593.4979 752.6093
  L 593.5424 758.9892
  A 1.79 1.79 0.0 0 0 595.3449 760.7666
  L 603.0047 760.7131
  A 1.79 1.79 0.0 0 0 604.7821 758.9107
  L 604.7376 752.5308
  Z
  M 438.5032 752.1132
  A 1.06 1.06 0.0 0 0 437.4469 751.0495
  L 426.2670 751.0105
  A 1.06 1.06 0.0 0 0 425.2033 752.0668
  L 425.1768 759.6668
  A 1.06 1.06 0.0 0 0 426.2331 760.7305
  L 437.4130 760.7695
  A 1.06 1.06 0.0 0 0 438.4767 759.7132
  L 438.5032 752.1132
  Z
  M 565.9919 752.5140
  A 1.46 1.46 0.0 0 0 564.5370 751.0489
  L 553.7170 751.0111
  A 1.46 1.46 0.0 0 0 552.2519 752.4660
  L 552.2281 759.2860
  A 1.46 1.46 0.0 0 0 553.6830 760.7511
  L 564.5030 760.7889
  A 1.46 1.46 0.0 0 0 565.9681 759.3340
  L 565.9919 752.5140
  Z
  M 365.29 785.97
  A 1.00 0.98 -74.1 0 1 365.75 786.81
  L 365.75 807.73
  A 1.00 1.00 0.0 0 0 366.75 808.73
  L 378.77 808.73
  A 1.00 1.00 0.0 0 0 379.77 807.73
  L 379.71 787.25
  A 1.01 1.00 -17.2 0 1 380.15 786.42
  Q 382.81 784.65 383.27 783.73
  Q 390.43 769.39 397.00 754.67
  A 1.01 1.00 12.1 0 0 396.08 753.26
  L 383.86 753.24
  A 1.01 1.01 0.0 0 0 382.93 753.86
  L 373.69 776.11
  Q 372.76 778.35 371.84 776.11
  L 362.71 753.86
  A 1.01 0.99 -10.8 0 0 361.78 753.24
  L 349.32 753.26
  A 1.00 1.00 0.0 0 0 348.42 754.69
  Q 354.89 768.33 361.31 781.97
  Q 362.30 784.07 365.29 785.97
  Z
  M 450.73 775.73
  Q 451.08 784.59 451.03 798.68
  C 450.98 810.71 463.59 810.28 471.71 808.55
  A 1.00 1.00 0.0 0 0 472.50 807.56
  L 472.46 801.41
  A 1.00 1.00 0.0 0 0 471.50 800.42
  L 465.36 800.17
  A 1.00 0.99 89.4 0 1 464.40 799.23
  C 463.96 791.42 464.24 783.88 464.16 776.06
  A 0.99 0.99 0.0 0 1 465.12 775.05
  L 471.42 774.84
  A 1.01 1.00 -0.9 0 0 472.39 773.85
  L 472.50 767.02
  A 1.00 1.00 0.0 0 0 471.50 766.01
  L 465.28 766.00
  A 1.00 1.00 0.0 0 1 464.28 765.02
  L 464.15 757.52
  A 1.00 0.99 84.6 0 0 462.99 756.55
  L 451.83 758.44
  A 0.99 0.98 -5.1 0 0 451.00 759.42
  L 451.00 765.00
  A 1.00 1.00 0.0 0 1 450.00 766.00
  L 444.01 765.99
  A 1.00 1.00 0.0 0 0 443.01 767.00
  L 443.04 772.69
  A 1.01 1.00 -85.1 0 0 443.86 773.67
  L 449.91 774.78
  A 1.02 1.01 -86.0 0 1 450.73 775.73
  Z
  M 482.22 775.72
  Q 482.61 785.20 482.57 794.69
  C 482.54 803.34 483.45 808.87 493.21 809.16
  Q 499.37 809.35 503.01 808.45
  A 1.01 1.00 82.8 0 0 503.77 807.46
  L 503.66 801.39
  A 1.00 1.00 0.0 0 0 502.70 800.41
  L 496.54 800.15
  A 0.99 0.99 0.0 0 1 495.59 799.16
  L 495.47 776.06
  A 0.99 0.99 0.0 0 1 496.42 775.06
  L 502.54 774.80
  A 1.01 1.00 89.1 0 0 503.50 773.80
  L 503.51 767.00
  A 1.00 1.00 0.0 0 0 502.51 766.00
  L 496.51 766.00
  A 1.00 1.00 0.0 0 1 495.51 765.01
  L 495.50 757.51
  A 1.00 1.00 0.0 0 0 494.33 756.52
  L 483.35 758.43
  A 1.00 1.00 0.0 0 0 482.52 759.39
  L 482.41 765.01
  A 1.00 0.99 -89.4 0 1 481.42 765.99
  L 475.24 766.02
  A 1.00 0.99 90.0 0 0 474.25 767.02
  L 474.25 772.70
  A 1.00 0.99 4.8 0 0 475.08 773.68
  L 481.40 774.77
  A 1.00 0.99 -86.1 0 1 482.22 775.72
  Z
  M 630.45 775.02
  L 636.78 774.71
  A 1.00 1.00 0.0 0 0 637.73 773.71
  L 637.75 767.01
  A 1.00 1.00 0.0 0 0 636.75 766.00
  L 630.51 766.00
  A 1.00 1.00 0.0 0 1 629.51 765.01
  L 629.46 757.51
  A 1.00 1.00 0.0 0 0 628.29 756.53
  L 617.38 758.40
  A 1.01 1.00 85.5 0 0 616.55 759.38
  L 616.48 765.01
  A 1.00 1.00 0.0 0 1 615.49 766.00
  L 609.25 766.01
  A 1.01 1.00 -0.3 0 0 608.25 767.01
  L 608.24 772.70
  A 1.01 1.00 4.7 0 0 609.08 773.69
  L 615.67 774.80
  A 1.01 1.00 4.7 0 1 616.51 775.79
  Q 616.41 787.30 616.62 798.81
  C 616.83 810.78 628.52 810.44 636.99 808.50
  A 1.00 1.00 0.0 0 0 637.77 807.51
  L 637.70 801.39
  A 0.99 0.99 0.0 0 0 636.74 800.41
  L 630.46 800.16
  A 1.00 1.00 0.0 0 1 629.50 799.16
  L 629.50 776.02
  A 1.00 0.99 88.8 0 1 630.45 775.02
  Z
  M 408.18 767.30
  L 408.06 766.78
  A 1.00 1.00 0.0 0 0 407.08 765.99
  L 396.50 766.02
  A 1.00 1.00 0.0 0 0 395.50 767.02
  L 395.50 807.71
  A 1.00 1.00 0.0 0 0 396.50 808.71
  L 407.50 808.69
  A 1.00 1.00 0.0 0 0 408.50 807.69
  L 408.50 778.78
  A 1.00 0.98 77.1 0 1 409.05 777.89
  Q 414.08 775.36 419.74 775.30
  A 1.00 1.00 0.0 0 0 420.73 774.29
  L 420.70 766.50
  A 0.99 0.99 0.0 0 0 419.76 765.51
  Q 414.30 765.19 409.66 767.94
  A 1.00 0.99 68.3 0 1 408.18 767.30
  Z
  M 532.07 807.68
  Q 532.22 808.06 532.52 808.33
  C 533.45 809.16 541.29 808.74 543.24 808.73
  A 0.99 0.99 0.0 0 0 544.23 807.74
  Q 544.29 795.44 544.22 782.34
  C 544.19 776.72 543.58 772.79 539.59 769.27
  C 533.06 763.53 518.41 765.27 510.52 767.14
  A 0.99 0.99 0.0 0 0 509.75 768.12
  L 509.81 774.72
  A 1.00 1.00 0.0 0 0 510.83 775.71
  Q 517.50 775.59 524.24 775.49
  C 529.02 775.42 532.27 777.20 531.19 782.45
  A 1.00 1.00 0.0 0 1 530.19 783.25
  Q 521.40 783.08 515.74 784.50
  C 507.37 786.60 505.59 795.25 508.09 802.26
  Q 510.26 808.32 518.01 809.15
  Q 524.71 809.88 530.73 807.15
  A 0.99 0.99 0.0 0 1 532.07 807.68
  Z
  M 593.52 783.39
  C 583.84 782.91 569.46 783.55 570.60 797.57
  Q 571.50 808.58 582.51 809.21
  Q 589.17 809.59 594.17 807.02
  A 0.99 0.99 0.0 0 1 595.53 807.49
  Q 596.05 808.62 597.74 808.70
  Q 602.29 808.93 606.80 808.54
  A 1.01 1.00 87.8 0 0 607.71 807.55
  Q 607.85 793.60 607.57 779.70
  C 607.20 761.66 585.81 765.21 574.40 766.83
  A 1.01 1.00 86.4 0 0 573.54 767.82
  L 573.50 774.93
  A 1.00 0.99 -1.6 0 0 574.56 775.93
  C 578.46 775.68 590.35 774.27 593.20 776.86
  Q 595.47 778.92 594.54 782.64
  A 1.00 0.98 8.0 0 1 593.52 783.39
  Z
  M 438.25 767.38
  A 1.37 1.37 0.0 0 0 436.88 766.01
  L 426.62 766.01
  A 1.37 1.37 0.0 0 0 425.25 767.38
  L 425.25 807.38
  A 1.37 1.37 0.0 0 0 426.62 808.75
  L 436.88 808.75
  A 1.37 1.37 0.0 0 0 438.25 807.38
  L 438.25 767.38
  Z
  M 545.80 823.28
  C 554.04 824.94 565.45 824.66 565.47 813.24
  Q 565.53 789.99 565.49 767.01
  A 1.01 1.00 0.3 0 0 564.49 766.01
  L 553.50 766.00
  A 1.00 0.99 -89.7 0 0 552.50 767.00
  L 552.50 813.48
  A 1.00 1.00 0.0 0 1 551.55 814.48
  L 545.95 814.78
  A 1.00 1.00 0.0 0 0 545.00 815.78
  L 545.00 822.30
  A 1.00 1.00 0.0 0 0 545.80 823.28
  Z
  M 298.74 851.12
  A 1.01 1.00 45.3 0 1 297.01 851.11
  L 291.41 841.50
  A 1.01 1.00 -15.0 0 0 290.54 841.00
  L 286.10 841.00
  Q 284.34 841.00 285.24 842.51
  L 294.36 857.83
  A 1.01 0.94 -62.5 0 1 294.50 858.34
  L 294.50 869.75
  A 1.00 1.00 0.0 0 0 295.50 870.75
  L 300.05 870.75
  A 1.01 1.00 89.7 0 0 301.05 869.73
  C 300.98 866.02 300.16 859.78 302.08 856.56
  Q 306.30 849.51 310.63 842.53
  Q 311.58 841.00 309.78 841.00
  L 305.32 841.00
  A 1.00 1.00 0.0 0 0 304.46 841.49
  L 298.74 851.12
  Z
  M 465.25 850.47
  Q 461.83 848.51 458.03 849.37
  C 449.89 851.21 449.98 866.94 456.19 870.33
  C 459.31 872.02 462.97 871.34 465.60 868.85
  Q 467.07 867.46 467.11 869.77
  A 1.00 1.00 0.0 0 0 468.11 870.75
  L 472.26 870.75
  A 1.00 1.00 0.0 0 0 473.26 869.74
  L 472.90 841.99
  A 1.00 1.00 0.0 0 0 471.90 841.00
  L 467.75 841.00
  A 1.00 1.00 0.0 0 0 466.75 842.00
  L 466.75 849.61
  A 1.00 1.00 0.0 0 1 465.25 850.47
  Z
  M 618.00 841.59
  A 0.59 0.59 0.0 0 0 617.41 841.00
  L 612.09 841.00
  A 0.59 0.59 0.0 0 0 611.50 841.59
  L 611.50 870.17
  A 0.59 0.59 0.0 0 0 612.09 870.76
  L 617.41 870.76
  A 0.59 0.59 0.0 0 0 618.00 870.17
  L 618.00 841.59
  Z
  M 334.2954 841.6728
  A 0.40 0.40 0.0 0 0 333.8982 841.2700
  L 328.1784 841.2301
  A 0.40 0.40 0.0 0 0 327.7756 841.6273
  L 327.7446 846.0672
  A 0.40 0.40 0.0 0 0 328.1418 846.4700
  L 333.8616 846.5099
  A 0.40 0.40 0.0 0 0 334.2644 846.1127
  L 334.2954 841.6728
  Z
  M 381.50 841.79
  A 0.48 0.48 0.0 0 0 381.02 841.31
  L 376.60 841.31
  A 0.48 0.48 0.0 0 0 376.12 841.79
  L 376.12 846.77
  A 0.48 0.48 0.0 0 0 376.60 847.25
  L 381.02 847.25
  A 0.48 0.48 0.0 0 0 381.50 846.77
  L 381.50 841.79
  Z
  M 390.0135 842.0289
  A 0.74 0.74 0.0 0 0 389.2813 841.2812
  L 385.2615 841.2391
  A 0.74 0.74 0.0 0 0 384.5138 841.9713
  L 384.4665 846.4911
  A 0.74 0.74 0.0 0 0 385.1987 847.2388
  L 389.2185 847.2809
  A 0.74 0.74 0.0 0 0 389.9662 846.5487
  L 390.0135 842.0289
  Z
  M 403.7389 841.7430
  A 0.52 0.52 0.0 0 0 403.2162 841.2257
  L 397.7563 841.2543
  A 0.52 0.52 0.0 0 0 397.2390 841.7770
  L 397.2611 845.9970
  A 0.52 0.52 0.0 0 0 397.7838 846.5143
  L 403.2437 846.4857
  A 0.52 0.52 0.0 0 0 403.7610 845.9630
  L 403.7389 841.7430
  Z
  M 341.25 855.25
  L 341.26 866.50
  Q 341.26 869.66 344.18 870.37
  Q 348.09 871.33 352.06 870.71
  A 1.00 1.00 0.0 0 0 352.90 869.64
  L 352.70 867.22
  A 1.00 1.00 0.0 0 0 351.71 866.30
  Q 347.90 866.26 347.76 864.16
  Q 347.46 859.74 347.52 855.24
  A 1.00 1.00 0.0 0 1 348.52 854.25
  L 352.25 854.25
  A 1.00 1.00 0.0 0 0 353.25 853.25
  L 353.25 850.50
  A 1.00 1.00 0.0 0 0 352.25 849.50
  L 348.51 849.50
  A 1.01 1.00 -0.0 0 1 347.50 848.50
  L 347.50 843.00
  A 1.00 1.00 0.0 0 0 346.50 842.00
  L 342.26 842.00
  A 1.00 0.99 -89.7 0 0 341.26 843.00
  L 341.27 848.50
  A 1.00 1.00 0.0 0 1 340.27 849.50
  L 338.50 849.50
  A 1.00 1.00 0.0 0 0 337.50 850.50
  L 337.50 853.25
  A 1.00 1.00 0.0 0 0 338.50 854.25
  L 340.25 854.25
  A 1.01 1.00 89.7 0 1 341.25 855.25
  Z
  M 358.16 855.25
  L 358.58 868.87
  A 1.00 0.98 9.2 0 0 359.24 869.77
  Q 364.07 871.53 369.07 870.68
  A 1.01 1.00 83.1 0 0 369.90 869.61
  L 369.70 867.17
  A 1.00 0.99 -2.7 0 0 368.68 866.25
  Q 365.11 866.34 364.99 864.42
  Q 364.70 859.85 364.77 855.24
  A 1.01 1.00 -89.4 0 1 365.77 854.25
  L 369.25 854.25
  A 1.00 1.00 0.0 0 0 370.25 853.25
  L 370.25 850.50
  A 1.00 1.00 0.0 0 0 369.25 849.50
  L 365.76 849.50
  A 1.01 1.00 -0.0 0 1 364.75 848.50
  L 364.75 843.00
  A 1.00 1.00 0.0 0 0 363.75 842.00
  L 359.27 842.00
  A 0.99 0.99 0.0 0 0 358.27 842.99
  L 358.24 848.50
  A 1.00 1.00 0.0 0 1 357.25 849.50
  L 355.78 849.51
  A 0.99 0.98 10.3 0 0 354.86 850.14
  Q 353.05 854.74 357.05 854.29
  A 1.00 0.99 -4.0 0 1 358.16 855.25
  Z
  M 668.70 855.23
  Q 668.79 860.37 668.81 865.49
  C 668.83 871.48 674.84 871.25 679.50 870.74
  A 1.00 0.99 -3.8 0 0 680.39 869.73
  L 680.35 867.23
  A 1.00 1.00 0.0 0 0 679.32 866.25
  L 677.48 866.29
  Q 675.28 866.34 675.27 863.99
  L 675.24 855.25
  A 1.00 1.00 0.0 0 1 676.24 854.25
  L 679.75 854.25
  A 1.00 1.00 0.0 0 0 680.75 853.25
  L 680.75 850.50
  A 1.00 1.00 0.0 0 0 679.75 849.50
  L 676.25 849.50
  A 1.00 1.00 0.0 0 1 675.25 848.50
  L 675.25 843.00
  A 1.00 1.00 0.0 0 0 674.25 842.00
  L 669.75 842.00
  A 1.00 1.00 0.0 0 0 668.75 843.00
  L 668.75 848.49
  A 1.00 1.00 0.0 0 1 667.79 849.49
  L 666.04 849.57
  A 0.99 0.99 0.0 0 0 665.09 850.63
  L 665.28 853.32
  A 0.99 0.99 0.0 0 0 666.27 854.25
  L 667.70 854.25
  A 1.00 0.99 -0.3 0 1 668.70 855.23
  Z
  M 317.25 850.48
  L 317.25 850.15
  A 0.64 0.64 0.0 0 0 316.61 849.50
  L 311.75 849.50
  A 1.00 1.00 0.0 0 0 310.75 850.50
  L 310.75 869.75
  A 1.00 1.00 0.0 0 0 311.75 870.75
  L 316.25 870.75
  A 1.00 1.00 0.0 0 0 317.25 869.75
  L 317.25 857.60
  A 1.00 0.98 -20.3 0 1 317.61 856.84
  Q 320.18 854.67 323.49 854.71
  A 1.00 0.99 -89.4 0 0 324.50 853.71
  L 324.50 850.08
  A 1.00 1.00 0.0 0 0 323.38 849.09
  Q 320.63 849.42 318.55 851.11
  Q 317.23 852.19 317.25 850.48
  Z
  M 484.69 862.00
  L 496.29 862.00
  A 1.01 1.00 -87.5 0 0 497.29 861.08
  Q 497.54 857.91 496.52 854.95
  C 494.63 849.43 488.13 847.77 483.26 849.89
  C 475.70 853.17 475.48 862.16 479.46 868.54
  Q 479.60 868.76 479.83 868.89
  Q 488.59 873.70 496.35 868.59
  A 1.00 1.00 0.0 0 0 496.64 867.21
  L 495.27 865.08
  A 1.01 1.00 56.9 0 0 493.88 864.78
  Q 491.18 866.55 489.27 866.73
  Q 484.54 867.19 483.71 863.20
  A 1.00 1.00 0.0 0 1 484.69 862.00
  Z
  M 507.75 850.61
  L 507.75 850.30
  A 0.80 0.79 0.4 0 0 506.95 849.50
  L 502.25 849.50
  A 1.00 1.00 0.0 0 0 501.25 850.50
  L 501.25 869.75
  A 1.00 1.00 0.0 0 0 502.25 870.75
  L 506.75 870.75
  A 1.00 1.00 0.0 0 0 507.75 869.75
  L 507.75 857.09
  A 1.00 0.97 67.1 0 1 508.01 856.42
  Q 510.39 853.77 514.20 854.68
  A 1.00 1.00 0.0 0 1 514.97 855.65
  L 514.96 869.75
  A 1.00 1.00 0.0 0 0 515.96 870.75
  L 520.22 870.75
  A 1.00 1.00 0.0 0 0 521.22 869.76
  Q 521.32 861.79 521.09 853.81
  Q 520.99 850.24 517.59 849.45
  Q 512.61 848.29 509.06 851.22
  Q 507.74 852.32 507.75 850.61
  Z
  M 543.50 850.44
  L 543.50 850.14
  A 0.64 0.64 0.0 0 0 542.86 849.50
  L 538.00 849.50
  A 1.00 1.00 0.0 0 0 537.00 850.50
  L 537.00 878.00
  A 1.00 1.00 0.0 0 0 538.00 879.00
  L 542.50 879.00
  A 1.00 1.00 0.0 0 0 543.50 878.00
  L 543.50 870.54
  Q 543.50 868.75 545.02 869.69
  Q 549.99 872.76 554.09 870.02
  C 559.51 866.39 559.98 853.72 554.17 850.26
  Q 549.36 847.40 544.80 851.07
  Q 543.50 852.12 543.50 850.44
  Z
  M 607.6582 858.9763
  A 9.83 9.83 0.0 0 0 597.8970 849.0779
  L 595.7171 849.0627
  A 9.83 9.83 0.0 0 0 585.8187 858.8238
  L 585.8018 861.2437
  A 9.83 9.83 0.0 0 0 595.5630 871.1421
  L 597.7429 871.1573
  A 9.83 9.83 0.0 0 0 607.6413 861.3962
  L 607.6582 858.9763
  Z
  M 629.89 862.00
  L 641.66 862.00
  A 1.00 0.99 0.6 0 0 642.66 861.03
  Q 642.93 850.14 634.42 849.24
  C 624.62 848.20 620.82 856.14 623.00 864.73
  C 625.02 872.71 636.03 872.21 641.58 868.60
  A 1.00 1.00 0.0 0 0 641.90 867.26
  L 640.65 865.13
  A 1.00 1.00 0.0 0 0 639.20 864.82
  Q 635.96 867.18 632.59 866.68
  Q 629.40 866.22 628.90 863.16
  A 1.00 1.00 0.0 0 1 629.89 862.00
  Z
  M 652.95 866.94
  Q 650.30 866.29 647.92 864.93
  A 1.01 1.00 31.0 0 0 646.58 865.26
  L 645.32 867.22
  A 1.00 0.99 32.6 0 0 645.63 868.60
  Q 651.98 872.64 658.89 870.50
  C 665.13 868.56 666.71 861.16 659.80 858.53
  C 657.64 857.71 654.88 857.61 652.95 856.61
  C 649.88 855.03 653.16 853.09 655.08 853.34
  Q 657.70 853.69 659.99 855.20
  A 1.00 0.99 -55.6 0 0 661.35 854.94
  L 662.92 852.73
  A 1.00 0.99 -57.7 0 0 662.60 851.28
  C 656.20 847.70 641.42 847.74 646.89 859.90
  A 1.03 1.01 -89.4 0 0 647.36 860.39
  Q 651.42 862.38 655.89 862.67
  A 1.03 0.97 64.9 0 1 656.45 862.89
  C 661.09 866.63 655.17 867.48 652.95 866.94
  Z
  M 696.76 869.36
  L 696.75 869.74
  A 1.00 1.00 0.0 0 0 697.75 870.75
  L 702.10 870.75
  A 1.00 0.99 87.6 0 0 703.09 869.67
  Q 702.62 864.04 702.77 856.26
  C 702.84 852.69 700.90 850.03 697.24 849.35
  Q 690.48 848.10 684.62 852.06
  A 1.00 1.00 0.0 0 0 684.40 853.51
  L 686.21 855.78
  A 1.00 1.00 0.0 0 0 687.59 855.96
  Q 690.72 853.61 694.18 853.83
  Q 695.93 853.94 696.29 855.53
  A 1.00 1.00 0.0 0 1 695.42 856.75
  Q 689.73 857.36 686.31 859.52
  C 677.50 865.08 687.00 876.26 695.43 868.75
  Q 696.79 867.54 696.76 869.36
  Z
  M 386.24 869.70
  L 386.25 869.99
  A 0.80 0.80 0.0 0 0 387.05 870.75
  L 391.61 870.75
  A 1.00 1.00 0.0 0 0 392.61 869.67
  Q 392.16 864.24 392.20 858.81
  C 392.23 854.44 391.76 850.21 387.09 849.41
  Q 380.02 848.20 374.13 852.00
  A 1.00 1.00 0.0 0 0 373.87 853.43
  L 375.58 855.74
  A 1.00 0.99 -35.6 0 0 376.95 855.96
  Q 379.47 854.21 382.55 853.84
  Q 385.30 853.51 385.73 855.61
  A 1.00 1.00 0.0 0 1 384.79 856.81
  Q 377.56 857.14 373.61 861.34
  Q 372.12 862.92 372.37 865.62
  C 372.90 871.45 379.95 872.77 384.06 869.37
  Q 384.37 869.12 384.71 868.91
  A 1.00 1.00 0.0 0 1 386.24 869.70
  Z
  M 334.25 850.02
  A 0.52 0.52 0.0 0 0 333.73 849.50
  L 328.27 849.50
  A 0.52 0.52 0.0 0 0 327.75 850.02
  L 327.75 870.24
  A 0.52 0.52 0.0 0 0 328.27 870.76
  L 333.73 870.76
  A 0.52 0.52 0.0 0 0 334.25 870.24
  L 334.25 850.02
  Z
  M 392.78 876.56
  C 391.65 880.89 400.91 878.87 402.50 876.66
  C 405.06 873.11 403.73 855.60 403.70 850.50
  A 1.00 1.00 0.0 0 0 402.70 849.50
  L 398.31 849.50
  A 1.00 1.00 0.0 0 0 397.31 850.49
  C 397.27 853.79 397.96 872.12 396.63 873.69
  Q 395.67 874.83 393.96 874.44
  A 1.00 0.99 6.0 0 0 392.74 875.42
  Q 392.74 875.78 392.80 876.15
  Q 392.83 876.35 392.78 876.56
  Z
  M 429.90 851.67
  L 437.21 870.63
  A 1.00 1.00 0.0 0 1 437.16 871.45
  Q 435.31 875.05 431.20 873.45
  A 1.00 1.00 0.0 0 0 429.88 874.09
  L 428.94 877.17
  A 1.00 0.99 -74.2 0 0 429.64 878.43
  Q 434.43 879.66 437.02 878.75
  Q 440.78 877.43 441.94 874.43
  Q 446.49 862.69 450.99 850.85
  A 1.00 1.00 0.0 0 0 450.05 849.50
  L 445.84 849.50
  A 1.00 0.99 8.8 0 0 444.89 850.19
  L 441.44 860.83
  Q 440.50 863.75 439.54 860.83
  L 436.06 850.19
  A 1.00 0.99 -8.8 0 0 435.11 849.50
  L 423.34 849.50
  A 1.00 1.00 0.0 0 0 422.39 850.18
  L 418.89 860.59
  Q 417.97 863.34 417.00 860.61
  L 413.31 850.17
  A 0.99 0.99 0.0 0 0 412.37 849.50
  L 407.98 849.50
  A 1.00 1.00 0.0 0 0 407.04 850.86
  Q 410.64 860.25 414.21 869.66
  C 415.03 871.83 413.55 873.82 411.21 873.78
  Q 409.81 873.75 408.41 873.46
  A 1.00 1.00 0.0 0 0 407.24 874.19
  L 406.45 877.22
  A 1.01 1.00 14.5 0 0 407.18 878.45
  Q 411.58 879.53 414.49 878.72
  Q 417.87 877.77 418.94 875.19
  Q 423.75 863.57 428.03 851.69
  Q 428.94 849.16 429.90 851.67
  Z
  M 575.50 869.77
  L 575.50 870.10
  A 0.64 0.64 0.0 0 0 576.14 870.75
  L 581.00 870.75
  A 1.00 1.00 0.0 0 0 582.00 869.75
  L 582.00 850.50
  A 1.00 1.00 0.0 0 0 581.00 849.50
  L 576.49 849.50
  A 1.00 1.00 0.0 0 0 575.49 850.50
  L 575.52 863.96
  A 1.01 1.00 78.4 0 1 574.92 864.88
  C 570.75 866.69 568.53 866.97 568.53 861.98
  Q 568.52 856.26 568.43 850.48
  A 1.00 0.99 -0.3 0 0 567.43 849.50
  L 563.06 849.50
  A 1.00 1.00 0.0 0 0 562.06 850.48
  Q 561.93 857.60 562.02 864.77
  Q 562.11 871.94 569.46 871.18
  Q 571.27 870.99 574.27 869.08
  Q 575.51 868.30 575.50 869.77
  Z"
/>
<path fill="#ffffff" d="
  M 593.06 92.58
  A 0.80 0.75 74.0 0 1 592.83 93.03
  L 430.07 251.17
  A 1.00 1.00 0.0 0 1 428.67 251.17
  L 266.83 93.13
  Q 265.29 91.63 267.43 91.76
  Q 268.86 91.84 270.33 91.72
  Q 272.77 91.51 273.68 91.51
  Q 411.84 91.48 550.00 91.52
  C 560.48 91.52 577.82 91.98 591.74 91.55
  Q 593.22 91.50 593.06 92.58
  Z"
/>
<path fill="#ffffff" d="
  M 433.50 277.89
  Q 530.36 184.83 627.32 91.85
  A 1.05 1.00 22.5 0 1 628.02 91.58
  L 651.40 91.54
  Q 653.88 91.54 652.09 93.26
  L 433.44 304.40
  Q 431.75 306.03 431.75 303.68
  L 431.75 279.76
  A 1.01 1.00 -25.5 0 1 431.98 279.12
  C 432.43 278.58 433.06 278.31 433.50 277.89
  Z"
/>
<path fill="#ffffff" d="
  M 709.73 92.16
  L 432.33 360.32
  A 0.34 0.34 0.0 0 1 431.75 360.08
  L 431.75 334.50
  A 0.34 0.34 0.0 0 1 431.85 334.26
  L 684.08 91.58
  A 0.34 0.34 0.0 0 1 684.32 91.48
  L 709.49 91.58
  A 0.34 0.34 0.0 0 1 709.73 92.16
  Z"
/>
<path fill="#ffffff" d="
  M 564.31 265.02
  Q 566.00 263.38 566.00 265.74
  L 566.00 394.00
  A 1.00 1.00 0.0 0 1 565.00 395.00
  L 432.59 395.00
  Q 430.12 395.00 431.89 393.28
  L 564.31 265.02
  Z"
/>
<rect fill="#ffffff" x="-4.75" y="-5.25" transform="translate(310.00,455.99) rotate(-0.1)" width="9.50" height="10.50" rx="0.43"/>
<rect fill="#ffffff" x="-4.65" y="-5.24" transform="translate(324.84,456.00) rotate(-0.1)" width="9.30" height="10.48" rx="0.40"/>
<path fill="#ffffff" d="
  M 351.56 487.97
  C 347.04 484.28 346.49 477.78 348.44 472.50
  C 350.67 466.49 357.55 463.34 363.66 462.90
  Q 377.82 461.89 386.05 472.56
  A 1.00 1.00 0.0 0 1 385.88 473.95
  L 379.56 478.95
  A 1.00 1.00 0.0 0 1 378.13 478.75
  Q 371.59 469.69 360.16 473.35
  A 1.02 0.98 -86.9 0 0 359.55 473.92
  C 355.87 482.63 366.43 484.16 372.43 485.60
  C 376.67 486.62 382.26 489.24 385.09 492.60
  C 390.88 499.47 387.46 510.68 379.27 514.27
  C 367.67 519.34 351.97 516.33 345.66 504.62
  A 0.99 0.99 0.0 0 1 346.03 503.29
  L 352.85 499.28
  A 1.00 0.99 -31.1 0 1 354.20 499.61
  Q 359.53 508.14 369.99 507.50
  C 375.92 507.13 380.14 500.41 373.28 496.68
  C 366.74 493.12 357.00 492.40 351.56 487.97
  Z"
/>
<path fill="#ffffff" d="
  M 711.02 489.02
  C 703.16 483.38 703.60 472.30 710.42 466.92
  C 720.18 459.23 736.49 462.38 743.81 472.64
  A 1.01 1.01 0.0 0 1 743.61 474.01
  L 737.44 478.89
  A 1.01 1.00 -37.2 0 1 736.01 478.70
  Q 729.77 470.20 718.51 472.98
  A 1.02 0.99 -79.0 0 0 717.92 473.39
  C 712.54 481.27 723.25 484.14 729.16 485.44
  C 738.38 487.45 748.74 493.51 745.17 504.95
  C 741.34 517.24 723.99 518.56 714.18 514.55
  Q 707.48 511.81 703.45 504.64
  A 1.01 1.00 -29.9 0 1 703.82 503.29
  L 710.77 499.18
  A 1.00 1.00 0.0 0 1 712.16 499.57
  C 715.60 506.07 724.61 509.54 731.19 506.48
  C 735.08 504.66 735.89 499.77 732.07 497.33
  C 727.29 494.29 720.03 492.85 715.43 491.29
  Q 713.06 490.48 711.02 489.02
  Z"
/>
<path fill="#ffffff" d="
  M 325.75 504.00
  L 308.48 504.00
  A 0.30 0.30 0.0 0 0 308.19 504.20
  L 304.45 515.30
  A 0.30 0.30 0.0 0 1 304.16 515.50
  L 294.22 515.50
  A 0.30 0.30 0.0 0 1 293.94 515.10
  L 312.09 463.70
  A 0.30 0.30 0.0 0 1 312.37 463.50
  L 322.78 463.50
  A 0.30 0.30 0.0 0 1 323.06 463.70
  L 341.26 515.10
  A 0.30 0.30 0.0 0 1 340.98 515.50
  L 330.06 515.50
  A 0.30 0.30 0.0 0 1 329.77 515.30
  L 326.04 504.20
  A 0.30 0.30 0.0 0 0 325.75 504.00
  Z
  M 317.53 479.32
  A 0.31 0.31 0.0 0 0 316.95 479.32
  L 311.25 495.34
  A 0.31 0.31 0.0 0 0 311.54 495.75
  L 322.91 495.75
  A 0.31 0.31 0.0 0 0 323.20 495.34
  L 317.53 479.32
  Z"
/>
<path fill="#ffffff" d="
  M 256.73 511.34
  A 1.00 1.00 0.0 0 1 256.67 509.96
  L 261.64 504.37
  A 1.00 0.99 39.3 0 1 262.99 504.24
  C 272.09 511.08 276.78 506.81 276.83 496.98
  Q 276.91 480.87 276.70 464.76
  A 1.00 0.99 -0.6 0 1 277.70 463.75
  L 287.22 463.75
  A 1.00 1.00 0.0 0 1 288.22 464.74
  Q 288.33 483.25 288.24 501.75
  C 288.18 515.90 272.98 519.02 262.31 514.96
  Q 259.26 513.80 256.73 511.34
  Z"
/>
<path fill="#ffffff" d="
  M 407.91 506.50
  L 432.34 506.50
  A 0.41 0.41 0.0 0 1 432.75 506.91
  L 432.75 515.09
  A 0.41 0.41 0.0 0 1 432.34 515.50
  L 396.66 515.50
  A 0.41 0.41 0.0 0 1 396.25 515.09
  L 396.25 464.16
  A 0.41 0.41 0.0 0 1 396.66 463.75
  L 431.09 463.75
  A 0.41 0.41 0.0 0 1 431.50 464.16
  L 431.50 472.84
  A 0.41 0.41 0.0 0 1 431.09 473.25
  L 407.91 473.25
  A 0.41 0.41 0.0 0 0 407.50 473.66
  L 407.50 484.09
  A 0.41 0.41 0.0 0 0 407.91 484.50
  L 424.66 484.50
  A 0.41 0.41 0.0 0 1 425.07 484.91
  L 425.03 493.09
  A 0.41 0.41 0.0 0 1 424.62 493.50
  L 407.91 493.50
  A 0.41 0.41 0.0 0 0 407.50 493.91
  L 407.50 506.09
  A 0.41 0.41 0.0 0 0 407.91 506.50
  Z"
/>
<path fill="#ffffff" d="
  M 451.00 485.32
  L 451.00 514.50
  A 1.00 1.00 0.0 0 1 450.00 515.50
  L 441.50 515.50
  A 1.00 1.00 0.0 0 1 440.50 514.50
  L 440.50 464.75
  A 1.00 1.00 0.0 0 1 441.50 463.75
  L 451.42 463.75
  A 1.01 1.01 0.0 0 1 452.26 464.20
  L 471.92 494.10
  Q 473.75 496.89 473.75 493.55
  L 473.75 464.75
  A 1.00 1.00 0.0 0 1 474.75 463.75
  L 483.50 463.75
  A 1.00 1.00 0.0 0 1 484.50 464.75
  L 484.43 514.50
  A 1.00 1.00 0.0 0 1 483.43 515.50
  L 474.33 515.50
  A 1.01 1.00 72.8 0 1 473.50 515.06
  L 452.83 484.75
  Q 451.00 482.08 451.00 485.32
  Z"
/>
<path fill="#ffffff" d="
  M 526.01 463.75
  L 536.91 463.75
  A 0.33 0.33 0.0 0 1 537.19 464.25
  L 519.55 493.52
  A 0.33 0.33 0.0 0 0 519.50 493.69
  L 519.50 515.17
  A 0.33 0.33 0.0 0 1 519.17 515.50
  L 508.58 515.50
  A 0.33 0.33 0.0 0 1 508.25 515.17
  L 508.25 493.82
  A 0.33 0.33 0.0 0 0 508.20 493.65
  L 490.53 464.25
  A 0.33 0.33 0.0 0 1 490.81 463.75
  L 501.89 463.75
  A 0.33 0.33 0.0 0 1 502.18 463.91
  L 513.61 483.38
  A 0.33 0.33 0.0 0 0 514.18 483.38
  L 525.72 463.91
  A 0.33 0.33 0.0 0 1 526.01 463.75
  Z"
/>
<path fill="#ffffff" d="
  M 560.50 496.25
  L 555.50 496.25
  A 1.00 1.00 0.0 0 0 554.50 497.25
  L 554.50 514.50
  A 1.00 1.00 0.0 0 1 553.50 515.50
  L 544.22 515.50
  A 1.00 1.00 0.0 0 1 543.22 514.50
  Q 543.26 491.74 543.56 470.39
  Q 543.56 470.00 543.30 467.12
  Q 543.18 465.88 543.38 464.64
  A 1.01 0.99 -85.5 0 1 544.35 463.80
  C 557.90 463.50 578.79 461.04 582.29 474.50
  C 583.83 480.42 583.03 488.27 577.57 491.98
  Q 575.57 493.33 573.36 494.34
  A 1.00 0.99 63.5 0 0 572.90 495.73
  L 582.92 514.02
  A 1.00 1.00 0.0 0 1 582.04 515.50
  L 572.21 515.50
  A 1.01 1.00 75.3 0 1 571.33 514.98
  L 561.38 496.77
  A 1.01 1.00 75.3 0 0 560.50 496.25
  Z
  M 566.52 486.78
  C 575.16 484.41 572.80 472.79 563.73 473.06
  Q 559.63 473.18 555.48 473.27
  A 1.00 1.00 0.0 0 0 554.50 474.27
  L 554.50 486.23
  A 1.00 1.00 0.0 0 0 555.45 487.23
  Q 563.38 487.64 566.52 486.78
  Z"
/>
<rect fill="#ffffff" x="593.25" y="463.75" width="11.50" height="51.76" rx="0.27"/>
<path fill="#ffffff" d="
  M 638.75 473.62
  L 638.75 515.14
  A 0.37 0.37 0.0 0 1 638.38 515.51
  L 627.63 515.49
  A 0.37 0.37 0.0 0 1 627.26 515.12
  L 627.58 473.62
  A 0.37 0.37 0.0 0 0 627.21 473.25
  L 612.12 473.25
  A 0.37 0.37 0.0 0 1 611.75 472.88
  L 611.75 464.12
  A 0.37 0.37 0.0 0 1 612.12 463.75
  L 653.88 463.75
  A 0.37 0.37 0.0 0 1 654.25 464.12
  L 654.25 472.88
  A 0.37 0.37 0.0 0 1 653.88 473.25
  L 639.12 473.25
  A 0.37 0.37 0.0 0 0 638.75 473.62
  Z"
/>
<path fill="#ffffff" d="
  M 691.99 463.75
  L 702.95 463.75
  A 0.32 0.32 0.0 0 1 703.23 464.23
  L 685.55 493.67
  A 0.32 0.32 0.0 0 0 685.50 493.84
  L 685.50 515.18
  A 0.32 0.32 0.0 0 1 685.18 515.50
  L 674.57 515.50
  A 0.32 0.32 0.0 0 1 674.25 515.18
  L 674.25 493.79
  A 0.32 0.32 0.0 0 0 674.20 493.62
  L 656.64 464.23
  A 0.32 0.32 0.0 0 1 656.91 463.75
  L 668.03 463.75
  A 0.32 0.32 0.0 0 1 668.30 463.91
  L 679.67 483.53
  A 0.32 0.32 0.0 0 0 680.23 483.54
  L 691.72 463.91
  A 0.32 0.32 0.0 0 1 691.99 463.75
  Z"
/>
<path fill="#000000" d="
  M 563.73 473.06
  C 572.80 472.79 575.16 484.41 566.52 486.78
  Q 563.38 487.64 555.45 487.23
  A 1.00 1.00 0.0 0 1 554.50 486.23
  L 554.50 474.27
  A 1.00 1.00 0.0 0 1 555.48 473.27
  Q 559.63 473.18 563.73 473.06
  Z"
/>
<path fill="#000000" d="
  M 317.53 479.32
  L 323.20 495.34
  A 0.31 0.31 0.0 0 1 322.91 495.75
  L 311.54 495.75
  A 0.31 0.31 0.0 0 1 311.25 495.34
  L 316.95 479.32
  A 0.31 0.31 0.0 0 1 317.53 479.32
  Z"
/>
<path fill="#ffffff" d="
  M 429.93 589.17
  Q 428.80 590.75 430.75 590.75
  L 452.73 590.75
  A 1.00 1.00 0.0 0 1 453.73 591.74
  L 453.81 598.49
  A 1.00 1.00 0.0 0 1 452.81 599.50
  L 416.77 599.50
  A 1.00 1.00 0.0 0 1 415.77 598.52
  Q 415.55 588.43 422.37 581.86
  Q 427.85 576.58 436.54 571.57
  C 446.12 566.04 443.47 552.32 431.33 557.37
  Q 427.33 559.03 424.91 562.91
  A 0.99 0.99 0.0 0 1 423.49 563.19
  L 416.98 558.60
  A 1.00 1.00 0.0 0 1 416.75 557.20
  Q 426.18 544.17 441.31 547.45
  C 453.78 550.16 457.38 563.86 449.43 573.02
  C 447.58 575.15 443.33 578.53 440.57 579.99
  Q 434.07 583.41 429.93 589.17
  Z"
/>
<path fill="#ffffff" d="
  M 468.69 597.06
  C 455.78 588.39 455.38 558.94 469.05 550.08
  C 476.80 545.05 488.00 545.70 494.56 552.35
  C 504.27 562.19 504.66 584.27 495.01 594.52
  C 488.38 601.56 476.61 602.38 468.69 597.06
  Z
  M 474.59 589.42
  C 485.84 596.45 490.05 585.27 490.46 576.50
  C 490.89 567.39 489.12 550.52 474.67 557.81
  A 1.00 1.00 0.0 0 0 474.26 558.19
  C 469.21 566.74 468.62 580.95 474.30 589.14
  Q 474.42 589.31 474.59 589.42
  Z"
/>
<path fill="#ffffff" d="
  M 522.23 590.76
  L 543.10 590.74
  A 1.01 1.00 89.7 0 1 544.10 591.74
  L 544.15 598.49
  A 1.00 1.00 0.0 0 1 543.15 599.50
  L 507.01 599.50
  A 1.00 1.00 0.0 0 1 506.01 598.53
  Q 505.76 589.76 510.84 583.83
  Q 515.62 578.25 523.61 573.53
  C 525.98 572.13 529.82 569.57 531.31 567.36
  C 533.83 563.64 533.28 558.07 528.31 556.78
  C 522.62 555.30 518.32 558.67 514.98 562.96
  A 1.01 1.01 0.0 0 1 513.61 563.16
  L 507.27 558.62
  A 1.00 0.99 -55.8 0 1 507.02 557.26
  Q 511.16 550.96 517.07 548.60
  C 525.11 545.40 537.55 546.09 541.94 554.47
  C 545.38 561.02 543.82 569.25 538.50 574.26
  C 534.89 577.66 529.52 580.36 525.47 583.67
  Q 523.17 585.54 520.99 587.62
  Q 517.67 590.77 522.23 590.76
  Z"
/>
<path fill="#ffffff" d="
  M 579.18 572.94
  Q 581.77 574.02 583.88 575.82
  C 589.28 580.40 588.63 589.57 584.42 594.35
  C 577.94 601.70 564.01 601.78 555.55 598.20
  Q 551.95 596.68 548.05 592.42
  A 1.00 0.99 48.0 0 1 548.12 591.00
  L 553.68 586.07
  A 1.01 1.00 46.5 0 1 555.05 586.11
  Q 559.29 590.34 565.26 591.35
  C 576.54 593.28 580.44 579.84 569.70 577.33
  Q 565.94 576.46 562.09 576.71
  A 1.00 0.99 -2.2 0 1 561.02 575.73
  L 560.94 569.57
  A 1.00 0.99 0.3 0 1 561.97 568.56
  Q 565.26 568.65 568.43 568.05
  C 574.20 566.97 577.08 562.79 573.23 557.50
  A 0.99 0.97 -8.3 0 0 572.72 557.13
  Q 563.53 554.24 556.42 560.30
  A 1.00 1.00 0.0 0 1 555.02 560.20
  L 550.09 554.56
  A 1.00 0.99 50.9 0 1 550.23 553.11
  Q 561.71 544.42 575.99 547.74
  C 583.55 549.49 587.72 555.89 585.76 563.39
  Q 584.38 568.69 579.14 571.11
  Q 577.08 572.07 579.18 572.94
  Z"
/>
<path fill="#000000" d="
  M 474.59 589.42
  Q 474.42 589.31 474.30 589.14
  C 468.62 580.95 469.21 566.74 474.26 558.19
  A 1.00 1.00 0.0 0 1 474.67 557.81
  C 489.12 550.52 490.89 567.39 490.46 576.50
  C 490.05 585.27 485.84 596.45 474.59 589.42
  Z"
/>
<rect fill="#ffffff" x="-5.47" y="-4.97" transform="translate(518.21,755.77) rotate(0.1)" width="10.94" height="9.94" rx="1.71"/>
<rect fill="#ffffff" x="530.17" y="750.81" width="10.82" height="9.92" rx="1.56"/>
<rect fill="#ffffff" x="-5.50" y="-4.97" transform="translate(581.74,755.76) rotate(-0.4)" width="11.00" height="9.94" rx="1.71"/>
<rect fill="#ffffff" x="-5.62" y="-4.98" transform="translate(599.14,755.76) rotate(-0.4)" width="11.24" height="9.96" rx="1.79"/>
<rect fill="#ffffff" x="-6.65" y="-4.86" transform="translate(431.84,755.89) rotate(0.2)" width="13.30" height="9.72" rx="1.06"/>
<rect fill="#ffffff" x="-6.87" y="-4.87" transform="translate(559.11,755.90) rotate(0.2)" width="13.74" height="9.74" rx="1.46"/>
<path fill="#ffffff" d="
  M 365.29 785.97
  Q 362.30 784.07 361.31 781.97
  Q 354.89 768.33 348.42 754.69
  A 1.00 1.00 0.0 0 1 349.32 753.26
  L 361.78 753.24
  A 1.01 0.99 -10.8 0 1 362.71 753.86
  L 371.84 776.11
  Q 372.76 778.35 373.69 776.11
  L 382.93 753.86
  A 1.01 1.01 0.0 0 1 383.86 753.24
  L 396.08 753.26
  A 1.01 1.00 12.1 0 1 397.00 754.67
  Q 390.43 769.39 383.27 783.73
  Q 382.81 784.65 380.15 786.42
  A 1.01 1.00 -17.2 0 0 379.71 787.25
  L 379.77 807.73
  A 1.00 1.00 0.0 0 1 378.77 808.73
  L 366.75 808.73
  A 1.00 1.00 0.0 0 1 365.75 807.73
  L 365.75 786.81
  A 1.00 0.98 -74.1 0 0 365.29 785.97
  Z"
/>
<path fill="#ffffff" d="
  M 449.91 774.78
  L 443.86 773.67
  A 1.01 1.00 -85.1 0 1 443.04 772.69
  L 443.01 767.00
  A 1.00 1.00 0.0 0 1 444.01 765.99
  L 450.00 766.00
  A 1.00 1.00 0.0 0 0 451.00 765.00
  L 451.00 759.42
  A 0.99 0.98 -5.1 0 1 451.83 758.44
  L 462.99 756.55
  A 1.00 0.99 84.6 0 1 464.15 757.52
  L 464.28 765.02
  A 1.00 1.00 0.0 0 0 465.28 766.00
  L 471.50 766.01
  A 1.00 1.00 0.0 0 1 472.50 767.02
  L 472.39 773.85
  A 1.01 1.00 -0.9 0 1 471.42 774.84
  L 465.12 775.05
  A 0.99 0.99 0.0 0 0 464.16 776.06
  C 464.24 783.88 463.96 791.42 464.40 799.23
  A 1.00 0.99 89.4 0 0 465.36 800.17
  L 471.50 800.42
  A 1.00 1.00 0.0 0 1 472.46 801.41
  L 472.50 807.56
  A 1.00 1.00 0.0 0 1 471.71 808.55
  C 463.59 810.28 450.98 810.71 451.03 798.68
  Q 451.08 784.59 450.73 775.73
  A 1.02 1.01 -86.0 0 0 449.91 774.78
  Z"
/>
<path fill="#ffffff" d="
  M 481.40 774.77
  L 475.08 773.68
  A 1.00 0.99 4.8 0 1 474.25 772.70
  L 474.25 767.02
  A 1.00 0.99 -90.0 0 1 475.24 766.02
  L 481.42 765.99
  A 1.00 0.99 -89.4 0 0 482.41 765.01
  L 482.52 759.39
  A 1.00 1.00 0.0 0 1 483.35 758.43
  L 494.33 756.52
  A 1.00 1.00 0.0 0 1 495.50 757.51
  L 495.51 765.01
  A 1.00 1.00 0.0 0 0 496.51 766.00
  L 502.51 766.00
  A 1.00 1.00 0.0 0 1 503.51 767.00
  L 503.50 773.80
  A 1.01 1.00 89.1 0 1 502.54 774.80
  L 496.42 775.06
  A 0.99 0.99 0.0 0 0 495.47 776.06
  L 495.59 799.16
  A 0.99 0.99 0.0 0 0 496.54 800.15
  L 502.70 800.41
  A 1.00 1.00 0.0 0 1 503.66 801.39
  L 503.77 807.46
  A 1.01 1.00 82.8 0 1 503.01 808.45
  Q 499.37 809.35 493.21 809.16
  C 483.45 808.87 482.54 803.34 482.57 794.69
  Q 482.61 785.20 482.22 775.72
  A 1.00 0.99 -86.1 0 0 481.40 774.77
  Z"
/>
<path fill="#ffffff" d="
  M 629.50 776.02
  L 629.50 799.16
  A 1.00 1.00 0.0 0 0 630.46 800.16
  L 636.74 800.41
  A 0.99 0.99 0.0 0 1 637.70 801.39
  L 637.77 807.51
  A 1.00 1.00 0.0 0 1 636.99 808.50
  C 628.52 810.44 616.83 810.78 616.62 798.81
  Q 616.41 787.30 616.51 775.79
  A 1.01 1.00 4.7 0 0 615.67 774.80
  L 609.08 773.69
  A 1.01 1.00 4.7 0 1 608.24 772.70
  L 608.25 767.01
  A 1.01 1.00 -0.3 0 1 609.25 766.01
  L 615.49 766.00
  A 1.00 1.00 0.0 0 0 616.48 765.01
  L 616.55 759.38
  A 1.01 1.00 85.5 0 1 617.38 758.40
  L 628.29 756.53
  A 1.00 1.00 0.0 0 1 629.46 757.51
  L 629.51 765.01
  A 1.00 1.00 0.0 0 0 630.51 766.00
  L 636.75 766.00
  A 1.00 1.00 0.0 0 1 637.75 767.01
  L 637.73 773.71
  A 1.00 1.00 0.0 0 1 636.78 774.71
  L 630.45 775.02
  A 1.00 0.99 88.8 0 0 629.50 776.02
  Z"
/>
<path fill="#ffffff" d="
  M 409.66 767.94
  Q 414.30 765.19 419.76 765.51
  A 0.99 0.99 0.0 0 1 420.70 766.50
  L 420.73 774.29
  A 1.00 1.00 0.0 0 1 419.74 775.30
  Q 414.08 775.36 409.05 777.89
  A 1.00 0.98 77.1 0 0 408.50 778.78
  L 408.50 807.69
  A 1.00 1.00 0.0 0 1 407.50 808.69
  L 396.50 808.71
  A 1.00 1.00 0.0 0 1 395.50 807.71
  L 395.50 767.02
  A 1.00 1.00 0.0 0 1 396.50 766.02
  L 407.08 765.99
  A 1.00 1.00 0.0 0 1 408.06 766.78
  L 408.18 767.30
  A 1.00 0.99 68.3 0 0 409.66 767.94
  Z"
/>
<path fill="#ffffff" d="
  M 530.73 807.15
  Q 524.71 809.88 518.01 809.15
  Q 510.26 808.32 508.09 802.26
  C 505.59 795.25 507.37 786.60 515.74 784.50
  Q 521.40 783.08 530.19 783.25
  A 1.00 1.00 0.0 0 0 531.19 782.45
  C 532.27 777.20 529.02 775.42 524.24 775.49
  Q 517.50 775.59 510.83 775.71
  A 1.00 1.00 0.0 0 1 509.81 774.72
  L 509.75 768.12
  A 0.99 0.99 0.0 0 1 510.52 767.14
  C 518.41 765.27 533.06 763.53 539.59 769.27
  C 543.58 772.79 544.19 776.72 544.22 782.34
  Q 544.29 795.44 544.23 807.74
  A 0.99 0.99 0.0 0 1 543.24 808.73
  C 541.29 808.74 533.45 809.16 532.52 808.33
  Q 532.22 808.06 532.07 807.68
  A 0.99 0.99 0.0 0 0 530.73 807.15
  Z
  M 521.16 799.83
  Q 526.17 801.07 530.73 798.82
  A 1.00 1.00 0.0 0 0 531.29 797.94
  L 531.41 791.56
  A 1.00 0.99 3.1 0 0 530.50 790.55
  Q 528.52 790.36 526.48 790.33
  Q 518.10 790.20 520.43 799.11
  A 1.02 1.00 0.1 0 0 521.16 799.83
  Z"
/>
<path fill="#ffffff" d="
  M 594.54 782.64
  Q 595.47 778.92 593.20 776.86
  C 590.35 774.27 578.46 775.68 574.56 775.93
  A 1.00 0.99 -1.6 0 1 573.50 774.93
  L 573.54 767.82
  A 1.01 1.00 86.4 0 1 574.40 766.83
  C 585.81 765.21 607.20 761.66 607.57 779.70
  Q 607.85 793.60 607.71 807.55
  A 1.01 1.00 87.8 0 1 606.80 808.54
  Q 602.29 808.93 597.74 808.70
  Q 596.05 808.62 595.53 807.49
  A 0.99 0.99 0.0 0 0 594.17 807.02
  Q 589.17 809.59 582.51 809.21
  Q 571.50 808.58 570.60 797.57
  C 569.46 783.55 583.84 782.91 593.52 783.39
  A 1.00 0.98 8.0 0 0 594.54 782.64
  Z
  M 584.74 799.81
  Q 589.69 801.07 594.19 798.85
  A 1.01 1.00 -13.4 0 0 594.75 797.95
  L 594.75 791.50
  A 1.00 1.00 0.0 0 0 593.81 790.50
  Q 588.07 790.14 586.75 790.78
  Q 581.77 793.18 584.05 799.20
  A 1.01 0.98 -2.6 0 0 584.74 799.81
  Z"
/>
<rect fill="#ffffff" x="425.25" y="766.01" width="13.00" height="42.74" rx="1.37"/>
<path fill="#ffffff" d="
  M 545.80 823.28
  A 1.00 1.00 0.0 0 1 545.00 822.30
  L 545.00 815.78
  A 1.00 1.00 0.0 0 1 545.95 814.78
  L 551.55 814.48
  A 1.00 1.00 0.0 0 0 552.50 813.48
  L 552.50 767.00
  A 1.00 0.99 -89.7 0 1 553.50 766.00
  L 564.49 766.01
  A 1.01 1.00 0.3 0 1 565.49 767.01
  Q 565.53 789.99 565.47 813.24
  C 565.45 824.66 554.04 824.94 545.80 823.28
  Z"
/>
<path fill="#000000" d="
  M 521.16 799.83
  A 1.02 1.00 0.1 0 1 520.43 799.11
  Q 518.10 790.20 526.48 790.33
  Q 528.52 790.36 530.50 790.55
  A 1.00 0.99 3.1 0 1 531.41 791.56
  L 531.29 797.94
  A 1.00 1.00 0.0 0 1 530.73 798.82
  Q 526.17 801.07 521.16 799.83
  Z"
/>
<path fill="#000000" d="
  M 584.74 799.81
  A 1.01 0.98 -2.6 0 1 584.05 799.20
  Q 581.77 793.18 586.75 790.78
  Q 588.07 790.14 593.81 790.50
  A 1.00 1.00 0.0 0 1 594.75 791.50
  L 594.75 797.95
  A 1.01 1.00 -13.4 0 1 594.19 798.85
  Q 589.69 801.07 584.74 799.81
  Z"
/>
<path fill="#ffffff" d="
  M 298.74 851.12
  L 304.46 841.49
  A 1.00 1.00 0.0 0 1 305.32 841.00
  L 309.78 841.00
  Q 311.58 841.00 310.63 842.53
  Q 306.30 849.51 302.08 856.56
  C 300.16 859.78 300.98 866.02 301.05 869.73
  A 1.01 1.00 89.7 0 1 300.05 870.75
  L 295.50 870.75
  A 1.00 1.00 0.0 0 1 294.50 869.75
  L 294.50 858.34
  A 1.01 0.94 -62.5 0 0 294.36 857.83
  L 285.24 842.51
  Q 284.34 841.00 286.10 841.00
  L 290.54 841.00
  A 1.01 1.00 -15.0 0 1 291.41 841.50
  L 297.01 851.11
  A 1.01 1.00 45.3 0 0 298.74 851.12
  Z"
/>
<path fill="#ffffff" d="
  M 466.75 849.61
  L 466.75 842.00
  A 1.00 1.00 0.0 0 1 467.75 841.00
  L 471.90 841.00
  A 1.00 1.00 0.0 0 1 472.90 841.99
  L 473.26 869.74
  A 1.00 1.00 0.0 0 1 472.26 870.75
  L 468.11 870.75
  A 1.00 1.00 0.0 0 1 467.11 869.77
  Q 467.07 867.46 465.60 868.85
  C 462.97 871.34 459.31 872.02 456.19 870.33
  C 449.98 866.94 449.89 851.21 458.03 849.37
  Q 461.83 848.51 465.25 850.47
  A 1.00 1.00 0.0 0 0 466.75 849.61
  Z
  M 466.7828 858.3736
  A 3.88 3.88 0.0 0 0 462.8691 854.5276
  L 462.2691 854.5328
  A 3.88 3.88 0.0 0 0 458.4231 858.4466
  L 458.4572 862.3464
  A 3.88 3.88 0.0 0 0 462.3709 866.1924
  L 462.9709 866.1872
  A 3.88 3.88 0.0 0 0 466.8169 862.2734
  L 466.7828 858.3736
  Z"
/>
<rect fill="#ffffff" x="611.50" y="841.00" width="6.50" height="29.76" rx="0.59"/>
<rect fill="#ffffff" x="-3.26" y="-2.62" transform="translate(331.02,843.87) rotate(0.4)" width="6.52" height="5.24" rx="0.40"/>
<rect fill="#ffffff" x="376.12" y="841.31" width="5.38" height="5.94" rx="0.48"/>
<rect fill="#ffffff" x="-2.75" y="-3.00" transform="translate(387.24,844.26) rotate(0.6)" width="5.50" height="6.00" rx="0.74"/>
<rect fill="#ffffff" x="-3.25" y="-2.63" transform="translate(400.50,843.87) rotate(-0.3)" width="6.50" height="5.26" rx="0.52"/>
<path fill="#ffffff" d="
  M 340.25 854.25
  L 338.50 854.25
  A 1.00 1.00 0.0 0 1 337.50 853.25
  L 337.50 850.50
  A 1.00 1.00 0.0 0 1 338.50 849.50
  L 340.27 849.50
  A 1.00 1.00 0.0 0 0 341.27 848.50
  L 341.26 843.00
  A 1.00 0.99 -89.7 0 1 342.26 842.00
  L 346.50 842.00
  A 1.00 1.00 0.0 0 1 347.50 843.00
  L 347.50 848.50
  A 1.01 1.00 0.0 0 0 348.51 849.50
  L 352.25 849.50
  A 1.00 1.00 0.0 0 1 353.25 850.50
  L 353.25 853.25
  A 1.00 1.00 0.0 0 1 352.25 854.25
  L 348.52 854.25
  A 1.00 1.00 0.0 0 0 347.52 855.24
  Q 347.46 859.74 347.76 864.16
  Q 347.90 866.26 351.71 866.30
  A 1.00 1.00 0.0 0 1 352.70 867.22
  L 352.90 869.64
  A 1.00 1.00 0.0 0 1 352.06 870.71
  Q 348.09 871.33 344.18 870.37
  Q 341.26 869.66 341.26 866.50
  L 341.25 855.25
  A 1.01 1.00 89.7 0 0 340.25 854.25
  Z"
/>
<path fill="#ffffff" d="
  M 357.05 854.29
  Q 353.05 854.74 354.86 850.14
  A 0.99 0.98 10.3 0 1 355.78 849.51
  L 357.25 849.50
  A 1.00 1.00 0.0 0 0 358.24 848.50
  L 358.27 842.99
  A 0.99 0.99 0.0 0 1 359.27 842.00
  L 363.75 842.00
  A 1.00 1.00 0.0 0 1 364.75 843.00
  L 364.75 848.50
  A 1.01 1.00 0.0 0 0 365.76 849.50
  L 369.25 849.50
  A 1.00 1.00 0.0 0 1 370.25 850.50
  L 370.25 853.25
  A 1.00 1.00 0.0 0 1 369.25 854.25
  L 365.77 854.25
  A 1.01 1.00 -89.4 0 0 364.77 855.24
  Q 364.70 859.85 364.99 864.42
  Q 365.11 866.34 368.68 866.25
  A 1.00 0.99 -2.7 0 1 369.70 867.17
  L 369.90 869.61
  A 1.01 1.00 83.1 0 1 369.07 870.68
  Q 364.07 871.53 359.24 869.77
  A 1.00 0.98 9.2 0 1 358.58 868.87
  L 358.16 855.25
  A 1.00 0.99 -4.0 0 0 357.05 854.29
  Z"
/>
<path fill="#ffffff" d="
  M 667.70 854.25
  L 666.27 854.25
  A 0.99 0.99 0.0 0 1 665.28 853.32
  L 665.09 850.63
  A 0.99 0.99 0.0 0 1 666.04 849.57
  L 667.79 849.49
  A 1.00 1.00 0.0 0 0 668.75 848.49
  L 668.75 843.00
  A 1.00 1.00 0.0 0 1 669.75 842.00
  L 674.25 842.00
  A 1.00 1.00 0.0 0 1 675.25 843.00
  L 675.25 848.50
  A 1.00 1.00 0.0 0 0 676.25 849.50
  L 679.75 849.50
  A 1.00 1.00 0.0 0 1 680.75 850.50
  L 680.75 853.25
  A 1.00 1.00 0.0 0 1 679.75 854.25
  L 676.24 854.25
  A 1.00 1.00 0.0 0 0 675.24 855.25
  L 675.27 863.99
  Q 675.28 866.34 677.48 866.29
  L 679.32 866.25
  A 1.00 1.00 0.0 0 1 680.35 867.23
  L 680.39 869.73
  A 1.00 0.99 -3.8 0 1 679.50 870.74
  C 674.84 871.25 668.83 871.48 668.81 865.49
  Q 668.79 860.37 668.70 855.23
  A 1.00 0.99 -0.3 0 0 667.70 854.25
  Z"
/>
<path fill="#ffffff" d="
  M 318.55 851.11
  Q 320.63 849.42 323.38 849.09
  A 1.00 1.00 0.0 0 1 324.50 850.08
  L 324.50 853.71
  A 1.00 0.99 -89.4 0 1 323.49 854.71
  Q 320.18 854.67 317.61 856.84
  A 1.00 0.98 -20.3 0 0 317.25 857.60
  L 317.25 869.75
  A 1.00 1.00 0.0 0 1 316.25 870.75
  L 311.75 870.75
  A 1.00 1.00 0.0 0 1 310.75 869.75
  L 310.75 850.50
  A 1.00 1.00 0.0 0 1 311.75 849.50
  L 316.61 849.50
  A 0.64 0.64 0.0 0 1 317.25 850.15
  L 317.25 850.48
  Q 317.23 852.19 318.55 851.11
  Z"
/>
<path fill="#ffffff" d="
  M 483.71 863.20
  Q 484.54 867.19 489.27 866.73
  Q 491.18 866.55 493.88 864.78
  A 1.01 1.00 56.9 0 1 495.27 865.08
  L 496.64 867.21
  A 1.00 1.00 0.0 0 1 496.35 868.59
  Q 488.59 873.70 479.83 868.89
  Q 479.60 868.76 479.46 868.54
  C 475.48 862.16 475.70 853.17 483.26 849.89
  C 488.13 847.77 494.63 849.43 496.52 854.95
  Q 497.54 857.91 497.29 861.08
  A 1.01 1.00 -87.5 0 1 496.29 862.00
  L 484.69 862.00
  A 1.00 1.00 0.0 0 0 483.71 863.20
  Z
  M 489.56 854.19
  Q 485.07 852.46 483.82 856.72
  A 1.00 1.00 0.0 0 0 484.78 858.00
  L 490.35 858.00
  A 1.00 1.00 0.0 0 0 491.35 856.94
  Q 491.22 854.82 489.56 854.19
  Z"
/>
<path fill="#ffffff" d="
  M 509.06 851.22
  Q 512.61 848.29 517.59 849.45
  Q 520.99 850.24 521.09 853.81
  Q 521.32 861.79 521.22 869.76
  A 1.00 1.00 0.0 0 1 520.22 870.75
  L 515.96 870.75
  A 1.00 1.00 0.0 0 1 514.96 869.75
  L 514.97 855.65
  A 1.00 1.00 0.0 0 0 514.20 854.68
  Q 510.39 853.77 508.01 856.42
  A 1.00 0.97 67.1 0 0 507.75 857.09
  L 507.75 869.75
  A 1.00 1.00 0.0 0 1 506.75 870.75
  L 502.25 870.75
  A 1.00 1.00 0.0 0 1 501.25 869.75
  L 501.25 850.50
  A 1.00 1.00 0.0 0 1 502.25 849.50
  L 506.95 849.50
  A 0.80 0.79 0.4 0 1 507.75 850.30
  L 507.75 850.61
  Q 507.74 852.32 509.06 851.22
  Z"
/>
<path fill="#ffffff" d="
  M 544.80 851.07
  Q 549.36 847.40 554.17 850.26
  C 559.98 853.72 559.51 866.39 554.09 870.02
  Q 549.99 872.76 545.02 869.69
  Q 543.50 868.75 543.50 870.54
  L 543.50 878.00
  A 1.00 1.00 0.0 0 1 542.50 879.00
  L 538.00 879.00
  A 1.00 1.00 0.0 0 1 537.00 878.00
  L 537.00 850.50
  A 1.00 1.00 0.0 0 1 538.00 849.50
  L 542.86 849.50
  A 0.64 0.64 0.0 0 1 543.50 850.14
  L 543.50 850.44
  Q 543.50 852.12 544.80 851.07
  Z
  M 551.4939 858.2531
  A 3.68 3.68 0.0 0 0 547.8722 854.5158
  L 547.2322 854.5057
  A 3.68 3.68 0.0 0 0 543.4949 858.1274
  L 543.4261 862.5069
  A 3.68 3.68 0.0 0 0 547.0478 866.2442
  L 547.6878 866.2543
  A 3.68 3.68 0.0 0 0 551.4251 862.6326
  L 551.4939 858.2531
  Z"
/>
<path fill="#ffffff" d="
  M 607.6413 861.3962
  A 9.83 9.83 0.0 0 1 597.7429 871.1573
  L 595.5630 871.1421
  A 9.83 9.83 0.0 0 1 585.8018 861.2437
  L 585.8187 858.8238
  A 9.83 9.83 0.0 0 1 595.7171 849.0627
  L 597.8970 849.0779
  A 9.83 9.83 0.0 0 1 607.6582 858.9763
  L 607.6413 861.3962
  Z
  M 596.6971 866.7700
  A 6.55 4.46 90.2 0 0 601.1800 860.2356
  A 6.55 4.46 90.2 0 0 596.7429 853.6700
  A 6.55 4.46 90.2 0 0 592.2600 860.2044
  A 6.55 4.46 90.2 0 0 596.6971 866.7700
  Z"
/>
<path fill="#ffffff" d="
  M 628.90 863.16
  Q 629.40 866.22 632.59 866.68
  Q 635.96 867.18 639.20 864.82
  A 1.00 1.00 0.0 0 1 640.65 865.13
  L 641.90 867.26
  A 1.00 1.00 0.0 0 1 641.58 868.60
  C 636.03 872.21 625.02 872.71 623.00 864.73
  C 620.82 856.14 624.62 848.20 634.42 849.24
  Q 642.93 850.14 642.66 861.03
  A 1.00 0.99 0.6 0 1 641.66 862.00
  L 629.89 862.00
  A 1.00 1.00 0.0 0 0 628.90 863.16
  Z
  M 634.81 854.19
  Q 630.35 852.44 629.06 856.71
  A 1.00 1.00 0.0 0 0 630.02 858.00
  L 635.73 858.00
  A 1.00 1.00 0.0 0 0 636.72 856.88
  Q 636.47 854.84 634.81 854.19
  Z"
/>
<path fill="#ffffff" d="
  M 652.95 866.94
  C 655.17 867.48 661.09 866.63 656.45 862.89
  A 1.03 0.97 64.9 0 0 655.89 862.67
  Q 651.42 862.38 647.36 860.39
  A 1.03 1.01 -89.4 0 1 646.89 859.90
  C 641.42 847.74 656.20 847.70 662.60 851.28
  A 1.00 0.99 -57.7 0 1 662.92 852.73
  L 661.35 854.94
  A 1.00 0.99 -55.6 0 1 659.99 855.20
  Q 657.70 853.69 655.08 853.34
  C 653.16 853.09 649.88 855.03 652.95 856.61
  C 654.88 857.61 657.64 857.71 659.80 858.53
  C 666.71 861.16 665.13 868.56 658.89 870.50
  Q 651.98 872.64 645.63 868.60
  A 1.00 0.99 32.6 0 1 645.32 867.22
  L 646.58 865.26
  A 1.01 1.00 31.0 0 1 647.92 864.93
  Q 650.30 866.29 652.95 866.94
  Z"
/>
<path fill="#ffffff" d="
  M 696.76 869.36
  Q 696.79 867.54 695.43 868.75
  C 687.00 876.26 677.50 865.08 686.31 859.52
  Q 689.73 857.36 695.42 856.75
  A 1.00 1.00 0.0 0 0 696.29 855.53
  Q 695.93 853.94 694.18 853.83
  Q 690.72 853.61 687.59 855.96
  A 1.00 1.00 0.0 0 1 686.21 855.78
  L 684.40 853.51
  A 1.00 1.00 0.0 0 1 684.62 852.06
  Q 690.48 848.10 697.24 849.35
  C 700.90 850.03 702.84 852.69 702.77 856.26
  Q 702.62 864.04 703.09 869.67
  A 1.00 0.99 87.6 0 1 702.10 870.75
  L 697.75 870.75
  A 1.00 1.00 0.0 0 1 696.75 869.74
  L 696.76 869.36
  Z
  M 690.44 865.81
  Q 696.65 867.69 696.51 861.71
  A 1.01 1.00 -3.7 0 0 695.40 860.74
  Q 692.68 861.02 690.54 862.32
  C 689.18 863.14 688.72 865.29 690.44 865.81
  Z"
/>
<path fill="#ffffff" d="
  M 384.71 868.91
  Q 384.37 869.12 384.06 869.37
  C 379.95 872.77 372.90 871.45 372.37 865.62
  Q 372.12 862.92 373.61 861.34
  Q 377.56 857.14 384.79 856.81
  A 1.00 1.00 0.0 0 0 385.73 855.61
  Q 385.30 853.51 382.55 853.84
  Q 379.47 854.21 376.95 855.96
  A 1.00 0.99 -35.6 0 1 375.58 855.74
  L 373.87 853.43
  A 1.00 1.00 0.0 0 1 374.13 852.00
  Q 380.02 848.20 387.09 849.41
  C 391.76 850.21 392.23 854.44 392.20 858.81
  Q 392.16 864.24 392.61 869.67
  A 1.00 1.00 0.0 0 1 391.61 870.75
  L 387.05 870.75
  A 0.80 0.80 0.0 0 1 386.25 869.99
  L 386.24 869.70
  A 1.00 1.00 0.0 0 0 384.71 868.91
  Z
  M 380.67 866.08
  Q 380.80 866.12 380.93 866.12
  Q 386.46 866.29 386.04 861.63
  A 1.00 0.99 85.1 0 0 384.97 860.72
  Q 382.38 860.92 380.12 862.22
  C 378.16 863.34 378.27 865.36 380.67 866.08
  Z"
/>
<rect fill="#ffffff" x="327.75" y="849.50" width="6.50" height="21.26" rx="0.52"/>
<path fill="#ffffff" d="
  M 402.50 876.66
  C 400.91 878.87 391.65 880.89 392.78 876.56
  Q 392.83 876.35 392.80 876.15
  Q 392.74 875.78 392.74 875.42
  A 1.00 0.99 6.0 0 1 393.96 874.44
  Q 395.67 874.83 396.63 873.69
  C 397.96 872.12 397.27 853.79 397.31 850.49
  A 1.00 1.00 0.0 0 1 398.31 849.50
  L 402.70 849.50
  A 1.00 1.00 0.0 0 1 403.70 850.50
  C 403.73 855.60 405.06 873.11 402.50 876.66
  Z"
/>
<path fill="#ffffff" d="
  M 429.90 851.67
  Q 428.94 849.16 428.03 851.69
  Q 423.75 863.57 418.94 875.19
  Q 417.87 877.77 414.49 878.72
  Q 411.58 879.53 407.18 878.45
  A 1.01 1.00 14.5 0 1 406.45 877.22
  L 407.24 874.19
  A 1.00 1.00 0.0 0 1 408.41 873.46
  Q 409.81 873.75 411.21 873.78
  C 413.55 873.82 415.03 871.83 414.21 869.66
  Q 410.64 860.25 407.04 850.86
  A 1.00 1.00 0.0 0 1 407.98 849.50
  L 412.37 849.50
  A 0.99 0.99 0.0 0 1 413.31 850.17
  L 417.00 860.61
  Q 417.97 863.34 418.89 860.59
  L 422.39 850.18
  A 1.00 1.00 0.0 0 1 423.34 849.50
  L 435.11 849.50
  A 1.00 0.99 -8.8 0 1 436.06 850.19
  L 439.54 860.83
  Q 440.50 863.75 441.44 860.83
  L 444.89 850.19
  A 1.00 0.99 8.8 0 1 445.84 849.50
  L 450.05 849.50
  A 1.00 1.00 0.0 0 1 450.99 850.85
  Q 446.49 862.69 441.94 874.43
  Q 440.78 877.43 437.02 878.75
  Q 434.43 879.66 429.64 878.43
  A 1.00 0.99 -74.2 0 1 428.94 877.17
  L 429.88 874.09
  A 1.00 1.00 0.0 0 1 431.20 873.45
  Q 435.31 875.05 437.16 871.45
  A 1.00 1.00 0.0 0 0 437.21 870.63
  L 429.90 851.67
  Z"
/>
<path fill="#ffffff" d="
  M 574.27 869.08
  Q 571.27 870.99 569.46 871.18
  Q 562.11 871.94 562.02 864.77
  Q 561.93 857.60 562.06 850.48
  A 1.00 1.00 0.0 0 1 563.06 849.50
  L 567.43 849.50
  A 1.00 0.99 -0.3 0 1 568.43 850.48
  Q 568.52 856.26 568.53 861.98
  C 568.53 866.97 570.75 866.69 574.92 864.88
  A 1.01 1.00 78.4 0 0 575.52 863.96
  L 575.49 850.50
  A 1.00 1.00 0.0 0 1 576.49 849.50
  L 581.00 849.50
  A 1.00 1.00 0.0 0 1 582.00 850.50
  L 582.00 869.75
  A 1.00 1.00 0.0 0 1 581.00 870.75
  L 576.14 870.75
  A 0.64 0.64 0.0 0 1 575.50 870.10
  L 575.50 869.77
  Q 575.51 868.30 574.27 869.08
  Z"
/>
<path fill="#000000" d="
  M 489.56 854.19
  Q 491.22 854.82 491.35 856.94
  A 1.00 1.00 0.0 0 1 490.35 858.00
  L 484.78 858.00
  A 1.00 1.00 0.0 0 1 483.82 856.72
  Q 485.07 852.46 489.56 854.19
  Z"
/>
<ellipse fill="#000000" cx="0.00" cy="0.00" transform="translate(596.72,860.22) rotate(90.2)" rx="6.55" ry="4.46"/>
<path fill="#000000" d="
  M 634.81 854.19
  Q 636.47 854.84 636.72 856.88
  A 1.00 1.00 0.0 0 1 635.73 858.00
  L 630.02 858.00
  A 1.00 1.00 0.0 0 1 629.06 856.71
  Q 630.35 852.44 634.81 854.19
  Z"
/>
<rect fill="#000000" x="-4.18" y="-5.83" transform="translate(462.62,860.36) rotate(-0.5)" width="8.36" height="11.66" rx="3.88"/>
<rect fill="#000000" x="-4.00" y="-5.87" transform="translate(547.46,860.38) rotate(0.9)" width="8.00" height="11.74" rx="3.68"/>
<path fill="#000000" d="
  M 380.67 866.08
  C 378.27 865.36 378.16 863.34 380.12 862.22
  Q 382.38 860.92 384.97 860.72
  A 1.00 0.99 85.1 0 1 386.04 861.63
  Q 386.46 866.29 380.93 866.12
  Q 380.80 866.12 380.67 866.08
  Z"
/>
<path fill="#000000" d="
  M 690.44 865.81
  C 688.72 865.29 689.18 863.14 690.54 862.32
  Q 692.68 861.02 695.40 860.74
  A 1.01 1.00 -3.7 0 1 696.51 861.71
  Q 696.65 867.69 690.44 865.81
  Z"
/>
</svg>
