<?xml version="1.0" encoding="UTF-8" standalone="no"?>
<!DOCTYPE svg PUBLIC "-//W3C//DTD SVG 1.1//EN" "http://www.w3.org/Graphics/SVG/1.1/DTD/svg11.dtd">
<svg xmlns="http://www.w3.org/2000/svg" version="1.1" viewBox="0 0 842 396">
<g stroke-width="2.00" fill="none" stroke-linecap="butt">
<path stroke="#70cfa6" vector-effect="non-scaling-stroke" d="
  M 819.81 0.00
  C 819.27 1.00 71.62 0.25 2.42 0.25
  A 1.01 1.00 -64.5 0 0 1.78 0.48
  L 1.50 0.71"
/>
<path stroke="#33a877" vector-effect="non-scaling-stroke" d="
  M 1.50 0.71
  L 0.00 0.94"
/>
<path stroke="#4dc18e" vector-effect="non-scaling-stroke" d="
  M 842.00 1.31
  Q 840.65 0.75 840.25 0.75
  Q 420.88 0.78 1.50 0.71"
/>
<path stroke="#2da774" vector-effect="non-scaling-stroke" d="
  M 842.00 394.94
  L 0.00 394.89"
/>
<path stroke="#87cdaf" vector-effect="non-scaling-stroke" d="
  M 124.74 90.27
  A 0.27 0.27 0.0 0 0 124.47 90.00
  L 109.27 90.00
  A 0.27 0.27 0.0 0 0 109.00 90.27
  L 109.00 179.73
  A 0.27 0.27 0.0 0 0 109.27 180.00
  L 124.47 180.00
  A 0.27 0.27 0.0 0 0 124.74 179.73
  L 124.74 90.27"
/>
<path stroke="#87cdaf" vector-effect="non-scaling-stroke" d="
  M 310.25 116.50
  L 310.25 98.75
  A 0.78 0.68 87.4 0 0 309.50 97.96
  L 294.76 99.59
  A 0.67 0.58 87.2 0 0 294.25 100.25
  L 294.25 116.50
  A 0.50 0.50 0.0 0 1 293.75 117.00
  L 282.75 117.00
  A 0.50 0.50 0.0 0 0 282.25 117.50
  L 282.25 130.25
  A 0.50 0.50 0.0 0 0 282.75 130.75
  L 293.75 130.75
  A 0.52 0.51 -90.0 0 1 294.26 131.27
  Q 294.07 156.11 294.38 161.78
  C 295.42 181.09 315.30 184.24 329.97 178.49
  A 0.47 0.38 -20.0 0 0 330.27 177.99
  L 326.17 165.32
  A 0.62 0.61 -21.5 0 0 325.32 164.96
  C 318.49 168.08 310.13 167.30 310.04 157.74
  Q 309.93 144.54 310.03 131.29
  A 0.55 0.47 -89.4 0 1 310.50 130.75
  L 327.25 130.75
  A 0.50 0.50 0.0 0 0 327.75 130.25
  L 327.75 117.50
  A 0.50 0.50 0.0 0 0 327.25 117.00
  L 310.75 117.00
  A 0.50 0.50 0.0 0 1 310.25 116.50"
/>
<path stroke="#87cdaf" vector-effect="non-scaling-stroke" d="
  M 419.19 131.31
  Q 419.21 144.13 419.32 156.96
  Q 419.38 163.60 420.23 166.58
  C 424.73 182.26 442.09 183.73 454.99 178.43
  A 0.45 0.32 -20.8 0 0 455.29 177.99
  L 451.10 165.18
  A 0.51 0.46 -21.6 0 0 450.42 164.92
  C 443.75 167.98 435.18 167.48 435.08 157.97
  Q 434.91 141.97 435.11 131.36
  A 0.64 0.63 0.9 0 1 435.75 130.75
  L 463.75 130.75
  A 0.55 0.49 90.0 0 1 464.24 131.30
  Q 464.11 156.75 464.38 161.78
  C 465.41 180.88 485.20 184.39 499.79 178.47
  A 0.67 0.54 -20.1 0 0 500.21 177.76
  L 496.12 165.17
  A 0.55 0.48 -22.5 0 0 495.38 164.92
  C 489.00 168.10 480.33 167.39 480.17 158.42
  Q 479.92 144.88 480.04 131.29
  A 0.54 0.46 -90.0 0 1 480.50 130.75
  L 497.25 130.75
  A 0.50 0.50 0.0 0 0 497.75 130.25
  L 497.75 117.50
  A 0.75 0.50 0.0 0 0 497.00 117.00
  L 480.75 117.00
  A 0.50 0.50 0.0 0 1 480.25 116.50
  L 480.25 99.00
  A 1.01 0.90 87.2 0 0 479.25 97.98
  L 464.76 99.59
  A 0.67 0.58 87.2 0 0 464.25 100.25
  L 464.25 116.50
  A 0.50 0.50 0.0 0 1 463.75 117.00
  L 435.75 117.00
  A 0.50 0.50 0.0 0 1 435.25 116.50
  L 435.25 98.50
  A 0.56 0.46 87.3 0 0 434.74 97.93
  L 419.76 99.60
  A 0.66 0.56 87.6 0 0 419.25 100.25
  L 419.25 116.50
  A 0.50 0.50 0.0 0 1 418.75 117.00
  L 407.75 117.00
  A 0.50 0.50 0.0 0 0 407.25 117.50
  L 407.25 130.25
  A 0.50 0.50 0.0 0 0 407.75 130.75
  L 418.75 130.75
  A 0.56 0.44 90.0 0 1 419.19 131.31"
/>
<path stroke="#87cdaf" vector-effect="non-scaling-stroke" d="
  M 353.77 154.59
  A 0.49 0.47 -7.2 0 1 354.25 154.00
  L 403.00 154.00
  A 0.57 0.47 -86.7 0 0 403.48 153.48
  C 405.11 138.98 400.62 122.46 386.51 116.74
  C 366.97 108.83 343.20 116.74 338.26 139.01
  C 334.74 154.93 340.24 173.17 356.68 179.30
  C 370.43 184.44 387.45 182.58 399.05 172.67
  A 1.15 1.05 -42.7 0 0 399.19 171.06
  L 390.19 162.06
  A 0.65 0.63 48.6 0 0 389.36 161.99
  C 378.25 170.10 358.19 170.87 353.77 154.59"
/>
<path stroke="#87cdaf" vector-effect="non-scaling-stroke" d="
  M 270.87 171.62
  C 285.67 156.42 282.30 127.76 262.50 118.48
  Q 252.28 113.69 241.39 115.20
  C 205.53 120.16 203.09 172.02 237.87 180.14
  C 249.14 182.77 262.53 180.17 270.87 171.62"
/>
<path stroke="#87cdaf" vector-effect="non-scaling-stroke" d="
  M 553.13 124.06
  Q 546.26 115.91 535.49 115.08
  C 511.39 113.20 497.19 131.22 500.27 154.15
  C 502.36 169.77 511.91 180.00 528.00 181.78
  Q 543.53 183.49 553.10 172.20
  Q 553.49 171.73 553.53 172.25
  L 554.07 179.50
  A 0.69 0.53 -1.3 0 0 554.75 180.00
  L 568.50 180.00
  A 0.50 0.50 0.0 0 0 569.00 179.50
  L 569.00 117.50
  A 0.50 0.50 0.0 0 0 568.50 117.00
  L 554.50 117.00
  A 0.70 0.52 0.8 0 0 553.81 117.50
  L 553.49 124.00
  Q 553.47 124.47 553.13 124.06"
/>
<path stroke="#87cdaf" vector-effect="non-scaling-stroke" d="
  M 702.12 124.05
  C 687.35 106.54 656.51 115.26 650.55 136.50
  C 646.58 150.63 649.50 169.29 663.12 177.37
  C 674.90 184.35 692.94 184.25 702.01 172.18
  Q 702.46 171.59 702.51 172.25
  L 703.07 179.49
  A 0.55 0.42 87.2 0 0 703.50 180.00
  L 717.50 180.00
  A 0.50 0.50 0.0 0 0 718.00 179.50
  L 718.00 117.50
  A 0.50 0.50 0.0 0 0 717.50 117.00
  L 703.50 117.00
  A 0.70 0.52 0.8 0 0 702.81 117.50
  L 702.48 124.00
  Q 702.46 124.45 702.12 124.05"
/>
<path stroke="#87cdaf" vector-effect="non-scaling-stroke" d="
  M 608.42 162.73
  C 608.26 162.68 608.04 162.45 607.98 162.28
  Q 600.06 139.12 590.32 116.60
  A 1.00 0.84 76.4 0 0 589.50 116.00
  L 573.06 116.01
  A 0.35 0.33 78.0 0 0 572.77 116.49
  L 599.59 179.43
  A 0.91 0.60 74.2 0 0 600.25 180.00
  L 616.75 180.00
  A 1.11 0.64 -72.9 0 0 617.51 179.29
  L 644.14 116.41
  A 0.29 0.24 -76.5 0 0 643.94 116.01
  L 627.25 116.00
  A 0.93 0.54 -73.0 0 0 626.61 116.59
  Q 617.01 139.21 608.95 162.44
  A 0.45 0.43 -72.4 0 1 608.42 162.73"
/>
<path stroke="#87cdaf" vector-effect="non-scaling-stroke" d="
  M 186.58 172.50
  L 187.32 178.99
  A 1.13 0.91 86.2 0 0 188.25 180.00
  L 201.25 180.00
  A 0.50 0.50 0.0 0 0 201.75 179.50
  L 201.75 117.75
  A 0.75 0.50 90.0 0 0 201.25 117.00
  L 186.31 117.01
  A 0.47 0.33 -90.0 0 0 185.98 117.48
  Q 186.05 131.00 185.97 144.48
  Q 185.93 152.52 184.79 155.74
  C 178.77 172.82 154.18 169.17 154.07 149.48
  Q 153.99 133.62 153.95 117.65
  A 0.65 0.45 -90.0 0 0 153.50 117.00
  L 138.75 117.00
  A 0.49 0.48 -89.4 0 0 138.27 117.48
  Q 138.20 133.27 138.28 149.07
  C 138.33 157.01 139.14 162.62 142.82 168.90
  C 150.28 181.61 165.61 183.89 178.54 177.77
  Q 180.43 176.88 186.05 172.37
  Q 186.53 171.99 186.58 172.50"
/>
<path stroke="#87cdaf" vector-effect="non-scaling-stroke" d="
  M 721.65 203.31
  A 9.40 9.40 0.0 0 0 712.25 193.91
  A 9.40 9.40 0.0 0 0 702.85 203.31
  A 9.40 9.40 0.0 0 0 712.25 212.71
  A 9.40 9.40 0.0 0 0 721.65 203.31"
/>
<path stroke="#87cdaf" vector-effect="non-scaling-stroke" d="
  M 124.75 257.50
  Q 124.75 256.76 125.21 257.29
  L 149.01 284.49
  A 1.18 0.40 53.6 0 0 149.75 285.00
  L 167.75 284.99
  Q 169.95 284.99 168.42 283.33
  L 139.70 252.05
  A 0.58 0.45 45.8 0 1 139.62 251.36
  L 165.21 222.96
  Q 166.07 222.00 164.75 222.00
  L 146.25 222.00
  A 1.18 0.51 -57.1 0 0 145.51 222.49
  L 125.21 246.45
  Q 124.75 246.99 124.75 246.25
  L 124.75 195.75
  A 0.75 0.50 90.0 0 0 124.25 195.00
  L 109.50 195.00
  A 0.50 0.50 0.0 0 0 109.00 195.50
  L 109.00 284.50
  A 0.50 0.50 0.0 0 0 109.50 285.00
  L 124.25 285.00
  A 0.50 0.50 0.0 0 0 124.75 284.50
  L 124.75 257.50"
/>
<path stroke="#87cdaf" vector-effect="non-scaling-stroke" d="
  M 309.80 231.00
  Q 309.39 231.67 309.05 230.96
  Q 305.37 223.08 296.98 220.84
  C 289.71 218.89 279.41 220.14 274.90 227.05
  Q 274.00 228.43 273.77 226.74
  L 273.07 221.49
  A 0.85 0.55 -2.1 0 0 272.25 221.00
  L 258.75 221.00
  A 0.50 0.50 0.0 0 0 258.25 221.50
  L 258.25 284.50
  A 0.50 0.50 0.0 0 0 258.75 285.00
  L 273.50 285.00
  A 0.54 0.50 89.4 0 0 274.00 284.45
  Q 273.88 262.13 274.12 250.46
  C 274.28 242.16 280.26 233.45 289.36 235.12
  C 298.09 236.72 300.27 245.43 300.26 253.00
  Q 300.23 268.71 300.28 284.45
  A 0.55 0.47 90.0 0 0 300.75 285.00
  L 315.50 285.00
  A 0.54 0.50 -90.0 0 0 316.00 284.46
  Q 315.88 261.63 316.11 250.71
  C 316.31 241.44 323.40 233.17 332.97 235.47
  C 340.72 237.33 342.25 245.57 342.25 252.50
  Q 342.23 268.46 342.27 284.45
  A 0.55 0.48 90.0 0 0 342.75 285.00
  L 357.50 285.00
  A 0.51 0.49 -89.4 0 0 357.99 284.50
  Q 358.04 267.36 357.97 250.23
  C 357.88 230.63 348.34 218.85 327.69 220.39
  Q 315.86 221.28 309.80 231.00"
/>
<path stroke="#87cdaf" vector-effect="non-scaling-stroke" d="
  M 391.74 229.00
  L 391.00 222.50
  A 0.57 0.50 86.1 0 0 390.50 222.00
  L 376.50 222.00
  A 0.50 0.50 0.0 0 0 376.00 222.50
  L 376.00 311.50
  A 0.50 0.50 0.0 0 0 376.50 312.00
  L 391.50 312.00
  A 0.50 0.50 0.0 0 0 392.00 311.50
  L 392.01 279.82
  Q 392.01 278.75 392.70 279.54
  C 397.94 285.43 406.98 287.28 414.48 287.03
  C 457.74 285.58 454.47 216.35 409.27 220.08
  Q 399.54 220.88 392.15 229.06
  Q 391.80 229.45 391.74 229.00"
/>
<path stroke="#87cdaf" vector-effect="non-scaling-stroke" d="
  M 474.77 229.00
  L 473.94 222.51
  A 0.71 0.58 -2.7 0 0 473.25 222.00
  L 459.50 222.00
  A 0.50 0.50 0.0 0 0 459.00 222.50
  L 459.00 311.50
  A 0.50 0.50 0.0 0 0 459.50 312.00
  L 474.50 312.00
  A 0.50 0.50 0.0 0 0 475.00 311.50
  L 475.00 279.56
  Q 475.00 278.76 475.53 279.35
  C 483.12 287.83 497.27 288.44 507.34 285.34
  C 535.07 276.80 534.83 232.31 507.81 222.26
  Q 488.77 215.17 475.16 229.08
  Q 474.82 229.43 474.77 229.00"
/>
<path stroke="#87cdaf" vector-effect="non-scaling-stroke" d="
  M 593.13 229.06
  Q 586.28 220.88 575.49 220.05
  C 527.59 216.39 527.86 290.92 575.35 286.80
  Q 586.15 285.87 593.02 277.19
  Q 593.48 276.61 593.53 277.25
  L 594.08 284.49
  A 0.68 0.55 -1.8 0 0 594.75 285.00
  L 608.50 285.00
  A 0.50 0.50 0.0 0 0 609.00 284.50
  L 609.00 222.50
  A 0.50 0.50 0.0 0 0 608.50 222.00
  L 594.50 222.00
  A 0.70 0.52 0.8 0 0 593.81 222.50
  L 593.49 229.00
  Q 593.47 229.47 593.13 229.06"
/>
<path stroke="#87cdaf" vector-effect="non-scaling-stroke" d="
  M 640.17 228.51
  L 639.37 221.43
  A 0.64 0.48 -2.4 0 0 638.75 221.00
  L 625.50 221.00
  A 0.50 0.50 0.0 0 0 625.00 221.50
  L 625.00 284.50
  A 0.50 0.50 0.0 0 0 625.50 285.00
  L 640.25 285.00
  A 0.55 0.50 -90.0 0 0 640.75 284.45
  Q 640.61 257.67 640.86 251.45
  C 641.28 240.83 649.84 232.43 660.54 234.84
  C 669.62 236.90 671.95 245.35 671.96 253.75
  Q 671.97 269.09 672.03 284.45
  A 0.55 0.47 90.0 0 0 672.50 285.00
  L 687.25 285.00
  A 0.55 0.47 -90.0 0 0 687.72 284.45
  Q 687.80 267.73 687.72 251.01
  C 687.65 236.45 681.06 222.88 665.30 220.35
  Q 651.54 218.13 640.90 228.70
  Q 640.27 229.32 640.17 228.51"
/>
<path stroke="#87cdaf" vector-effect="non-scaling-stroke" d="
  M 720.25 221.44
  A 0.44 0.44 0.0 0 0 719.81 221.00
  L 704.69 221.00
  A 0.44 0.44 0.0 0 0 704.25 221.44
  L 704.25 284.56
  A 0.44 0.44 0.0 0 0 704.69 285.00
  L 719.81 285.00
  A 0.44 0.44 0.0 0 0 720.25 284.56
  L 720.25 221.44"
/>
<path stroke="#87cdaf" vector-effect="non-scaling-stroke" d="
  M 226.56 277.49
  L 227.31 284.00
  A 1.12 0.92 86.3 0 0 228.25 285.00
  L 241.25 285.00
  A 0.50 0.50 0.0 0 0 241.75 284.50
  L 241.75 222.75
  A 0.75 0.50 90.0 0 0 241.25 222.00
  L 226.50 222.00
  A 0.55 0.48 90.0 0 0 226.02 222.55
  Q 226.01 238.16 225.89 253.73
  C 225.72 276.47 194.01 278.05 194.01 254.74
  Q 194.01 238.74 193.94 222.63
  A 0.63 0.44 -90.0 0 0 193.50 222.00
  L 178.75 222.00
  A 0.55 0.47 90.0 0 0 178.28 222.55
  Q 178.20 239.07 178.28 255.58
  C 178.33 267.54 182.92 279.51 194.50 284.11
  C 205.28 288.39 217.40 285.50 225.82 277.42
  Q 226.47 276.79 226.56 277.49"
/>
<path stroke="#87cdaf" vector-effect="non-scaling-stroke" d="
  M 387.92 140.43
  C 384.37 123.15 358.18 124.75 354.29 140.42
  A 0.47 0.47 0.0 0 0 354.75 141.00
  L 387.50 141.00
  A 0.47 0.44 83.6 0 0 387.92 140.43"
/>
<path stroke="#87cdaf" vector-effect="non-scaling-stroke" d="
  M 246.9896 166.5527
  A 18.61 17.44 88.4 0 0 263.9032 147.4630
  A 18.61 17.44 88.4 0 0 245.9504 129.3473
  A 18.61 17.44 88.4 0 0 229.0368 148.4370
  A 18.61 17.44 88.4 0 0 246.9896 166.5527"
/>
<path stroke="#87cdaf" vector-effect="non-scaling-stroke" d="
  M 530.18 130.14
  C 509.82 134.30 511.41 165.14 532.99 167.15
  C 560.79 169.75 559.08 124.24 530.18 130.14"
/>
<path stroke="#87cdaf" vector-effect="non-scaling-stroke" d="
  M 684.0331 167.4516
  A 18.98 18.71 88.3 0 0 702.1718 147.9249
  A 18.98 18.71 88.3 0 0 682.9069 129.5084
  A 18.98 18.71 88.3 0 0 664.7682 149.0351
  A 18.98 18.71 88.3 0 0 684.0331 167.4516"
/>
<path stroke="#87cdaf" vector-effect="non-scaling-stroke" d="
  M 429.31 253.44
  A 18.07 18.07 0.0 0 0 411.24 235.37
  A 18.07 18.07 0.0 0 0 393.17 253.44
  A 18.07 18.07 0.0 0 0 411.24 271.51
  A 18.07 18.07 0.0 0 0 429.31 253.44"
/>
<path stroke="#87cdaf" vector-effect="non-scaling-stroke" d="
  M 512.32 253.43
  A 18.08 18.08 0.0 0 0 494.24 235.35
  A 18.08 18.08 0.0 0 0 476.16 253.43
  A 18.08 18.08 0.0 0 0 494.24 271.51
  A 18.08 18.08 0.0 0 0 512.32 253.43"
/>
<path stroke="#87cdaf" vector-effect="non-scaling-stroke" d="
  M 574.8675 272.4658
  A 18.98 18.71 88.8 0 0 593.1759 253.0982
  A 18.98 18.71 88.8 0 0 574.0725 234.5142
  A 18.98 18.71 88.8 0 0 555.7641 253.8818
  A 18.98 18.71 88.8 0 0 574.8675 272.4658"
/>
</g>
<path fill="#56b68f" d="
  M 0.00 0.00
  L 819.81 0.00
  C 819.27 1.00 71.62 0.25 2.42 0.25
  A 1.01 1.00 -64.5 0 0 1.78 0.48
  L 1.50 0.71
  L 0.00 0.94
  L 0.00 0.00
  Z"
/>
<path fill="#8ae7bc" d="
  M 819.81 0.00
  L 842.00 0.00
  L 842.00 1.31
  Q 840.65 0.75 840.25 0.75
  Q 420.88 0.78 1.50 0.71
  L 1.78 0.48
  A 1.01 1.00 -64.5 0 1 2.42 0.25
  C 71.62 0.25 819.27 1.00 819.81 0.00
  Z"
/>
<path fill="#0f9a5f" d="
  M 1.50 0.71
  Q 420.88 0.78 840.25 0.75
  Q 840.65 0.75 842.00 1.31
  L 842.00 394.94
  L 0.00 394.89
  L 0.00 0.94
  L 1.50 0.71
  Z
  M 124.74 90.27
  A 0.27 0.27 0.0 0 0 124.47 90.00
  L 109.27 90.00
  A 0.27 0.27 0.0 0 0 109.00 90.27
  L 109.00 179.73
  A 0.27 0.27 0.0 0 0 109.27 180.00
  L 124.47 180.00
  A 0.27 0.27 0.0 0 0 124.74 179.73
  L 124.74 90.27
  Z
  M 310.25 116.50
  L 310.25 98.75
  A 0.78 0.68 87.4 0 0 309.50 97.96
  L 294.76 99.59
  A 0.67 0.58 87.2 0 0 294.25 100.25
  L 294.25 116.50
  A 0.50 0.50 0.0 0 1 293.75 117.00
  L 282.75 117.00
  A 0.50 0.50 0.0 0 0 282.25 117.50
  L 282.25 130.25
  A 0.50 0.50 0.0 0 0 282.75 130.75
  L 293.75 130.75
  A 0.52 0.51 -90.0 0 1 294.26 131.27
  Q 294.07 156.11 294.38 161.78
  C 295.42 181.09 315.30 184.24 329.97 178.49
  A 0.47 0.38 -20.0 0 0 330.27 177.99
  L 326.17 165.32
  A 0.62 0.61 -21.5 0 0 325.32 164.96
  C 318.49 168.08 310.13 167.30 310.04 157.74
  Q 309.93 144.54 310.03 131.29
  A 0.55 0.47 -89.4 0 1 310.50 130.75
  L 327.25 130.75
  A 0.50 0.50 0.0 0 0 327.75 130.25
  L 327.75 117.50
  A 0.50 0.50 0.0 0 0 327.25 117.00
  L 310.75 117.00
  A 0.50 0.50 0.0 0 1 310.25 116.50
  Z
  M 419.19 131.31
  Q 419.21 144.13 419.32 156.96
  Q 419.38 163.60 420.23 166.58
  C 424.73 182.26 442.09 183.73 454.99 178.43
  A 0.45 0.32 -20.8 0 0 455.29 177.99
  L 451.10 165.18
  A 0.51 0.46 -21.6 0 0 450.42 164.92
  C 443.75 167.98 435.18 167.48 435.08 157.97
  Q 434.91 141.97 435.11 131.36
  A 0.64 0.63 0.9 0 1 435.75 130.75
  L 463.75 130.75
  A 0.55 0.49 90.0 0 1 464.24 131.30
  Q 464.11 156.75 464.38 161.78
  C 465.41 180.88 485.20 184.39 499.79 178.47
  A 0.67 0.54 -20.1 0 0 500.21 177.76
  L 496.12 165.17
  A 0.55 0.48 -22.5 0 0 495.38 164.92
  C 489.00 168.10 480.33 167.39 480.17 158.42
  Q 479.92 144.88 480.04 131.29
  A 0.54 0.46 -90.0 0 1 480.50 130.75
  L 497.25 130.75
  A 0.50 0.50 0.0 0 0 497.75 130.25
  L 497.75 117.50
  A 0.75 0.50 0.0 0 0 497.00 117.00
  L 480.75 117.00
  A 0.50 0.50 0.0 0 1 480.25 116.50
  L 480.25 99.00
  A 1.01 0.90 87.2 0 0 479.25 97.98
  L 464.76 99.59
  A 0.67 0.58 87.2 0 0 464.25 100.25
  L 464.25 116.50
  A 0.50 0.50 0.0 0 1 463.75 117.00
  L 435.75 117.00
  A 0.50 0.50 0.0 0 1 435.25 116.50
  L 435.25 98.50
  A 0.56 0.46 87.3 0 0 434.74 97.93
  L 419.76 99.60
  A 0.66 0.56 87.6 0 0 419.25 100.25
  L 419.25 116.50
  A 0.50 0.50 0.0 0 1 418.75 117.00
  L 407.75 117.00
  A 0.50 0.50 0.0 0 0 407.25 117.50
  L 407.25 130.25
  A 0.50 0.50 0.0 0 0 407.75 130.75
  L 418.75 130.75
  A 0.56 0.44 90.0 0 1 419.19 131.31
  Z
  M 353.77 154.59
  A 0.49 0.47 -7.2 0 1 354.25 154.00
  L 403.00 154.00
  A 0.57 0.47 -86.7 0 0 403.48 153.48
  C 405.11 138.98 400.62 122.46 386.51 116.74
  C 366.97 108.83 343.20 116.74 338.26 139.01
  C 334.74 154.93 340.24 173.17 356.68 179.30
  C 370.43 184.44 387.45 182.58 399.05 172.67
  A 1.15 1.05 -42.7 0 0 399.19 171.06
  L 390.19 162.06
  A 0.65 0.63 48.6 0 0 389.36 161.99
  C 378.25 170.10 358.19 170.87 353.77 154.59
  Z
  M 270.87 171.62
  C 285.67 156.42 282.30 127.76 262.50 118.48
  Q 252.28 113.69 241.39 115.20
  C 205.53 120.16 203.09 172.02 237.87 180.14
  C 249.14 182.77 262.53 180.17 270.87 171.62
  Z
  M 553.13 124.06
  Q 546.26 115.91 535.49 115.08
  C 511.39 113.20 497.19 131.22 500.27 154.15
  C 502.36 169.77 511.91 180.00 528.00 181.78
  Q 543.53 183.49 553.10 172.20
  Q 553.49 171.73 553.53 172.25
  L 554.07 179.50
  A 0.69 0.53 -1.3 0 0 554.75 180.00
  L 568.50 180.00
  A 0.50 0.50 0.0 0 0 569.00 179.50
  L 569.00 117.50
  A 0.50 0.50 0.0 0 0 568.50 117.00
  L 554.50 117.00
  A 0.70 0.52 0.8 0 0 553.81 117.50
  L 553.49 124.00
  Q 553.47 124.47 553.13 124.06
  Z
  M 702.12 124.05
  C 687.35 106.54 656.51 115.26 650.55 136.50
  C 646.58 150.63 649.50 169.29 663.12 177.37
  C 674.90 184.35 692.94 184.25 702.01 172.18
  Q 702.46 171.59 702.51 172.25
  L 703.07 179.49
  A 0.55 0.42 87.2 0 0 703.50 180.00
  L 717.50 180.00
  A 0.50 0.50 0.0 0 0 718.00 179.50
  L 718.00 117.50
  A 0.50 0.50 0.0 0 0 717.50 117.00
  L 703.50 117.00
  A 0.70 0.52 0.8 0 0 702.81 117.50
  L 702.48 124.00
  Q 702.46 124.45 702.12 124.05
  Z
  M 608.42 162.73
  C 608.26 162.68 608.04 162.45 607.98 162.28
  Q 600.06 139.12 590.32 116.60
  A 1.00 0.84 76.4 0 0 589.50 116.00
  L 573.06 116.01
  A 0.35 0.33 78.0 0 0 572.77 116.49
  L 599.59 179.43
  A 0.91 0.60 74.2 0 0 600.25 180.00
  L 616.75 180.00
  A 1.11 0.64 -72.9 0 0 617.51 179.29
  L 644.14 116.41
  A 0.29 0.24 -76.5 0 0 643.94 116.01
  L 627.25 116.00
  A 0.93 0.54 -73.0 0 0 626.61 116.59
  Q 617.01 139.21 608.95 162.44
  A 0.45 0.43 -72.4 0 1 608.42 162.73
  Z
  M 186.58 172.50
  L 187.32 178.99
  A 1.13 0.91 86.2 0 0 188.25 180.00
  L 201.25 180.00
  A 0.50 0.50 0.0 0 0 201.75 179.50
  L 201.75 117.75
  A 0.75 0.50 90.0 0 0 201.25 117.00
  L 186.31 117.01
  A 0.47 0.33 -90.0 0 0 185.98 117.48
  Q 186.05 131.00 185.97 144.48
  Q 185.93 152.52 184.79 155.74
  C 178.77 172.82 154.18 169.17 154.07 149.48
  Q 153.99 133.62 153.95 117.65
  A 0.65 0.45 -90.0 0 0 153.50 117.00
  L 138.75 117.00
  A 0.49 0.48 -89.4 0 0 138.27 117.48
  Q 138.20 133.27 138.28 149.07
  C 138.33 157.01 139.14 162.62 142.82 168.90
  C 150.28 181.61 165.61 183.89 178.54 177.77
  Q 180.43 176.88 186.05 172.37
  Q 186.53 171.99 186.58 172.50
  Z
  M 721.65 203.31
  A 9.40 9.40 0.0 0 0 712.25 193.91
  A 9.40 9.40 0.0 0 0 702.85 203.31
  A 9.40 9.40 0.0 0 0 712.25 212.71
  A 9.40 9.40 0.0 0 0 721.65 203.31
  Z
  M 124.75 257.50
  Q 124.75 256.76 125.21 257.29
  L 149.01 284.49
  A 1.18 0.40 53.6 0 0 149.75 285.00
  L 167.75 284.99
  Q 169.95 284.99 168.42 283.33
  L 139.70 252.05
  A 0.58 0.45 45.8 0 1 139.62 251.36
  L 165.21 222.96
  Q 166.07 222.00 164.75 222.00
  L 146.25 222.00
  A 1.18 0.51 -57.1 0 0 145.51 222.49
  L 125.21 246.45
  Q 124.75 246.99 124.75 246.25
  L 124.75 195.75
  A 0.75 0.50 90.0 0 0 124.25 195.00
  L 109.50 195.00
  A 0.50 0.50 0.0 0 0 109.00 195.50
  L 109.00 284.50
  A 0.50 0.50 0.0 0 0 109.50 285.00
  L 124.25 285.00
  A 0.50 0.50 0.0 0 0 124.75 284.50
  L 124.75 257.50
  Z
  M 309.80 231.00
  Q 309.39 231.67 309.05 230.96
  Q 305.37 223.08 296.98 220.84
  C 289.71 218.89 279.41 220.14 274.90 227.05
  Q 274.00 228.43 273.77 226.74
  L 273.07 221.49
  A 0.85 0.55 -2.1 0 0 272.25 221.00
  L 258.75 221.00
  A 0.50 0.50 0.0 0 0 258.25 221.50
  L 258.25 284.50
  A 0.50 0.50 0.0 0 0 258.75 285.00
  L 273.50 285.00
  A 0.54 0.50 89.4 0 0 274.00 284.45
  Q 273.88 262.13 274.12 250.46
  C 274.28 242.16 280.26 233.45 289.36 235.12
  C 298.09 236.72 300.27 245.43 300.26 253.00
  Q 300.23 268.71 300.28 284.45
  A 0.55 0.47 90.0 0 0 300.75 285.00
  L 315.50 285.00
  A 0.54 0.50 -90.0 0 0 316.00 284.46
  Q 315.88 261.63 316.11 250.71
  C 316.31 241.44 323.40 233.17 332.97 235.47
  C 340.72 237.33 342.25 245.57 342.25 252.50
  Q 342.23 268.46 342.27 284.45
  A 0.55 0.48 90.0 0 0 342.75 285.00
  L 357.50 285.00
  A 0.51 0.49 -89.4 0 0 357.99 284.50
  Q 358.04 267.36 357.97 250.23
  C 357.88 230.63 348.34 218.85 327.69 220.39
  Q 315.86 221.28 309.80 231.00
  Z
  M 391.74 229.00
  L 391.00 222.50
  A 0.57 0.50 86.1 0 0 390.50 222.00
  L 376.50 222.00
  A 0.50 0.50 0.0 0 0 376.00 222.50
  L 376.00 311.50
  A 0.50 0.50 0.0 0 0 376.50 312.00
  L 391.50 312.00
  A 0.50 0.50 0.0 0 0 392.00 311.50
  L 392.01 279.82
  Q 392.01 278.75 392.70 279.54
  C 397.94 285.43 406.98 287.28 414.48 287.03
  C 457.74 285.58 454.47 216.35 409.27 220.08
  Q 399.54 220.88 392.15 229.06
  Q 391.80 229.45 391.74 229.00
  Z
  M 474.77 229.00
  L 473.94 222.51
  A 0.71 0.58 -2.7 0 0 473.25 222.00
  L 459.50 222.00
  A 0.50 0.50 0.0 0 0 459.00 222.50
  L 459.00 311.50
  A 0.50 0.50 0.0 0 0 459.50 312.00
  L 474.50 312.00
  A 0.50 0.50 0.0 0 0 475.00 311.50
  L 475.00 279.56
  Q 475.00 278.76 475.53 279.35
  C 483.12 287.83 497.27 288.44 507.34 285.34
  C 535.07 276.80 534.83 232.31 507.81 222.26
  Q 488.77 215.17 475.16 229.08
  Q 474.82 229.43 474.77 229.00
  Z
  M 593.13 229.06
  Q 586.28 220.88 575.49 220.05
  C 527.59 216.39 527.86 290.92 575.35 286.80
  Q 586.15 285.87 593.02 277.19
  Q 593.48 276.61 593.53 277.25
  L 594.08 284.49
  A 0.68 0.55 -1.8 0 0 594.75 285.00
  L 608.50 285.00
  A 0.50 0.50 0.0 0 0 609.00 284.50
  L 609.00 222.50
  A 0.50 0.50 0.0 0 0 608.50 222.00
  L 594.50 222.00
  A 0.70 0.52 0.8 0 0 593.81 222.50
  L 593.49 229.00
  Q 593.47 229.47 593.13 229.06
  Z
  M 640.17 228.51
  L 639.37 221.43
  A 0.64 0.48 -2.4 0 0 638.75 221.00
  L 625.50 221.00
  A 0.50 0.50 0.0 0 0 625.00 221.50
  L 625.00 284.50
  A 0.50 0.50 0.0 0 0 625.50 285.00
  L 640.25 285.00
  A 0.55 0.50 -90.0 0 0 640.75 284.45
  Q 640.61 257.67 640.86 251.45
  C 641.28 240.83 649.84 232.43 660.54 234.84
  C 669.62 236.90 671.95 245.35 671.96 253.75
  Q 671.97 269.09 672.03 284.45
  A 0.55 0.47 90.0 0 0 672.50 285.00
  L 687.25 285.00
  A 0.55 0.47 -90.0 0 0 687.72 284.45
  Q 687.80 267.73 687.72 251.01
  C 687.65 236.45 681.06 222.88 665.30 220.35
  Q 651.54 218.13 640.90 228.70
  Q 640.27 229.32 640.17 228.51
  Z
  M 720.25 221.44
  A 0.44 0.44 0.0 0 0 719.81 221.00
  L 704.69 221.00
  A 0.44 0.44 0.0 0 0 704.25 221.44
  L 704.25 284.56
  A 0.44 0.44 0.0 0 0 704.69 285.00
  L 719.81 285.00
  A 0.44 0.44 0.0 0 0 720.25 284.56
  L 720.25 221.44
  Z
  M 226.56 277.49
  L 227.31 284.00
  A 1.12 0.92 86.3 0 0 228.25 285.00
  L 241.25 285.00
  A 0.50 0.50 0.0 0 0 241.75 284.50
  L 241.75 222.75
  A 0.75 0.50 90.0 0 0 241.25 222.00
  L 226.50 222.00
  A 0.55 0.48 90.0 0 0 226.02 222.55
  Q 226.01 238.16 225.89 253.73
  C 225.72 276.47 194.01 278.05 194.01 254.74
  Q 194.01 238.74 193.94 222.63
  A 0.63 0.44 -90.0 0 0 193.50 222.00
  L 178.75 222.00
  A 0.55 0.47 90.0 0 0 178.28 222.55
  Q 178.20 239.07 178.28 255.58
  C 178.33 267.54 182.92 279.51 194.50 284.11
  C 205.28 288.39 217.40 285.50 225.82 277.42
  Q 226.47 276.79 226.56 277.49
  Z"
/>
<rect fill="#ffffff" x="109.00" y="90.00" width="15.74" height="90.00" rx="0.27"/>
<path fill="#ffffff" d="
  M 310.75 117.00
  L 327.25 117.00
  A 0.50 0.50 0.0 0 1 327.75 117.50
  L 327.75 130.25
  A 0.50 0.50 0.0 0 1 327.25 130.75
  L 310.50 130.75
  A 0.55 0.47 -89.4 0 0 310.03 131.29
  Q 309.93 144.54 310.04 157.74
  C 310.13 167.30 318.49 168.08 325.32 164.96
  A 0.62 0.61 -21.5 0 1 326.17 165.32
  L 330.27 177.99
  A 0.47 0.38 -20.0 0 1 329.97 178.49
  C 315.30 184.24 295.42 181.09 294.38 161.78
  Q 294.07 156.11 294.26 131.27
  A 0.52 0.51 90.0 0 0 293.75 130.75
  L 282.75 130.75
  A 0.50 0.50 0.0 0 1 282.25 130.25
  L 282.25 117.50
  A 0.50 0.50 0.0 0 1 282.75 117.00
  L 293.75 117.00
  A 0.50 0.50 0.0 0 0 294.25 116.50
  L 294.25 100.25
  A 0.67 0.58 87.2 0 1 294.76 99.59
  L 309.50 97.96
  A 0.78 0.68 87.4 0 1 310.25 98.75
  L 310.25 116.50
  A 0.50 0.50 0.0 0 0 310.75 117.00
  Z"
/>
<path fill="#ffffff" d="
  M 418.75 130.75
  L 407.75 130.75
  A 0.50 0.50 0.0 0 1 407.25 130.25
  L 407.25 117.50
  A 0.50 0.50 0.0 0 1 407.75 117.00
  L 418.75 117.00
  A 0.50 0.50 0.0 0 0 419.25 116.50
  L 419.25 100.25
  A 0.66 0.56 87.6 0 1 419.76 99.60
  L 434.74 97.93
  A 0.56 0.46 87.3 0 1 435.25 98.50
  L 435.25 116.50
  A 0.50 0.50 0.0 0 0 435.75 117.00
  L 463.75 117.00
  A 0.50 0.50 0.0 0 0 464.25 116.50
  L 464.25 100.25
  A 0.67 0.58 87.2 0 1 464.76 99.59
  L 479.25 97.98
  A 1.01 0.90 87.2 0 1 480.25 99.00
  L 480.25 116.50
  A 0.50 0.50 0.0 0 0 480.75 117.00
  L 497.00 117.00
  A 0.75 0.50 0.0 0 1 497.75 117.50
  L 497.75 130.25
  A 0.50 0.50 0.0 0 1 497.25 130.75
  L 480.50 130.75
  A 0.54 0.46 90.0 0 0 480.04 131.29
  Q 479.92 144.88 480.17 158.42
  C 480.33 167.39 489.00 168.10 495.38 164.92
  A 0.55 0.48 -22.5 0 1 496.12 165.17
  L 500.21 177.76
  A 0.67 0.54 -20.1 0 1 499.79 178.47
  C 485.20 184.39 465.41 180.88 464.38 161.78
  Q 464.11 156.75 464.24 131.30
  A 0.55 0.49 90.0 0 0 463.75 130.75
  L 435.75 130.75
  A 0.64 0.63 0.9 0 0 435.11 131.36
  Q 434.91 141.97 435.08 157.97
  C 435.18 167.48 443.75 167.98 450.42 164.92
  A 0.51 0.46 -21.6 0 1 451.10 165.18
  L 455.29 177.99
  A 0.45 0.32 -20.8 0 1 454.99 178.43
  C 442.09 183.73 424.73 182.26 420.23 166.58
  Q 419.38 163.60 419.32 156.96
  Q 419.21 144.13 419.19 131.31
  A 0.56 0.44 90.0 0 0 418.75 130.75
  Z"
/>
<path fill="#ffffff" d="
  M 353.77 154.59
  C 358.19 170.87 378.25 170.10 389.36 161.99
  A 0.65 0.63 48.6 0 1 390.19 162.06
  L 399.19 171.06
  A 1.15 1.05 -42.7 0 1 399.05 172.67
  C 387.45 182.58 370.43 184.44 356.68 179.30
  C 340.24 173.17 334.74 154.93 338.26 139.01
  C 343.20 116.74 366.97 108.83 386.51 116.74
  C 400.62 122.46 405.11 138.98 403.48 153.48
  A 0.57 0.47 -86.7 0 1 403.00 154.00
  L 354.25 154.00
  A 0.49 0.47 -7.2 0 0 353.77 154.59
  Z
  M 387.92 140.43
  C 384.37 123.15 358.18 124.75 354.29 140.42
  A 0.47 0.47 0.0 0 0 354.75 141.00
  L 387.50 141.00
  A 0.47 0.44 83.6 0 0 387.92 140.43
  Z"
/>
<path fill="#ffffff" d="
  M 270.87 171.62
  C 262.53 180.17 249.14 182.77 237.87 180.14
  C 203.09 172.02 205.53 120.16 241.39 115.20
  Q 252.28 113.69 262.50 118.48
  C 282.30 127.76 285.67 156.42 270.87 171.62
  Z
  M 246.9896 166.5527
  A 18.61 17.44 88.4 0 0 263.9032 147.4630
  A 18.61 17.44 88.4 0 0 245.9504 129.3473
  A 18.61 17.44 88.4 0 0 229.0368 148.4370
  A 18.61 17.44 88.4 0 0 246.9896 166.5527
  Z"
/>
<path fill="#ffffff" d="
  M 553.49 124.00
  L 553.81 117.50
  A 0.70 0.52 0.8 0 1 554.50 117.00
  L 568.50 117.00
  A 0.50 0.50 0.0 0 1 569.00 117.50
  L 569.00 179.50
  A 0.50 0.50 0.0 0 1 568.50 180.00
  L 554.75 180.00
  A 0.69 0.53 -1.3 0 1 554.07 179.50
  L 553.53 172.25
  Q 553.49 171.73 553.10 172.20
  Q 543.53 183.49 528.00 181.78
  C 511.91 180.00 502.36 169.77 500.27 154.15
  C 497.19 131.22 511.39 113.20 535.49 115.08
  Q 546.26 115.91 553.13 124.06
  Q 553.47 124.47 553.49 124.00
  Z
  M 530.18 130.14
  C 509.82 134.30 511.41 165.14 532.99 167.15
  C 560.79 169.75 559.08 124.24 530.18 130.14
  Z"
/>
<path fill="#ffffff" d="
  M 702.48 124.00
  L 702.81 117.50
  A 0.70 0.52 0.8 0 1 703.50 117.00
  L 717.50 117.00
  A 0.50 0.50 0.0 0 1 718.00 117.50
  L 718.00 179.50
  A 0.50 0.50 0.0 0 1 717.50 180.00
  L 703.50 180.00
  A 0.55 0.42 87.2 0 1 703.07 179.49
  L 702.51 172.25
  Q 702.46 171.59 702.01 172.18
  C 692.94 184.25 674.90 184.35 663.12 177.37
  C 649.50 169.29 646.58 150.63 650.55 136.50
  C 656.51 115.26 687.35 106.54 702.12 124.05
  Q 702.46 124.45 702.48 124.00
  Z
  M 684.0331 167.4516
  A 18.98 18.71 88.3 0 0 702.1718 147.9249
  A 18.98 18.71 88.3 0 0 682.9069 129.5084
  A 18.98 18.71 88.3 0 0 664.7682 149.0351
  A 18.98 18.71 88.3 0 0 684.0331 167.4516
  Z"
/>
<path fill="#ffffff" d="
  M 608.42 162.73
  A 0.45 0.43 -72.4 0 0 608.95 162.44
  Q 617.01 139.21 626.61 116.59
  A 0.93 0.54 -73.0 0 1 627.25 116.00
  L 643.94 116.01
  A 0.29 0.24 -76.5 0 1 644.14 116.41
  L 617.51 179.29
  A 1.11 0.64 -72.9 0 1 616.75 180.00
  L 600.25 180.00
  A 0.91 0.60 74.2 0 1 599.59 179.43
  L 572.77 116.49
  A 0.35 0.33 78.0 0 1 573.06 116.01
  L 589.50 116.00
  A 1.00 0.84 76.4 0 1 590.32 116.60
  Q 600.06 139.12 607.98 162.28
  C 608.04 162.45 608.26 162.68 608.42 162.73
  Z"
/>
<path fill="#ffffff" d="
  M 186.05 172.37
  Q 180.43 176.88 178.54 177.77
  C 165.61 183.89 150.28 181.61 142.82 168.90
  C 139.14 162.62 138.33 157.01 138.28 149.07
  Q 138.20 133.27 138.27 117.48
  A 0.49 0.48 -89.4 0 1 138.75 117.00
  L 153.50 117.00
  A 0.65 0.45 90.0 0 1 153.95 117.65
  Q 153.99 133.62 154.07 149.48
  C 154.18 169.17 178.77 172.82 184.79 155.74
  Q 185.93 152.52 185.97 144.48
  Q 186.05 131.00 185.98 117.48
  A 0.47 0.33 90.0 0 1 186.31 117.01
  L 201.25 117.00
  A 0.75 0.50 90.0 0 1 201.75 117.75
  L 201.75 179.50
  A 0.50 0.50 0.0 0 1 201.25 180.00
  L 188.25 180.00
  A 1.13 0.91 86.2 0 1 187.32 178.99
  L 186.58 172.50
  Q 186.53 171.99 186.05 172.37
  Z"
/>
<path fill="#0f9a5f" d="
  M 354.29 140.42
  C 358.18 124.75 384.37 123.15 387.92 140.43
  A 0.47 0.44 83.6 0 1 387.50 141.00
  L 354.75 141.00
  A 0.47 0.47 0.0 0 1 354.29 140.42
  Z"
/>
<ellipse fill="#0f9a5f" cx="0.00" cy="0.00" transform="translate(246.47,147.95) rotate(88.4)" rx="18.61" ry="17.44"/>
<path fill="#0f9a5f" d="
  M 532.99 167.15
  C 511.41 165.14 509.82 134.30 530.18 130.14
  C 559.08 124.24 560.79 169.75 532.99 167.15
  Z"
/>
<ellipse fill="#0f9a5f" cx="0.00" cy="0.00" transform="translate(683.47,148.48) rotate(88.3)" rx="18.98" ry="18.71"/>
<circle fill="#ffffff" cx="712.25" cy="203.31" r="9.40"/>
<path fill="#ffffff" d="
  M 124.75 257.50
  L 124.75 284.50
  A 0.50 0.50 0.0 0 1 124.25 285.00
  L 109.50 285.00
  A 0.50 0.50 0.0 0 1 109.00 284.50
  L 109.00 195.50
  A 0.50 0.50 0.0 0 1 109.50 195.00
  L 124.25 195.00
  A 0.75 0.50 90.0 0 1 124.75 195.75
  L 124.75 246.25
  Q 124.75 246.99 125.21 246.45
  L 145.51 222.49
  A 1.18 0.51 -57.1 0 1 146.25 222.00
  L 164.75 222.00
  Q 166.07 222.00 165.21 222.96
  L 139.62 251.36
  A 0.58 0.45 45.8 0 0 139.70 252.05
  L 168.42 283.33
  Q 169.95 284.99 167.75 284.99
  L 149.75 285.00
  A 1.18 0.40 53.6 0 1 149.01 284.49
  L 125.21 257.29
  Q 124.75 256.76 124.75 257.50
  Z"
/>
<path fill="#ffffff" d="
  M 309.80 231.00
  Q 315.86 221.28 327.69 220.39
  C 348.34 218.85 357.88 230.63 357.97 250.23
  Q 358.04 267.36 357.99 284.50
  A 0.51 0.49 -89.4 0 1 357.50 285.00
  L 342.75 285.00
  A 0.55 0.48 90.0 0 1 342.27 284.45
  Q 342.23 268.46 342.25 252.50
  C 342.25 245.57 340.72 237.33 332.97 235.47
  C 323.40 233.17 316.31 241.44 316.11 250.71
  Q 315.88 261.63 316.00 284.46
  A 0.54 0.50 90.0 0 1 315.50 285.00
  L 300.75 285.00
  A 0.55 0.47 -90.0 0 1 300.28 284.45
  Q 300.23 268.71 300.26 253.00
  C 300.27 245.43 298.09 236.72 289.36 235.12
  C 280.26 233.45 274.28 242.16 274.12 250.46
  Q 273.88 262.13 274.00 284.45
  A 0.54 0.50 89.4 0 1 273.50 285.00
  L 258.75 285.00
  A 0.50 0.50 0.0 0 1 258.25 284.50
  L 258.25 221.50
  A 0.50 0.50 0.0 0 1 258.75 221.00
  L 272.25 221.00
  A 0.85 0.55 -2.1 0 1 273.07 221.49
  L 273.77 226.74
  Q 274.00 228.43 274.90 227.05
  C 279.41 220.14 289.71 218.89 296.98 220.84
  Q 305.37 223.08 309.05 230.96
  Q 309.39 231.67 309.80 231.00
  Z"
/>
<path fill="#ffffff" d="
  M 392.15 229.06
  Q 399.54 220.88 409.27 220.08
  C 454.47 216.35 457.74 285.58 414.48 287.03
  C 406.98 287.28 397.94 285.43 392.70 279.54
  Q 392.01 278.75 392.01 279.82
  L 392.00 311.50
  A 0.50 0.50 0.0 0 1 391.50 312.00
  L 376.50 312.00
  A 0.50 0.50 0.0 0 1 376.00 311.50
  L 376.00 222.50
  A 0.50 0.50 0.0 0 1 376.50 222.00
  L 390.50 222.00
  A 0.57 0.50 86.1 0 1 391.00 222.50
  L 391.74 229.00
  Q 391.80 229.45 392.15 229.06
  Z
  M 429.31 253.44
  A 18.07 18.07 0.0 0 0 411.24 235.37
  A 18.07 18.07 0.0 0 0 393.17 253.44
  A 18.07 18.07 0.0 0 0 411.24 271.51
  A 18.07 18.07 0.0 0 0 429.31 253.44
  Z"
/>
<path fill="#ffffff" d="
  M 475.16 229.08
  Q 488.77 215.17 507.81 222.26
  C 534.83 232.31 535.07 276.80 507.34 285.34
  C 497.27 288.44 483.12 287.83 475.53 279.35
  Q 475.00 278.76 475.00 279.56
  L 475.00 311.50
  A 0.50 0.50 0.0 0 1 474.50 312.00
  L 459.50 312.00
  A 0.50 0.50 0.0 0 1 459.00 311.50
  L 459.00 222.50
  A 0.50 0.50 0.0 0 1 459.50 222.00
  L 473.25 222.00
  A 0.71 0.58 -2.7 0 1 473.94 222.51
  L 474.77 229.00
  Q 474.82 229.43 475.16 229.08
  Z
  M 512.32 253.43
  A 18.08 18.08 0.0 0 0 494.24 235.35
  A 18.08 18.08 0.0 0 0 476.16 253.43
  A 18.08 18.08 0.0 0 0 494.24 271.51
  A 18.08 18.08 0.0 0 0 512.32 253.43
  Z"
/>
<path fill="#ffffff" d="
  M 593.49 229.00
  L 593.81 222.50
  A 0.70 0.52 0.8 0 1 594.50 222.00
  L 608.50 222.00
  A 0.50 0.50 0.0 0 1 609.00 222.50
  L 609.00 284.50
  A 0.50 0.50 0.0 0 1 608.50 285.00
  L 594.75 285.00
  A 0.68 0.55 -1.8 0 1 594.08 284.49
  L 593.53 277.25
  Q 593.48 276.61 593.02 277.19
  Q 586.15 285.87 575.35 286.80
  C 527.86 290.92 527.59 216.39 575.49 220.05
  Q 586.28 220.88 593.13 229.06
  Q 593.47 229.47 593.49 229.00
  Z
  M 574.8675 272.4658
  A 18.98 18.71 88.8 0 0 593.1759 253.0982
  A 18.98 18.71 88.8 0 0 574.0725 234.5142
  A 18.98 18.71 88.8 0 0 555.7641 253.8818
  A 18.98 18.71 88.8 0 0 574.8675 272.4658
  Z"
/>
<path fill="#ffffff" d="
  M 640.17 228.51
  Q 640.27 229.32 640.90 228.70
  Q 651.54 218.13 665.30 220.35
  C 681.06 222.88 687.65 236.45 687.72 251.01
  Q 687.80 267.73 687.72 284.45
  A 0.55 0.47 -90.0 0 1 687.25 285.00
  L 672.50 285.00
  A 0.55 0.47 -90.0 0 1 672.03 284.45
  Q 671.97 269.09 671.96 253.75
  C 671.95 245.35 669.62 236.90 660.54 234.84
  C 649.84 232.43 641.28 240.83 640.86 251.45
  Q 640.61 257.67 640.75 284.45
  A 0.55 0.50 -90.0 0 1 640.25 285.00
  L 625.50 285.00
  A 0.50 0.50 0.0 0 1 625.00 284.50
  L 625.00 221.50
  A 0.50 0.50 0.0 0 1 625.50 221.00
  L 638.75 221.00
  A 0.64 0.48 -2.4 0 1 639.37 221.43
  L 640.17 228.51
  Z"
/>
<rect fill="#ffffff" x="704.25" y="221.00" width="16.00" height="64.00" rx="0.44"/>
<path fill="#ffffff" d="
  M 225.82 277.42
  C 217.40 285.50 205.28 288.39 194.50 284.11
  C 182.92 279.51 178.33 267.54 178.28 255.58
  Q 178.20 239.07 178.28 222.55
  A 0.55 0.47 -90.0 0 1 178.75 222.00
  L 193.50 222.00
  A 0.63 0.44 -90.0 0 1 193.94 222.63
  Q 194.01 238.74 194.01 254.74
  C 194.01 278.05 225.72 276.47 225.89 253.73
  Q 226.01 238.16 226.02 222.55
  A 0.55 0.48 -90.0 0 1 226.50 222.00
  L 241.25 222.00
  A 0.75 0.50 90.0 0 1 241.75 222.75
  L 241.75 284.50
  A 0.50 0.50 0.0 0 1 241.25 285.00
  L 228.25 285.00
  A 1.12 0.92 86.3 0 1 227.31 284.00
  L 226.56 277.49
  Q 226.47 276.79 225.82 277.42
  Z"
/>
<ellipse fill="#0f9a5f" cx="0.00" cy="0.00" transform="translate(574.47,253.49) rotate(88.8)" rx="18.98" ry="18.71"/>
<circle fill="#0f9a5f" cx="411.24" cy="253.44" r="18.07"/>
<circle fill="#0f9a5f" cx="494.24" cy="253.43" r="18.08"/>
<path fill="#4ab388" d="
  M 0.00 394.89
  L 842.00 394.94
  L 842.00 396.00
  L 0.00 396.00
  L 0.00 394.89
  Z"
/>
</svg>
