<?xml version="1.0" encoding="UTF-8" standalone="no"?>
<!DOCTYPE svg PUBLIC "-//W3C//DTD SVG 1.1//EN" "http://www.w3.org/Graphics/SVG/1.1/DTD/svg11.dtd">
<svg xmlns="http://www.w3.org/2000/svg" version="1.1" viewBox="0 0 256 500">
<g stroke-width="0.20" fill="none" stroke-linecap="butt">
<path stroke="#2e2e2e" vector-effect="non-scaling-stroke" d="
  M 255.25 123.96
  Q 253.78 124.59 253.77 126.07
  C 253.73 146.43 252.61 181.41 254.50 183.96"
/>
<path stroke="#2e2e2e" vector-effect="non-scaling-stroke" d="
  M 2.25 208.21
  C 3.47 196.01 2.82 183.05 2.50 170.79"
/>
<path stroke="#2e2e2e" vector-effect="non-scaling-stroke" d="
  M 2.46 161.25
  Q 3.14 142.52 2.50 123.79"
/>
<path stroke="#2e2e2e" vector-effect="non-scaling-stroke" d="
  M 2.21 84.75
  Q 3.27 75.39 2.46 66.00"
/>
<path stroke="#181b17" vector-effect="non-scaling-stroke" d="
  M 3.79 34.25
  L 4.00 41.79"
/>
<path stroke="#2e2e2e" vector-effect="non-scaling-stroke" d="
  M 4.00 41.79
  C 3.82 75.03 4.11 108.27 4.04 141.51
  Q 3.71 297.31 3.95 453.12
  Q 3.97 469.00 4.26 470.98
  C 6.17 484.07 16.33 495.32 29.27 498.12
  Q 33.16 498.96 48.83 498.97
  Q 134.46 499.03 220.09 498.99
  C 221.90 498.99 223.57 498.27 225.40 498.05
  C 238.97 496.40 251.72 483.57 251.82 469.70
  C 252.53 374.67 252.01 279.58 251.99 184.55
  C 251.99 183.88 252.51 183.28 252.50 182.54
  Q 252.49 153.72 252.47 124.90
  Q 252.47 124.41 252.23 123.98
  Q 252.04 123.65 252.04 123.25
  Q 252.04 81.12 251.96 39.00"
/>
<path stroke="#181b17" vector-effect="non-scaling-stroke" d="
  M 251.96 39.00
  L 251.96 35.75"
/>
<path stroke="#2e2e2e" vector-effect="non-scaling-stroke" d="
  M 251.96 35.75
  C 253.65 15.55 237.47 1.14 218.00 1.16
  Q 131.90 1.24 45.80 1.27
  Q 32.32 1.27 26.96 2.83
  C 13.07 6.88 4.11 19.67 3.79 34.25"
/>
<path stroke="#464945" vector-effect="non-scaling-stroke" d="
  M 251.96 35.75
  Q 251.24 35.76 251.25 35.00
  C 251.28 32.23 250.28 22.60 247.79 21.00"
/>
<path stroke="#2e2e2e" vector-effect="non-scaling-stroke" d="
  M 247.79 21.00
  C 243.32 10.53 234.82 4.81 223.49 4.07
  C 215.49 3.56 207.78 4.12 200.20 3.99
  C 145.38 3.06 90.40 3.73 35.57 3.79
  C 19.83 3.80 9.04 13.07 6.71 28.50"
/>
<path stroke="#464945" vector-effect="non-scaling-stroke" d="
  M 6.71 28.50
  Q 5.62 30.24 5.68 32.23
  C 5.72 33.46 5.23 34.67 3.79 34.25"
/>
<path stroke="#181b17" vector-effect="non-scaling-stroke" d="
  M 247.79 21.00
  Q 248.63 23.06 247.58 24.17
  A 0.40 0.39 55.9 0 1 246.92 24.04
  L 246.60 23.22
  A 0.36 0.35 79.2 0 0 246.29 23.00
  L 245.97 22.99
  A 0.27 0.26 -2.9 0 0 245.70 23.28
  L 246.46 30.75"
/>
<path stroke="#3b3c3c" vector-effect="non-scaling-stroke" d="
  M 246.46 30.75
  C 246.41 38.09 246.75 46.20 246.75 52.76
  Q 246.75 260.88 246.75 469.00
  Q 246.75 476.89 242.00 484.98
  Q 241.75 485.40 242.07 485.02
  Q 249.31 476.35 249.30 466.50
  Q 249.06 290.00 249.54 113.50"
/>
<path stroke="#181b17" vector-effect="non-scaling-stroke" d="
  M 249.54 113.50
  L 250.71 114.25"
/>
<path stroke="#2e2e2e" vector-effect="non-scaling-stroke" d="
  M 250.71 114.25
  C 250.45 146.34 251.05 178.42 250.96 210.50
  Q 250.61 336.89 250.97 463.26
  C 251.01 477.58 244.47 490.45 230.94 494.93
  Q 226.89 496.27 219.41 496.27
  Q 127.09 496.24 34.78 496.25
  C 20.33 496.25 9.44 487.04 6.41 472.80
  A 1.19 1.19 0.0 0 1 7.15 471.44
  Q 7.45 471.33 7.96 471.75"
/>
<path stroke="#3b3c3c" vector-effect="non-scaling-stroke" d="
  M 7.96 471.75
  Q 8.86 476.65 11.80 480.59
  Q 12.11 481.00 11.96 480.50
  C 9.01 470.79 9.76 460.01 9.75 451.69
  Q 9.48 244.77 9.52 37.86
  C 9.52 29.65 10.13 23.75 13.57 17.18
  A 0.27 0.27 0.0 0 0 13.11 16.90
  Q 9.13 22.77 7.71 29.25"
/>
<path stroke="#181b17" vector-effect="non-scaling-stroke" d="
  M 7.71 29.25
  L 7.16 29.21
  A 0.43 0.43 0.0 0 1 6.76 28.84
  L 6.71 28.50"
/>
<path stroke="#464945" vector-effect="non-scaling-stroke" d="
  M 251.96 39.00
  L 251.75 38.76
  A 0.23 0.23 0.0 0 0 251.38 38.80
  Q 251.02 39.39 251.02 40.50
  Q 250.87 76.33 250.99 112.16
  C 250.99 112.76 250.61 113.50 250.71 114.25"
/>
<path stroke="#535653" vector-effect="non-scaling-stroke" d="
  M 249.54 113.50
  C 248.75 88.51 249.25 63.34 249.13 38.31
  C 249.12 36.32 248.54 26.33 247.07 26.41
  A 0.57 0.57 0.0 0 0 246.53 26.97
  L 246.46 30.75"
/>
<path stroke="#181b17" vector-effect="non-scaling-stroke" d="
  M 7.46 187.75
  L 7.17 186.80
  A 0.77 0.77 0.0 0 0 6.51 186.26
  Q 5.96 186.21 5.54 186.75"
/>
<path stroke="#464945" vector-effect="non-scaling-stroke" d="
  M 5.54 186.75
  Q 5.18 184.76 5.20 182.75
  C 5.46 146.72 5.32 110.70 5.72 74.67
  C 5.83 64.89 5.12 53.01 5.51 42.14
  A 0.64 0.64 0.0 0 0 5.02 41.49
  Q 4.50 41.36 4.00 41.79"
/>
<path stroke="#2e2e2e" vector-effect="non-scaling-stroke" d="
  M 5.54 186.75
  Q 5.34 210.38 5.74 221.25
  C 6.83 250.34 6.31 279.58 6.29 308.69
  Q 6.29 310.24 6.10 310.91
  Q 5.97 311.39 5.98 311.88
  Q 6.32 325.04 6.25 338.19
  C 6.07 371.48 6.30 404.77 6.32 438.06
  Q 6.32 439.41 6.16 440.74
  A 0.46 0.45 -87.2 0 0 6.62 441.25
  L 7.21 441.25"
/>
<path stroke="#696a6a" vector-effect="non-scaling-stroke" d="
  M 7.96 471.75
  Q 7.17 457.14 7.31 442.50
  Q 7.32 441.88 7.21 441.25"
/>
<path stroke="#3b3c3c" vector-effect="non-scaling-stroke" d="
  M 7.21 441.25
  C 6.91 370.26 6.88 299.24 7.06 228.25
  C 7.09 216.92 7.70 201.27 7.46 187.75"
/>
<path stroke="#535653" vector-effect="non-scaling-stroke" d="
  M 7.46 187.75
  C 7.39 134.93 6.93 82.06 7.71 29.25"
/>
<path stroke="#181b17" vector-effect="non-scaling-stroke" d="
  M 27.50 6.79
  L 24.66 8.19
  Q 23.94 8.55 24.74 8.45
  Q 26.43 8.25 28.00 7.54"
/>
<path stroke="#2e2e2e" vector-effect="non-scaling-stroke" d="
  M 28.00 7.54
  C 44.28 5.86 61.36 6.73 77.75 6.79"
/>
<path stroke="#000000" vector-effect="non-scaling-stroke" d="
  M 77.75 6.79
  L 80.70 7.15
  A 1.03 1.03 0.0 0 1 81.45 7.60
  Q 84.19 11.68 83.03 16.33
  A 1.14 1.12 -58.7 0 0 83.27 17.34
  Q 85.31 19.73 84.56 23.12
  A 0.83 0.80 89.0 0 1 83.99 23.73
  L 82.28 24.23
  A 0.71 0.71 0.0 0 0 81.77 24.95
  C 81.86 26.61 94.28 26.98 96.10 26.97
  Q 129.65 26.81 163.19 26.46
  C 167.11 26.42 168.13 21.41 171.92 19.33
  A 0.67 0.66 69.3 0 0 172.25 18.59
  Q 171.80 16.61 169.83 16.49
  A 1.46 1.46 0.0 0 1 168.49 15.32
  C 167.73 11.43 173.84 10.81 176.15 12.06
  A 1.06 1.04 41.9 0 0 177.23 12.01
  L 181.71 9.00
  A 1.19 1.16 76.2 0 0 182.23 8.12
  Q 182.37 6.74 184.50 6.79"
/>
<path stroke="#2e2e2e" vector-effect="non-scaling-stroke" d="
  M 184.50 6.79
  Q 205.06 6.48 225.61 7.12
  C 227.38 7.17 229.15 8.20 231.07 8.19
  Q 231.61 8.18 231.14 7.93
  Q 226.08 5.18 220.25 4.99
  C 204.97 4.50 186.91 4.96 174.51 4.99
  Q 105.88 5.10 37.25 4.67
  Q 33.09 4.65 27.50 6.79"
/>
<path stroke="#2e2e2e" vector-effect="non-scaling-stroke" d="
  M 184.50 6.79
  L 77.75 6.79"
/>
<path stroke="#464945" vector-effect="non-scaling-stroke" d="
  M 28.00 7.54
  L 27.50 6.79"
/>
<path stroke="#3b3c3c" vector-effect="non-scaling-stroke" d="
  M 207.25 495.00
  C 215.40 495.48 225.23 496.56 232.53 491.80
  Q 232.95 491.53 232.46 491.66
  Q 225.73 493.49 221.75 493.49
  Q 128.13 493.51 34.50 493.49
  Q 31.62 493.49 24.75 492.00
  Q 24.24 491.89 24.68 492.16
  Q 29.67 495.24 35.25 495.25
  Q 120.98 495.26 206.72 495.25
  A 0.40 0.37 -69.2 0 0 207.02 495.10
  Q 207.12 494.99 207.25 495.00"
/>
<path stroke="#2e2e2e" vector-effect="non-scaling-stroke" d="
  M 100.2965 15.8954
  A 1.00 0.63 -37.2 0 0 99.1191 15.9982
  A 1.00 0.63 -37.2 0 0 98.7035 17.1046
  A 1.00 0.63 -37.2 0 0 99.8809 17.0018
  A 1.00 0.63 -37.2 0 0 100.2965 15.8954"
/>
<path stroke="#2e2e2e" vector-effect="non-scaling-stroke" d="
  M 147.7177 15.9770
  A 0.96 0.71 -31.6 0 0 146.5280 15.8753
  A 0.96 0.71 -31.6 0 0 146.0823 16.9830
  A 0.96 0.71 -31.6 0 0 147.2720 17.0847
  A 0.96 0.71 -31.6 0 0 147.7177 15.9770"
/>
<path stroke="#2e2e2e" vector-effect="non-scaling-stroke" d="
  M 88.1721 18.5045
  A 0.78 0.59 104.7 0 0 88.9407 17.8997
  A 0.78 0.59 104.7 0 0 88.5679 16.9955
  A 0.78 0.59 104.7 0 0 87.7993 17.6003
  A 0.78 0.59 104.7 0 0 88.1721 18.5045"
/>
<path stroke="#2e2e2e" vector-effect="non-scaling-stroke" d="
  M 158.03 17.75
  L 157.85 17.21
  A 0.36 0.36 0.0 0 0 157.19 17.16
  L 156.61 18.26
  Q 156.08 19.28 157.17 18.93
  Q 157.64 18.78 157.77 18.45
  A 0.76 0.02 -68.3 0 0 158.03 17.75"
/>
<path stroke="#2e2e2e" vector-effect="non-scaling-stroke" d="
  M 90.16 17.42
  Q 89.89 18.05 90.00 18.77
  Q 90.41 21.48 90.96 18.67
  Q 91.02 18.36 91.02 18.01
  Q 91.02 15.46 90.16 17.42"
/>
<path stroke="#2e2e2e" vector-effect="non-scaling-stroke" d="
  M 159.36 17.28
  Q 158.82 18.05 159.07 18.97
  A 0.38 0.38 0.0 0 0 159.81 18.92
  L 159.99 17.52
  A 0.35 0.35 0.0 0 0 159.36 17.28"
/>
<path stroke="#2e2e2e" vector-effect="non-scaling-stroke" d="
  M 101.69 18.44
  Q 100.96 18.60 100.34 19.06
  A 0.51 0.51 0.0 0 0 100.27 19.82
  C 100.95 20.57 102.54 19.78 102.23 18.47
  A 0.28 0.27 74.3 0 0 101.88 18.27
  Q 101.77 18.31 101.69 18.44"
/>
<path stroke="#2e2e2e" vector-effect="non-scaling-stroke" d="
  M 149.7717 18.7931
  A 1.23 0.75 -26.4 0 0 148.3365 18.6682
  A 1.23 0.75 -26.4 0 0 147.5683 19.8869
  A 1.23 0.75 -26.4 0 0 149.0035 20.0118
  A 1.23 0.75 -26.4 0 0 149.7717 18.7931"
/>
</g>
<path fill="#000000" d="
  M 35.31 0.00
  L 221.31 0.00
  C 235.76 1.30 248.04 9.74 252.09 23.82
  Q 253.52 28.78 253.51 39.31
  Q 253.48 81.14 253.51 122.97
  A 0.69 0.68 -82.2 0 0 254.01 123.63
  L 255.25 123.96
  Q 253.78 124.59 253.77 126.07
  C 253.73 146.43 252.61 181.41 254.50 183.96
  L 254.02 184.00
  A 0.56 0.55 -2.2 0 0 253.50 184.55
  Q 253.49 323.81 253.51 463.06
  C 253.51 480.07 246.87 492.78 229.99 498.55
  C 227.36 499.45 224.30 499.58 221.44 500.00
  L 34.19 500.00
  C 14.00 497.48 2.74 484.20 2.74 464.38
  Q 2.76 336.57 2.75 208.75
  Q 2.75 208.42 2.25 208.21
  C 3.47 196.01 2.82 183.05 2.50 170.79
  Q 3.16 166.02 2.46 161.25
  Q 3.14 142.52 2.50 123.79
  L 2.69 85.35
  A 0.54 0.52 17.4 0 0 2.45 84.91
  L 2.21 84.75
  Q 3.27 75.39 2.46 66.00
  Q 2.92 51.85 2.78 37.70
  Q 2.69 29.27 3.86 24.93
  C 7.83 10.14 20.00 1.19 35.31 0.00
  Z
  M 3.79 34.25
  L 4.00 41.79
  C 3.82 75.03 4.11 108.27 4.04 141.51
  Q 3.71 297.31 3.95 453.12
  Q 3.97 469.00 4.26 470.98
  C 6.17 484.07 16.33 495.32 29.27 498.12
  Q 33.16 498.96 48.83 498.97
  Q 134.46 499.03 220.09 498.99
  C 221.90 498.99 223.57 498.27 225.40 498.05
  C 238.97 496.40 251.72 483.57 251.82 469.70
  C 252.53 374.67 252.01 279.58 251.99 184.55
  C 251.99 183.88 252.51 183.28 252.50 182.54
  Q 252.49 153.72 252.47 124.90
  Q 252.47 124.41 252.23 123.98
  Q 252.04 123.65 252.04 123.25
  Q 252.04 81.12 251.96 39.00
  L 251.96 35.75
  C 253.65 15.55 237.47 1.14 218.00 1.16
  Q 131.90 1.24 45.80 1.27
  Q 32.32 1.27 26.96 2.83
  C 13.07 6.88 4.11 19.67 3.79 34.25
  Z"
/>
<path fill="#5c5c5b" d="
  M 251.96 35.75
  Q 251.24 35.76 251.25 35.00
  C 251.28 32.23 250.28 22.60 247.79 21.00
  C 243.32 10.53 234.82 4.81 223.49 4.07
  C 215.49 3.56 207.78 4.12 200.20 3.99
  C 145.38 3.06 90.40 3.73 35.57 3.79
  C 19.83 3.80 9.04 13.07 6.71 28.50
  Q 5.62 30.24 5.68 32.23
  C 5.72 33.46 5.23 34.67 3.79 34.25
  C 4.11 19.67 13.07 6.88 26.96 2.83
  Q 32.32 1.27 45.80 1.27
  Q 131.90 1.24 218.00 1.16
  C 237.47 1.14 253.65 15.55 251.96 35.75
  Z"
/>
<path fill="#000000" d="
  M 247.79 21.00
  Q 248.63 23.06 247.58 24.17
  A 0.40 0.39 55.9 0 1 246.92 24.04
  L 246.60 23.22
  A 0.36 0.35 79.2 0 0 246.29 23.00
  L 245.97 22.99
  A 0.27 0.26 -2.9 0 0 245.70 23.28
  L 246.46 30.75
  C 246.41 38.09 246.75 46.20 246.75 52.76
  Q 246.75 260.88 246.75 469.00
  Q 246.75 476.89 242.00 484.98
  Q 241.75 485.40 242.07 485.02
  Q 249.31 476.35 249.30 466.50
  Q 249.06 290.00 249.54 113.50
  L 250.71 114.25
  C 250.45 146.34 251.05 178.42 250.96 210.50
  Q 250.61 336.89 250.97 463.26
  C 251.01 477.58 244.47 490.45 230.94 494.93
  Q 226.89 496.27 219.41 496.27
  Q 127.09 496.24 34.78 496.25
  C 20.33 496.25 9.44 487.04 6.41 472.80
  A 1.19 1.19 0.0 0 1 7.15 471.44
  Q 7.45 471.33 7.96 471.75
  Q 8.86 476.65 11.80 480.59
  Q 12.11 481.00 11.96 480.50
  C 9.01 470.79 9.76 460.01 9.75 451.69
  Q 9.48 244.77 9.52 37.86
  C 9.52 29.65 10.13 23.75 13.57 17.18
  A 0.27 0.27 0.0 0 0 13.11 16.90
  Q 9.13 22.77 7.71 29.25
  L 7.16 29.21
  A 0.43 0.43 0.0 0 1 6.76 28.84
  L 6.71 28.50
  C 9.04 13.07 19.83 3.80 35.57 3.79
  C 90.40 3.73 145.38 3.06 200.20 3.99
  C 207.78 4.12 215.49 3.56 223.49 4.07
  C 234.82 4.81 243.32 10.53 247.79 21.00
  Z
  M 27.50 6.79
  L 24.66 8.19
  Q 23.94 8.55 24.74 8.45
  Q 26.43 8.25 28.00 7.54
  C 44.28 5.86 61.36 6.73 77.75 6.79
  L 80.70 7.15
  A 1.03 1.03 0.0 0 1 81.45 7.60
  Q 84.19 11.68 83.03 16.33
  A 1.14 1.12 -58.7 0 0 83.27 17.34
  Q 85.31 19.73 84.56 23.12
  A 0.83 0.80 89.0 0 1 83.99 23.73
  L 82.28 24.23
  A 0.71 0.71 0.0 0 0 81.77 24.95
  C 81.86 26.61 94.28 26.98 96.10 26.97
  Q 129.65 26.81 163.19 26.46
  C 167.11 26.42 168.13 21.41 171.92 19.33
  A 0.67 0.66 69.3 0 0 172.25 18.59
  Q 171.80 16.61 169.83 16.49
  A 1.46 1.46 0.0 0 1 168.49 15.32
  C 167.73 11.43 173.84 10.81 176.15 12.06
  A 1.06 1.04 41.9 0 0 177.23 12.01
  L 181.71 9.00
  A 1.19 1.16 76.2 0 0 182.23 8.12
  Q 182.37 6.74 184.50 6.79
  Q 205.06 6.48 225.61 7.12
  C 227.38 7.17 229.15 8.20 231.07 8.19
  Q 231.61 8.18 231.14 7.93
  Q 226.08 5.18 220.25 4.99
  C 204.97 4.50 186.91 4.96 174.51 4.99
  Q 105.88 5.10 37.25 4.67
  Q 33.09 4.65 27.50 6.79
  Z
  M 241.03 26.56
  C 238.38 19.29 230.32 11.77 221.75 11.76
  Q 202.34 11.73 182.92 11.76
  C 181.15 11.77 180.19 12.51 179.17 13.80
  A 1.48 1.47 65.0 0 0 178.85 14.69
  C 178.62 23.68 173.14 28.26 164.65 28.25
  Q 125.73 28.25 86.81 28.25
  C 79.01 28.25 73.39 25.40 72.26 17.21
  C 71.88 14.46 71.26 11.71 68.24 11.72
  Q 52.96 11.80 37.65 11.72
  C 22.95 11.63 13.24 21.29 13.25 36.25
  Q 13.25 247.36 13.25 458.47
  Q 13.25 469.27 14.77 473.74
  C 18.45 484.51 27.55 488.77 38.46 488.77
  Q 128.06 488.73 217.64 488.76
  C 228.56 488.77 237.42 484.29 241.10 473.58
  Q 242.50 469.49 242.50 461.25
  Q 242.50 250.49 242.50 39.73
  Q 242.49 30.61 241.03 26.56
  Z
  M 207.25 495.00
  C 215.40 495.48 225.23 496.56 232.53 491.80
  Q 232.95 491.53 232.46 491.66
  Q 225.73 493.49 221.75 493.49
  Q 128.13 493.51 34.50 493.49
  Q 31.62 493.49 24.75 492.00
  Q 24.24 491.89 24.68 492.16
  Q 29.67 495.24 35.25 495.25
  Q 120.98 495.26 206.72 495.25
  A 0.40 0.37 -69.2 0 0 207.02 495.10
  Q 207.12 494.99 207.25 495.00
  Z"
/>
<path fill="#5c5c5b" d="
  M 184.50 6.79
  L 77.75 6.79
  C 61.36 6.73 44.28 5.86 28.00 7.54
  L 27.50 6.79
  Q 33.09 4.65 37.25 4.67
  Q 105.88 5.10 174.51 4.99
  C 186.91 4.96 204.97 4.50 220.25 4.99
  Q 226.08 5.18 231.14 7.93
  Q 231.61 8.18 231.07 8.19
  C 229.15 8.20 227.38 7.17 225.61 7.12
  Q 205.06 6.48 184.50 6.79
  Z"
/>
<path fill="#30352e" d="
  M 27.50 6.79
  L 28.00 7.54
  Q 26.43 8.25 24.74 8.45
  Q 23.94 8.55 24.66 8.19
  L 27.50 6.79
  Z"
/>
<path fill="#000000" d="
  M 77.75 6.79
  L 184.50 6.79
  Q 182.37 6.74 182.23 8.12
  A 1.19 1.16 76.2 0 1 181.71 9.00
  L 177.23 12.01
  A 1.06 1.04 41.9 0 1 176.15 12.06
  C 173.84 10.81 167.73 11.43 168.49 15.32
  A 1.46 1.46 0.0 0 0 169.83 16.49
  Q 171.80 16.61 172.25 18.59
  A 0.67 0.66 69.3 0 1 171.92 19.33
  C 168.13 21.41 167.11 26.42 163.19 26.46
  Q 129.65 26.81 96.10 26.97
  C 94.28 26.98 81.86 26.61 81.77 24.95
  A 0.71 0.71 0.0 0 1 82.28 24.23
  L 83.99 23.73
  A 0.83 0.80 89.0 0 0 84.56 23.12
  Q 85.31 19.73 83.27 17.34
  A 1.14 1.12 -58.7 0 1 83.03 16.33
  Q 84.19 11.68 81.45 7.60
  A 1.03 1.03 0.0 0 0 80.70 7.15
  L 77.75 6.79
  Z
  M 100.2965 15.8954
  A 1.00 0.63 -37.2 0 0 99.1191 15.9982
  A 1.00 0.63 -37.2 0 0 98.7035 17.1046
  A 1.00 0.63 -37.2 0 0 99.8809 17.0018
  A 1.00 0.63 -37.2 0 0 100.2965 15.8954
  Z
  M 147.7177 15.9770
  A 0.96 0.71 -31.6 0 0 146.5280 15.8753
  A 0.96 0.71 -31.6 0 0 146.0823 16.9830
  A 0.96 0.71 -31.6 0 0 147.2720 17.0847
  A 0.96 0.71 -31.6 0 0 147.7177 15.9770
  Z
  M 88.1721 18.5045
  A 0.78 0.59 104.7 0 0 88.9407 17.8997
  A 0.78 0.59 104.7 0 0 88.5679 16.9955
  A 0.78 0.59 104.7 0 0 87.7993 17.6003
  A 0.78 0.59 104.7 0 0 88.1721 18.5045
  Z
  M 158.03 17.75
  L 157.85 17.21
  A 0.36 0.36 0.0 0 0 157.19 17.16
  L 156.61 18.26
  Q 156.08 19.28 157.17 18.93
  Q 157.64 18.78 157.77 18.45
  A 0.76 0.02 -68.3 0 0 158.03 17.75
  Z
  M 90.16 17.42
  Q 89.89 18.05 90.00 18.77
  Q 90.41 21.48 90.96 18.67
  Q 91.02 18.36 91.02 18.01
  Q 91.02 15.46 90.16 17.42
  Z
  M 159.36 17.28
  Q 158.82 18.05 159.07 18.97
  A 0.38 0.38 0.0 0 0 159.81 18.92
  L 159.99 17.52
  A 0.35 0.35 0.0 0 0 159.36 17.28
  Z
  M 101.69 18.44
  Q 100.96 18.60 100.34 19.06
  A 0.51 0.51 0.0 0 0 100.27 19.82
  C 100.95 20.57 102.54 19.78 102.23 18.47
  A 0.28 0.27 74.3 0 0 101.88 18.27
  Q 101.77 18.31 101.69 18.44
  Z
  M 149.7717 18.7931
  A 1.23 0.75 -26.4 0 0 148.3365 18.6682
  A 1.23 0.75 -26.4 0 0 147.5683 19.8869
  A 1.23 0.75 -26.4 0 0 149.0035 20.0118
  A 1.23 0.75 -26.4 0 0 149.7717 18.7931
  Z"
/>
<ellipse fill="#5c5c5b" cx="0.00" cy="0.00" transform="translate(99.50,16.50) rotate(-37.2)" rx="1.00" ry="0.63"/>
<ellipse fill="#5c5c5b" cx="0.00" cy="0.00" transform="translate(146.90,16.48) rotate(-31.6)" rx="0.96" ry="0.71"/>
<path fill="#767778" d="
  M 7.96 471.75
  Q 7.17 457.14 7.31 442.50
  Q 7.32 441.88 7.21 441.25
  C 6.91 370.26 6.88 299.24 7.06 228.25
  C 7.09 216.92 7.70 201.27 7.46 187.75
  C 7.39 134.93 6.93 82.06 7.71 29.25
  Q 9.13 22.77 13.11 16.90
  A 0.27 0.27 0.0 0 1 13.57 17.18
  C 10.13 23.75 9.52 29.65 9.52 37.86
  Q 9.48 244.77 9.75 451.69
  C 9.76 460.01 9.01 470.79 11.96 480.50
  Q 12.11 481.00 11.80 480.59
  Q 8.86 476.65 7.96 471.75
  Z"
/>
<ellipse fill="#5c5c5b" cx="0.00" cy="0.00" transform="translate(88.37,17.75) rotate(104.7)" rx="0.78" ry="0.59"/>
<path fill="#5c5c5b" d="
  M 157.77 18.45
  Q 157.64 18.78 157.17 18.93
  Q 156.08 19.28 156.61 18.26
  L 157.19 17.16
  A 0.36 0.36 0.0 0 1 157.85 17.21
  L 158.03 17.75
  A 0.76 0.02 -68.3 0 1 157.77 18.45
  Z"
/>
<path fill="#5c5c5b" d="
  M 91.02 18.01
  Q 91.02 18.36 90.96 18.67
  Q 90.41 21.48 90.00 18.77
  Q 89.89 18.05 90.16 17.42
  Q 91.02 15.46 91.02 18.01
  Z"
/>
<path fill="#5c5c5b" d="
  M 159.36 17.28
  A 0.35 0.35 0.0 0 1 159.99 17.52
  L 159.81 18.92
  A 0.38 0.38 0.0 0 1 159.07 18.97
  Q 158.82 18.05 159.36 17.28
  Z"
/>
<path fill="#5c5c5b" d="
  M 101.69 18.44
  Q 101.77 18.31 101.88 18.27
  A 0.28 0.27 74.3 0 1 102.23 18.47
  C 102.54 19.78 100.95 20.57 100.27 19.82
  A 0.51 0.51 0.0 0 1 100.34 19.06
  Q 100.96 18.60 101.69 18.44
  Z"
/>
<ellipse fill="#5c5c5b" cx="0.00" cy="0.00" transform="translate(148.67,19.34) rotate(-26.4)" rx="1.23" ry="0.75"/>
<path fill="#30352e" d="
  M 247.79 21.00
  C 250.28 22.60 251.28 32.23 251.25 35.00
  Q 251.24 35.76 251.96 35.75
  L 251.96 39.00
  L 251.75 38.76
  A 0.23 0.23 0.0 0 0 251.38 38.80
  Q 251.02 39.39 251.02 40.50
  Q 250.87 76.33 250.99 112.16
  C 250.99 112.76 250.61 113.50 250.71 114.25
  L 249.54 113.50
  C 248.75 88.51 249.25 63.34 249.13 38.31
  C 249.12 36.32 248.54 26.33 247.07 26.41
  A 0.57 0.57 0.0 0 0 246.53 26.97
  L 246.46 30.75
  L 245.70 23.28
  A 0.27 0.26 -2.9 0 1 245.97 22.99
  L 246.29 23.00
  A 0.36 0.35 79.2 0 1 246.60 23.22
  L 246.92 24.04
  A 0.40 0.39 55.9 0 0 247.58 24.17
  Q 248.63 23.06 247.79 21.00
  Z"
/>
<path fill="#767778" d="
  M 249.54 113.50
  Q 249.06 290.00 249.30 466.50
  Q 249.31 476.35 242.07 485.02
  Q 241.75 485.40 242.00 484.98
  Q 246.75 476.89 246.75 469.00
  Q 246.75 260.88 246.75 52.76
  C 246.75 46.20 246.41 38.09 246.46 30.75
  L 246.53 26.97
  A 0.57 0.57 0.0 0 1 247.07 26.41
  C 248.54 26.33 249.12 36.32 249.13 38.31
  C 249.25 63.34 248.75 88.51 249.54 113.50
  Z"
/>
<path fill="#30352e" d="
  M 6.71 28.50
  L 6.76 28.84
  A 0.43 0.43 0.0 0 0 7.16 29.21
  L 7.71 29.25
  C 6.93 82.06 7.39 134.93 7.46 187.75
  L 7.17 186.80
  A 0.77 0.77 0.0 0 0 6.51 186.26
  Q 5.96 186.21 5.54 186.75
  Q 5.18 184.76 5.20 182.75
  C 5.46 146.72 5.32 110.70 5.72 74.67
  C 5.83 64.89 5.12 53.01 5.51 42.14
  A 0.64 0.64 0.0 0 0 5.02 41.49
  Q 4.50 41.36 4.00 41.79
  L 3.79 34.25
  C 5.23 34.67 5.72 33.46 5.68 32.23
  Q 5.62 30.24 6.71 28.50
  Z"
/>
<path fill="#5c5c5b" d="
  M 251.96 39.00
  Q 252.04 81.12 252.04 123.25
  Q 252.04 123.65 252.23 123.98
  Q 252.47 124.41 252.47 124.90
  Q 252.49 153.72 252.50 182.54
  C 252.51 183.28 251.99 183.88 251.99 184.55
  C 252.01 279.58 252.53 374.67 251.82 469.70
  C 251.72 483.57 238.97 496.40 225.40 498.05
  C 223.57 498.27 221.90 498.99 220.09 498.99
  Q 134.46 499.03 48.83 498.97
  Q 33.16 498.96 29.27 498.12
  C 16.33 495.32 6.17 484.07 4.26 470.98
  Q 3.97 469.00 3.95 453.12
  Q 3.71 297.31 4.04 141.51
  C 4.11 108.27 3.82 75.03 4.00 41.79
  Q 4.50 41.36 5.02 41.49
  A 0.64 0.64 0.0 0 1 5.51 42.14
  C 5.12 53.01 5.83 64.89 5.72 74.67
  C 5.32 110.70 5.46 146.72 5.20 182.75
  Q 5.18 184.76 5.54 186.75
  Q 5.34 210.38 5.74 221.25
  C 6.83 250.34 6.31 279.58 6.29 308.69
  Q 6.29 310.24 6.10 310.91
  Q 5.97 311.39 5.98 311.88
  Q 6.32 325.04 6.25 338.19
  C 6.07 371.48 6.30 404.77 6.32 438.06
  Q 6.32 439.41 6.16 440.74
  A 0.46 0.45 -87.2 0 0 6.62 441.25
  L 7.21 441.25
  Q 7.32 441.88 7.31 442.50
  Q 7.17 457.14 7.96 471.75
  Q 7.45 471.33 7.15 471.44
  A 1.19 1.19 0.0 0 0 6.41 472.80
  C 9.44 487.04 20.33 496.25 34.78 496.25
  Q 127.09 496.24 219.41 496.27
  Q 226.89 496.27 230.94 494.93
  C 244.47 490.45 251.01 477.58 250.97 463.26
  Q 250.61 336.89 250.96 210.50
  C 251.05 178.42 250.45 146.34 250.71 114.25
  C 250.61 113.50 250.99 112.76 250.99 112.16
  Q 250.87 76.33 251.02 40.50
  Q 251.02 39.39 251.38 38.80
  A 0.23 0.23 0.0 0 1 251.75 38.76
  L 251.96 39.00
  Z"
/>
<path fill="#5c5c5b" d="
  M 2.46 66.00
  Q 3.27 75.39 2.21 84.75
  Q 1.45 84.91 0.71 84.65
  A 0.70 0.70 0.0 0 1 0.25 83.99
  L 0.25 67.00
  A 0.92 0.90 -16.7 0 1 0.67 66.24
  Q 1.43 65.76 2.46 66.00
  Z"
/>
<path fill="#5c5c5b" d="
  M 2.50 123.79
  Q 3.14 142.52 2.46 161.25
  Q 1.80 161.33 1.20 161.00
  A 0.86 0.84 -76.0 0 1 0.76 160.25
  Q 0.74 142.83 0.75 125.42
  C 0.75 124.27 1.33 123.62 2.50 123.79
  Z"
/>
<path fill="#5c5c5b" d="
  M 255.25 123.96
  L 256.00 124.81
  L 256.00 183.31
  Q 255.49 184.21 254.50 183.96
  C 252.61 181.41 253.73 146.43 253.77 126.07
  Q 253.78 124.59 255.25 123.96
  Z"
/>
<path fill="#5c5c5b" d="
  M 2.50 170.79
  C 2.82 183.05 3.47 196.01 2.25 208.21
  Q 1.70 208.28 1.20 208.01
  A 0.86 0.84 -76.0 0 1 0.76 207.26
  Q 0.74 189.51 0.75 171.75
  Q 0.75 170.46 2.50 170.79
  Z"
/>
<path fill="#000000" d="
  M 7.46 187.75
  C 7.70 201.27 7.09 216.92 7.06 228.25
  C 6.88 299.24 6.91 370.26 7.21 441.25
  L 6.62 441.25
  A 0.46 0.45 -87.2 0 1 6.16 440.74
  Q 6.32 439.41 6.32 438.06
  C 6.30 404.77 6.07 371.48 6.25 338.19
  Q 6.32 325.04 5.98 311.88
  Q 5.97 311.39 6.10 310.91
  Q 6.29 310.24 6.29 308.69
  C 6.31 279.58 6.83 250.34 5.74 221.25
  Q 5.34 210.38 5.54 186.75
  Q 5.96 186.21 6.51 186.26
  A 0.77 0.77 0.0 0 1 7.17 186.80
  L 7.46 187.75
  Z"
/>
<path fill="#767778" d="
  M 207.25 495.00
  Q 207.12 494.99 207.02 495.10
  A 0.40 0.37 -69.2 0 1 206.72 495.25
  Q 120.98 495.26 35.25 495.25
  Q 29.67 495.24 24.68 492.16
  Q 24.24 491.89 24.75 492.00
  Q 31.62 493.49 34.50 493.49
  Q 128.13 493.51 221.75 493.49
  Q 225.73 493.49 232.46 491.66
  Q 232.95 491.53 232.53 491.80
  C 225.23 496.56 215.40 495.48 207.25 495.00
  Z"
/>
</svg>
